<svg width="24" height="34" viewBox="0 0 24 34" fill="none" xmlns="http://www.w3.org/2000/svg">
<path d="M8.44657 0.560969L8.44872 0.561434C9.59077 0.808172 10.8471 0.940983 12.1757 0.940983C13.5006 0.940983 14.7511 0.808895 15.9041 0.533919C17.0385 0.31018 18.0488 1.21485 17.9215 2.3211C17.9174 2.34445 17.915 2.36357 17.9142 2.36997C17.9141 2.37077 17.914 2.37137 17.914 2.37175L17.9096 2.40652L17.9046 2.44581C17.8974 2.50161 17.8868 2.5774 17.8698 2.67242C17.8357 2.86244 17.7752 3.1341 17.6633 3.47216C17.4531 4.10712 17.0594 4.9837 16.3117 5.99703H7.98058C6.71588 4.4538 6.44049 2.58112 6.405 2.33983C6.40447 2.33624 6.404 2.33301 6.40358 2.33015C6.27002 1.24704 7.30926 0.310009 8.44657 0.560969Z" fill="#42A5F5" stroke="#42A5F5"/>
<path d="M9.19145 26.0773L9.19284 26.0787C9.60969 26.5212 10.1107 26.8571 10.6595 27.0782V27.4409C10.6595 28.2899 11.3471 28.9775 12.1961 28.9775C13.0451 28.9775 13.7327 28.2899 13.7327 27.4409V27.0796C15.2463 26.4726 16.317 24.9916 16.3242 23.2624V23.2603C16.3242 20.9859 14.4773 19.1389 12.2029 19.1389C11.6266 19.1389 11.1548 18.6672 11.1548 18.0908C11.1548 17.5145 11.6266 17.0427 12.2029 17.0427C12.5 17.0427 12.7704 17.162 12.9697 17.3752L12.9697 17.3752L12.9726 17.3783C13.5598 17.9958 14.5287 18.0136 15.1426 17.44L15.1427 17.44L15.1458 17.437C15.7633 16.8499 15.7812 15.8809 15.2075 15.267L15.2061 15.2655C14.7893 14.823 14.2883 14.4872 13.7395 14.266V13.9034C13.7395 13.0544 13.0519 12.3668 12.2029 12.3668C11.3539 12.3668 10.6663 13.0544 10.6663 13.9034V14.2661C9.15357 14.8782 8.08154 16.359 8.08154 18.0908C8.08154 20.3652 9.92853 22.2122 12.2029 22.2122C12.7792 22.2122 13.251 22.6839 13.251 23.2603C13.251 23.8366 12.7792 24.3084 12.2029 24.3084C11.9058 24.3084 11.6354 24.1891 11.4361 23.9759L11.4359 23.9758C10.8488 23.3482 9.87762 23.3301 9.26315 23.9043L9.26295 23.9045C8.63533 24.4916 8.61728 25.4628 9.19145 26.0773ZM7.55378 8.43604H16.7847C18.6833 9.93698 20.3166 12.2424 21.487 14.8578C22.6831 17.5308 23.3787 20.4899 23.3922 23.1729C23.3918 26.7977 22.1352 29.1981 20.1621 30.7087C18.1659 32.2369 15.3665 32.9082 12.1961 32.9082C9.0245 32.9082 6.22527 32.245 4.22958 30.7211C2.25716 29.215 1 26.8148 1 23.1716C1 20.4892 1.68868 17.5302 2.87831 14.8569C4.0419 12.2421 5.66835 9.93695 7.55378 8.43604Z" fill="#42A5F5" stroke="#42A5F5"/>
</svg>
