<svg width="137" height="137" viewBox="0 0 137 137" fill="none" xmlns="http://www.w3.org/2000/svg">
<g clip-path="url(#clip0_817_1501)">
<path fill-rule="evenodd" clip-rule="evenodd" d="M68.3597 137C106.191 137 136.86 106.332 136.86 68.5C136.86 30.6685 106.191 0 68.3597 0C30.5282 0 -0.140259 30.6685 -0.140259 68.5C-0.140259 106.332 30.5282 137 68.3597 137ZM68.3597 132.18C33.1902 132.18 4.67965 103.67 4.67965 68.5C4.67965 33.3305 33.1902 4.81991 68.3597 4.81991C103.529 4.81991 132.04 33.3305 132.04 68.5C132.04 103.67 103.529 132.18 68.3597 132.18Z" fill="#F9FAFF"/>
<path fill-rule="evenodd" clip-rule="evenodd" d="M104.755 120.754C97.3808 125.891 89.0026 129.408 80.1716 131.075C71.3406 132.742 62.2568 132.521 53.5174 130.426C44.778 128.331 36.5809 124.411 29.465 118.922C22.3492 113.433 16.4758 106.499 12.2309 98.5782C7.98607 90.657 5.46594 81.9269 4.8362 72.9621C4.20646 63.9972 5.48139 55.0006 8.57716 46.5637C11.6729 38.1268 16.5194 30.4407 22.798 24.0108C29.0766 17.5808 36.6451 12.5526 45.0058 9.25674L43.2382 4.77266C43.2373 4.773 43.2364 4.77335 43.2356 4.77369C41.3697 5.50932 39.5405 6.32515 37.7528 7.21802C30.9246 10.6283 24.7014 15.1624 19.3495 20.6434C12.5957 27.56 7.38233 35.8279 4.05224 44.9034C0.722155 53.9789 -0.649266 63.6564 0.0281386 73.2998C0.705535 82.9432 3.41641 92.334 7.98256 100.855C12.5487 109.376 18.8667 116.834 26.5211 122.738C34.1756 128.643 42.9931 132.86 52.394 135.113C61.7949 137.366 71.5663 137.604 81.0657 135.811C88.5933 134.39 95.815 131.719 102.436 127.923C104.17 126.928 105.863 125.856 107.51 124.709L104.755 120.754Z" fill="#4CD7AB"/>
<path d="M89.7517 39.4565H78.9879V34.4586C78.9879 33.1008 77.8871 32 76.5293 32H61.0412C59.6834 32 58.5826 33.1008 58.5826 34.4586V39.4565H47.8183C46.4605 39.4565 45.3597 40.5573 45.3597 41.9151V103.542C45.3597 104.899 46.4605 106 47.8183 106H89.7517C91.1095 106 92.2103 104.899 92.2103 103.542V41.9151C92.2103 40.5571 91.1096 39.4565 89.7517 39.4565ZM63.4996 36.9171H74.0706V45.2756H63.4996V36.9171V36.9171ZM87.2931 101.083H50.2769V44.3737H58.5824V47.7342C58.5824 49.092 59.6832 50.1928 61.041 50.1928H76.5292C77.887 50.1928 78.9877 49.092 78.9877 47.7342V44.3737H87.2931V101.083V101.083Z" fill="#42A5F5"/>
<path d="M61.2811 83.5707H76.2894C77.1945 83.5707 77.9284 82.8369 77.9284 81.9317V78.2192C77.9284 75.1149 76.372 72.3686 73.9996 70.7152C76.3718 69.0617 77.9284 66.3155 77.9284 63.211C77.9284 58.1694 73.8269 54.0679 68.7852 54.0679C63.7436 54.0679 59.6421 58.1694 59.6421 63.211C59.6421 66.3153 61.1985 69.0617 63.5707 70.7152C61.1985 72.3686 59.6421 75.1149 59.6421 78.2192V81.9317C59.6421 82.8369 60.3759 83.5707 61.2811 83.5707ZM62.9202 63.211C62.9202 59.977 65.5512 57.346 68.7852 57.346C72.0192 57.346 74.6503 59.977 74.6503 63.211C74.6503 66.445 72.0192 69.0761 68.7852 69.0761C65.5512 69.0761 62.9202 66.445 62.9202 63.211ZM62.9202 78.2192C62.9202 74.9852 65.5512 72.3542 68.7852 72.3542C72.0192 72.3542 74.6503 74.9852 74.6503 78.2192V80.2926H62.9202V78.2192Z" fill="#42A5F5"/>
<path d="M58.3367 86.6597C57.4315 86.6597 56.6977 87.3935 56.6977 88.2987C56.6977 89.204 57.4315 89.9378 58.3367 89.9378H79.2334C80.1385 89.9378 80.8725 89.204 80.8725 88.2987C80.8725 87.3935 80.1385 86.6597 79.2334 86.6597H58.3367Z" fill="#42A5F5"/>
<path d="M79.2336 92.8057H58.3367C57.4315 92.8057 56.6977 93.5395 56.6977 94.4447C56.6977 95.35 57.4315 96.0838 58.3367 96.0838H79.2334C80.1385 96.0838 80.8725 95.35 80.8725 94.4447C80.8725 93.5395 80.1387 92.8057 79.2336 92.8057Z" fill="#42A5F5"/>
</g>
<defs>
<clipPath id="clip0_817_1501">
<rect width="137" height="137" fill="white"/>
</clipPath>
</defs>
</svg>
