<svg width="47" height="39" viewBox="0 0 47 39" fill="none" xmlns="http://www.w3.org/2000/svg">
<path fill-rule="evenodd" clip-rule="evenodd" d="M28.6277 23C28.6277 22.3035 28.5625 21.592 28.4302 20.8805L32 17.8442L28.6124 12.1633L24.1084 13.6372C22.9709 12.7111 21.6741 11.9807 20.3064 11.4969L19.378 7H12.622L11.6936 11.4951C10.3105 11.9807 9.03682 12.6998 7.88972 13.6353L3.38762 12.1633L0 17.8442L3.56984 20.8805C3.43747 21.592 3.37225 22.3035 3.37225 23C3.37225 23.6965 3.43747 24.408 3.56983 25.1195L0 28.1558L3.3876 33.8367L7.89162 32.3628C9.02913 33.2889 10.3259 34.0193 11.6936 34.5031L12.622 39H19.378L20.3064 34.5049C21.6875 34.0193 22.9632 33.3002 24.1103 32.3647L28.6124 33.8386L32 28.1577L28.4301 25.1214C28.5625 24.408 28.6277 23.6965 28.6277 23M16 29.5882C12.2978 29.5882 9.28615 26.6329 9.28615 23C9.28615 19.3671 12.2978 16.4118 16 16.4118C19.7022 16.4118 22.7138 19.3671 22.7138 23C22.7138 26.6329 19.7022 29.5882 16 29.5882Z" fill="#42A5F5"/>
<circle cx="32" cy="15" r="14" fill="white" stroke="#42A5F5" stroke-width="2"/>
<path d="M31.8411 4C25.8633 4 21 8.8633 21 14.841C21 20.8188 25.8633 25.6821 31.8411 25.6821C37.8189 25.6821 42.6821 20.8188 42.6821 14.841C42.6821 8.86324 37.8189 4 31.8411 4Z" fill="#42A5F5"/>
<path d="M31.8413 9.26416C31.3206 9.26416 30.8984 9.6863 30.8984 10.207V13.8986H29.83C29.3093 13.8986 28.8872 14.3207 28.8872 14.8414C28.8872 15.3621 29.3093 15.7843 29.83 15.7843H31.8413C32.362 15.7843 32.7841 15.3621 32.7841 14.8414V10.207C32.7841 9.6863 32.362 9.26416 31.8413 9.26416Z" fill="white"/>
<path d="M24.7733 14.2124H23.4469C23.0998 14.2124 22.8184 14.4938 22.8184 14.841C22.8184 15.1881 23.0998 15.4695 23.4469 15.4695H24.7733C25.1205 15.4695 25.4019 15.1881 25.4019 14.841C25.4019 14.4938 25.1205 14.2124 24.7733 14.2124Z" fill="white"/>
<path d="M31.8412 8.40187C32.1884 8.40187 32.4698 8.12046 32.4698 7.77331V6.44692C32.4698 6.09977 32.1884 5.81836 31.8412 5.81836C31.4941 5.81836 31.2126 6.09977 31.2126 6.44692V7.77331C31.2126 8.12046 31.4941 8.40187 31.8412 8.40187Z" fill="white"/>
<path d="M31.8412 21.2808C31.4941 21.2808 31.2126 21.5622 31.2126 21.9093V23.2357C31.2126 23.5829 31.4941 23.8643 31.8412 23.8643C32.1884 23.8643 32.4698 23.5829 32.4698 23.2357V21.9093C32.4698 21.5622 32.1884 21.2808 31.8412 21.2808Z" fill="white"/>
</svg>
