<svg width="43" height="48" viewBox="0 0 43 48" fill="none" xmlns="http://www.w3.org/2000/svg">
<path d="M30.8699 32.4296C30.6165 32.43 30.3652 32.4807 30.1313 32.5783C30.1313 32.5783 29.4584 32.8641 28.3866 33.2155C26.8936 33.5641 25.3637 33.7282 23.8308 33.7041C21.4879 33.6941 19.1516 33.4507 16.8569 32.9775C16.7277 32.9518 16.596 32.9376 16.4639 32.9356C16.0069 32.9372 15.5653 33.1021 15.2193 33.4004C13.8094 34.5275 12.1228 35.2556 10.3357 35.5082C7.00657 35.9011 1.91485 35.9252 1.86125 35.9252C1.32495 35.9294 0.815659 36.1633 0.463017 36.5671C0.109918 36.9713 -0.0529282 37.5071 0.0152074 38.0393C0.222496 39.6465 0.53696 41.2384 0.956121 42.8037C1.07452 43.185 1.31172 43.5186 1.63324 43.7554C1.95477 43.9922 2.3436 44.1201 2.74285 44.1197H2.8978L12.6226 43.2922C16.7376 43.9353 21.0434 46.9014 21.0849 46.9308H21.0853C21.3994 47.1514 21.7737 47.2698 22.1571 47.2702H22.3536L35.2235 45.9122H35.2239C35.5471 45.8848 35.8574 45.7718 36.1229 45.5849L42.1796 41.5055C42.7329 41.13 43.0436 40.4878 42.995 39.821C42.9464 39.1543 42.5455 38.564 41.9436 38.2724C41.3421 37.9812 40.6305 38.0332 40.0772 38.4087L34.5326 42.1665C24.1702 41.5293 22.187 39.2782 21.8243 38.5931H21.8247C21.7815 38.5117 21.7475 38.4261 21.7234 38.3372C24.3916 38.1515 27.0265 37.6335 29.5664 36.7948C30.2991 36.5945 31.0129 36.3295 31.6987 36.0026C32.2283 35.7633 32.6163 35.2914 32.7493 34.7256C32.8818 34.1598 32.7439 33.5645 32.3758 33.1147C32.0078 32.6648 31.4515 32.4114 30.8708 32.4296L30.8699 32.4296Z" fill="#42A5F5"/>
<circle cx="24.5" cy="15.5" r="14.5" stroke="#42A5F5" stroke-width="2"/>
<path d="M23.8069 24.6051V23.0033C22.731 22.9048 21.707 22.4948 20.8608 21.8231C20.0142 21.1513 19.3824 20.247 19.0426 19.2213C18.9649 18.9725 18.9944 18.7021 19.1244 18.4761C19.2544 18.2497 19.4733 18.0881 19.7276 18.0303L20.597 17.8218C21.1566 17.6864 21.7307 17.9834 21.9429 18.5189C22.3538 19.5549 23.3126 20.3592 24.9622 20.3592C26.4689 20.3592 27.3441 19.6384 27.3441 18.6202C27.3441 17.828 26.7484 17.2266 25.5994 16.9706L23.4675 16.5062C20.9605 15.9524 19.4061 14.3742 19.4061 12.1468C19.4061 9.68717 21.312 7.87685 23.7953 7.4838V5.81587C23.7949 5.36765 24.1567 5.00333 24.6049 5H25.3377C25.788 5 26.1536 5.36515 26.1536 5.81587V7.55483C27.7483 7.77999 29.1341 8.76622 29.8694 10.1989C30.0214 10.4922 30.0343 10.8382 29.9039 11.1415C29.7734 11.4447 29.5138 11.674 29.1964 11.7654L28.5293 11.9561L28.5297 11.9557C27.9822 12.1165 27.3981 11.8668 27.136 11.3604C26.9067 10.9525 26.5657 10.6181 26.1536 10.3966C25.7411 10.1752 25.2742 10.0755 24.8077 10.1096C23.3247 10.1096 22.5088 10.967 22.5088 11.8963C22.5088 12.617 23.021 13.2186 24.1106 13.4508L26.2246 13.9393C29.1487 14.5886 30.471 16.3212 30.471 18.4117C30.471 20.5021 28.9344 22.521 26.1532 22.9616V24.5876L26.1536 24.5871C26.1536 24.821 26.0605 25.0449 25.8952 25.2103C25.7298 25.3756 25.5059 25.4687 25.2721 25.4687H24.6764C24.1999 25.4653 23.8135 25.0815 23.8069 24.605L23.8069 24.6051Z" fill="#42A5F5"/>
</svg>
