<svg width="43" height="42" viewBox="0 0 43 42" fill="none" xmlns="http://www.w3.org/2000/svg">
<path d="M10.1481 29.3754C7.47762 29.3754 5.78619 25.1917 5.78619 23.0553C5.78619 20.6518 7.74467 18.6934 10.1481 18.6934C12.5516 18.6934 14.5101 20.6518 14.5101 23.0553C14.5101 25.2808 12.8187 29.3754 10.1481 29.3754ZM10.1481 20.4742C8.72376 20.4742 7.56674 21.6315 7.56674 23.0556C7.56674 24.8359 8.99112 27.5955 10.1481 27.5955C11.3055 27.5955 12.7295 24.747 12.7295 23.0556C12.7298 21.6312 11.5725 20.4742 10.1481 20.4742Z" fill="#42A5F5"/>
<path d="M10.1481 20.4742C8.72376 20.4742 7.56674 21.6315 7.56674 23.0556C7.56674 24.8359 8.99112 27.5955 10.1481 27.5955C11.3055 27.5955 12.7295 24.747 12.7295 23.0556C12.7298 21.6312 11.5725 20.4742 10.1481 20.4742Z" fill="#42A5F5"/>
<path d="M10.1481 41.8385C6.9435 41.8385 3.73888 41.5715 0.712036 40.9483L0 40.7703V38.5448C0 36.8534 0.534104 35.2511 1.51319 33.9158C2.5817 32.4026 4.00578 31.4235 5.78632 31.0674C6.49836 30.8894 7.29951 31.1565 8.18979 31.4235C8.90182 31.6906 9.52505 31.8685 10.2371 31.8685C10.8603 31.8685 11.5723 31.6015 12.2844 31.4235C13.0855 31.1565 13.9758 30.8894 14.6878 31.0674C16.3793 31.4235 17.8925 32.4026 18.9607 33.9158C19.9398 35.2511 20.4739 36.9425 20.4739 38.5448V40.7703L19.7618 40.9483C16.5572 41.5715 13.3527 41.8385 10.1481 41.8385Z" fill="#42A5F5"/>
<path d="M31.6908 10.6821C29.0203 10.6821 27.3289 6.49836 27.3289 4.36195C27.3289 1.95848 29.2873 0 31.6908 0C34.0943 0 36.0527 1.95848 36.0527 4.36195C36.0525 6.58748 34.3613 10.6821 31.6908 10.6821ZM31.6908 1.78085C30.2664 1.78085 29.1094 2.93818 29.1094 4.36225C29.1094 6.14249 30.5338 8.90213 31.6908 8.90213C32.8481 8.90213 34.2722 6.05368 34.2722 4.36225C34.2722 2.93787 33.1149 1.78085 31.6908 1.78085Z" fill="#42A5F5"/>
<path d="M31.6908 1.78085C30.2664 1.78085 29.1094 2.93818 29.1094 4.36225C29.1094 6.14249 30.5338 8.90213 31.6908 8.90213C32.8481 8.90213 34.2722 6.05368 34.2722 4.36225C34.2722 2.93787 33.1149 1.78085 31.6908 1.78085Z" fill="#42A5F5"/>
<path d="M31.6908 23.1452C28.4862 23.1452 25.2815 22.8781 22.2547 22.2549L21.5427 22.077V19.8514C21.5427 18.16 22.0768 16.5577 23.0559 15.2224C24.1241 13.7093 25.6373 12.7299 27.3287 12.374C28.0407 12.1961 28.8419 12.4631 29.7321 12.7302C30.4442 12.9972 31.0674 13.1752 31.7794 13.1752C32.4027 13.1752 33.1147 12.9081 33.8267 12.7302C34.6279 12.4631 35.5182 12.1961 36.2302 12.374C37.9216 12.7302 39.4348 13.7093 40.503 15.2224C41.4821 16.5577 42.0162 18.2491 42.0162 19.8514V22.077L41.3042 22.2549C38.0999 22.8781 34.8957 23.1452 31.6908 23.1452Z" fill="#42A5F5"/>
<path d="M36.1414 36.0518H30.8895V34.2716H34.3611V25.3696H36.1414V36.0518Z" fill="#42A5F5"/>
<path d="M31.3345 38.3672V31.958L28.1299 35.1626L31.3345 38.3672Z" fill="#42A5F5"/>
<path d="M6.14236 15.1331H4.36212V7.12158H12.2844V8.90183H6.14221L6.14236 15.1331Z" fill="#42A5F5"/>
<path d="M11.8397 11.2159V4.80664L15.0443 8.01126L11.8397 11.2159Z" fill="#42A5F5"/>
</svg>
