<svg width="138" height="137" viewBox="0 0 138 137" fill="none" xmlns="http://www.w3.org/2000/svg">
<circle cx="69" cy="68.5" r="66" stroke="#4CD7AB" stroke-width="5"/>
<path fill-rule="evenodd" clip-rule="evenodd" d="M67.7367 47.5309C67.7367 54.7628 61.8565 60.6255 54.6029 60.6255C47.3493 60.6255 41.4691 54.7628 41.4691 47.5309C41.4691 40.2989 47.3493 34.4362 54.6029 34.4362C61.8565 34.4362 67.7367 40.2989 67.7367 47.5309ZM70.1802 47.5309C70.1802 56.1083 63.206 63.0617 54.6029 63.0617C45.9998 63.0617 39.0256 56.1083 39.0256 47.5309C39.0256 38.9534 45.9998 32 54.6029 32C63.206 32 70.1802 38.9534 70.1802 47.5309ZM34.5859 64.7258C36.7005 62.6175 40.129 62.6175 42.2436 64.7258L51.4713 73.9261C52.1214 74.5742 53.003 74.9383 53.9223 74.9383H65.2932C66.1366 74.9383 66.8204 74.2566 66.8204 73.4156C66.8204 72.5747 66.1366 71.893 65.2932 71.893H56.4355C54.0739 71.893 52.1594 69.9842 52.1594 67.6296C52.1594 65.275 54.0739 63.3663 56.4355 63.3663H72.9291C73.3342 63.3663 73.7226 63.5267 74.009 63.8122L89.2809 79.0386L92.9352 82.6821L96.5896 79.0386C97.186 78.4439 98.153 78.4439 98.7494 79.0386L104.553 84.8246C105.149 85.4192 105.149 86.3833 104.553 86.9779L85.9211 105.554C85.3246 106.149 84.3577 106.149 83.7613 105.554L77.958 99.768C77.3616 99.1734 77.3616 98.2093 77.958 97.6147L81.3069 94.2757L77.5657 90.5456C75.5609 88.5468 72.8418 87.4239 70.0065 87.4239H50.3268C49.9218 87.4239 49.5333 87.2634 49.2469 86.9779L34.5859 72.3606C32.4714 70.2523 32.4713 66.8341 34.5859 64.7258ZM40.0838 66.8791C39.162 65.9601 37.6675 65.9601 36.7457 66.8791C35.8239 67.7982 35.8239 69.2882 36.7457 70.2073L50.9594 84.3786H70.0065C73.6519 84.3786 77.1479 85.8224 79.7255 88.3923L83.033 91.6899L87.1565 87.8357L87.1589 87.8334L90.5849 84.6454L87.1211 81.1919L72.2965 66.4115H56.4355C55.7608 66.4115 55.2138 66.9569 55.2138 67.6296C55.2138 68.3024 55.7608 68.8477 56.4355 68.8477H65.2932C67.8235 68.8477 69.8748 70.8929 69.8748 73.4156C69.8748 75.9384 67.8235 77.9835 65.2932 77.9835H53.9223C52.1929 77.9835 50.5344 77.2986 49.3116 76.0794L40.0838 66.8791ZM97.6695 82.2686L84.3939 95.5046L81.1976 98.6914L84.8412 102.324L101.313 85.9012L97.6695 82.2686ZM54.9084 54.535C58.9569 54.535 62.2388 51.2628 62.2388 47.2263C62.2388 43.1899 58.9569 39.9177 54.9084 39.9177C50.8598 39.9177 47.5779 43.1899 47.5779 47.2263C47.5779 51.2628 50.8598 54.535 54.9084 54.535ZM54.9084 56.3621C59.969 56.3621 64.0715 52.2719 64.0715 47.2263C64.0715 42.1808 59.969 38.0905 54.9084 38.0905C49.8477 38.0905 45.7452 42.1808 45.7452 47.2263C45.7452 52.2719 49.8477 56.3621 54.9084 56.3621ZM55.1006 43.9319V42.963H54.4255V43.9183C54.1424 43.9462 53.8871 44.0163 53.6594 44.1286C53.3593 44.275 53.1242 44.4842 52.9539 44.7562C52.7837 45.0282 52.6986 45.3494 52.6986 45.72C52.6986 46.1086 52.7779 46.4298 52.9366 46.6839C53.0953 46.9349 53.316 47.1456 53.5988 47.316C53.8845 47.4834 54.2148 47.6418 54.5899 47.7912C54.8121 47.8779 54.9881 47.9675 55.118 48.0602C55.2507 48.1528 55.3459 48.2589 55.4036 48.3785C55.4642 48.498 55.4945 48.643 55.4945 48.8133C55.4945 48.9658 55.4628 49.1032 55.3993 49.2258C55.3387 49.3453 55.2478 49.4395 55.1266 49.5082C55.0083 49.5769 54.8568 49.6113 54.6722 49.6113C54.5539 49.6113 54.437 49.5934 54.3216 49.5575C54.2062 49.5217 54.1023 49.4619 54.01 49.3782C53.9205 49.2915 53.8484 49.1765 53.7936 49.033C53.7387 48.8866 53.7113 48.7042 53.7113 48.4861H52.4649C52.4649 48.8866 52.5283 49.2243 52.6553 49.4992C52.7822 49.7712 52.9525 49.9894 53.166 50.1538C53.3795 50.3181 53.6176 50.4377 53.8801 50.5124C54.034 50.5544 54.1884 50.5842 54.3432 50.6016V51.4897H55.0184V50.602C55.2883 50.573 55.5335 50.5088 55.7542 50.4093C56.0658 50.2658 56.3082 50.0596 56.4813 49.7906C56.6544 49.5187 56.741 49.1899 56.741 48.8044C56.741 48.4158 56.6616 48.096 56.5029 47.845C56.3442 47.5939 56.1235 47.3817 55.8407 47.2084C55.558 47.0351 55.229 46.8737 54.8539 46.7242C54.6231 46.6256 54.4413 46.53 54.3086 46.4373C54.1759 46.3417 54.0821 46.2371 54.0273 46.1235C53.9753 46.0099 53.9494 45.8769 53.9494 45.7245C53.9494 45.5691 53.9739 45.4316 54.023 45.3121C54.0749 45.1895 54.1571 45.0924 54.2697 45.0207C54.3822 44.949 54.5265 44.9131 54.7025 44.9131C54.8208 44.9131 54.929 44.937 55.0271 44.9848C55.1252 45.0296 55.2088 45.0984 55.2781 45.191C55.3502 45.2837 55.405 45.3987 55.4426 45.5362C55.4801 45.6737 55.4988 45.8321 55.4988 46.0114H56.741C56.741 45.6767 56.6934 45.3793 56.5981 45.1193C56.5029 44.8593 56.3659 44.6396 56.187 44.4603C56.0081 44.278 55.7946 44.1405 55.5464 44.0479C55.4069 43.9941 55.2584 43.9555 55.1006 43.9319Z" fill="#42A5F5"/>
</svg>
