<svg width="137" height="137" viewBox="0 0 137 137" fill="none" xmlns="http://www.w3.org/2000/svg">
<path fill-rule="evenodd" clip-rule="evenodd" d="M68.5 137C106.332 137 137 106.332 137 68.5C137 30.6685 106.332 0 68.5 0C30.6685 0 0 30.6685 0 68.5C0 106.332 30.6685 137 68.5 137ZM68.5 132.889C32.9389 132.889 4.11095 104.061 4.11095 68.5C4.11095 32.9389 32.9389 4.11095 68.5 4.11095C104.061 4.11095 132.889 32.9389 132.889 68.5C132.889 104.061 104.061 132.889 68.5 132.889Z" fill="#F9FAFF"/>
<path fill-rule="evenodd" clip-rule="evenodd" d="M132.889 68.5C132.889 81.9122 128.701 94.9896 120.909 105.906C113.117 116.823 102.111 125.034 89.4272 129.393C76.7432 133.752 63.0145 134.042 50.1581 130.221C37.3016 126.401 25.9591 118.661 17.7141 108.082C9.46923 97.5035 4.73351 84.6142 4.16819 71.214C3.60287 57.8138 7.23617 44.5714 14.5608 33.336C21.8854 22.1005 32.5357 13.4327 45.0248 8.54285C57.5138 3.65298 71.218 2.78511 84.2241 6.06042L85.228 2.07394C83.9315 1.74744 82.6285 1.45964 81.3206 1.21044C68.6707 -1.19989 55.5674 0.000236511 43.526 4.71486C30.2396 9.91692 18.9093 19.1381 11.117 31.0909C3.32475 43.0437 -0.540517 57.1315 0.0608988 71.3873C0.662314 85.6431 5.70039 99.3552 14.4717 110.609C23.243 121.863 35.3097 130.097 48.987 134.162C62.6643 138.227 77.2695 137.919 90.7633 133.281C104.257 128.644 115.966 119.908 124.255 108.295C131.768 97.7691 136.131 85.3555 136.883 72.5C136.961 71.1709 137 69.837 137 68.5H132.889Z" fill="#4CD7AB"/>
<path fill-rule="evenodd" clip-rule="evenodd" d="M84.2525 45.0454C84.2525 48.3978 81.5252 51.125 78.1728 51.125C74.8205 51.125 72.0931 48.3978 72.0931 45.0454C72.0931 41.6931 74.8205 38.9658 78.1728 38.9658C81.5252 38.9658 84.2525 41.6931 84.2525 45.0454ZM81.346 45.0454C81.346 43.2958 79.9225 41.8724 78.1728 41.8724C76.4232 41.8724 74.9997 43.2958 74.9997 45.0454C74.9997 46.7951 76.4232 48.2184 78.1728 48.2184C79.9225 48.2184 81.346 46.7951 81.346 45.0454ZM67.0309 65.1735C67.0309 59.0299 72.0292 54.0316 78.1728 54.0316C84.3165 54.0316 89.3147 59.0299 89.3147 65.1735C89.3147 65.9761 88.6641 66.6268 87.8615 66.6268H68.4842C67.6816 66.6268 67.0309 65.9761 67.0309 65.1735ZM78.1728 56.9382C74.1276 56.9382 70.7544 59.8701 70.0659 63.7202H86.2798C85.5913 59.8701 82.218 56.9382 78.1728 56.9382ZM53.4513 49.6351C53.4513 48.5305 54.3467 47.6351 55.4513 47.6351H65.7254C66.8299 47.6351 67.7254 48.5305 67.7254 49.6351C67.7254 50.7397 66.8299 51.6351 65.7254 51.6351H57.4513V75.8888H83.3099C83.8403 75.8888 84.349 76.0996 84.7241 76.4746L90.9912 82.7418V77.8888C90.9912 76.7843 91.8866 75.8888 92.9912 75.8888H101.068V51.6351H88.0518C86.9472 51.6351 86.0518 50.7397 86.0518 49.6351C86.0518 48.5305 86.9472 47.6351 88.0518 47.6351H103.068C104.172 47.6351 105.068 48.5305 105.068 49.6351V77.8888C105.068 78.9934 104.172 79.8888 103.068 79.8888H94.9912V87.5702C94.9912 88.3791 94.5039 89.1084 93.7566 89.4179C93.0092 89.7275 92.149 89.5564 91.577 88.9844L82.4814 79.8888H74.2911C74.389 80.1248 74.4431 80.3836 74.4431 80.655V85.3969C74.4431 86.5014 73.5476 87.3969 72.4431 87.3969H49.7596L40.0713 97.0852C39.4994 97.6572 38.6391 97.8283 37.8918 97.5187C37.1444 97.2092 36.6571 96.4799 36.6571 95.671V87.3969H27C25.8954 87.3969 25 86.5014 25 85.3969V54.1795C25 53.0749 25.8954 52.1795 27 52.1795H50.1167C51.2213 52.1795 52.1167 53.0749 52.1167 54.1795C52.1167 55.284 51.2213 56.1795 50.1167 56.1795H29V83.3969H38.6571C39.7617 83.3969 40.6571 84.2923 40.6571 85.3969V90.8425L47.517 83.9827C47.8921 83.6076 48.4008 83.3969 48.9312 83.3969H70.4431V80.655C70.4431 80.3836 70.4971 80.1248 70.5951 79.8888H55.4513C54.3467 79.8888 53.4513 78.9934 53.4513 77.8888V49.6351Z" fill="#42A5F5"/>
</svg>
