<svg width="37" height="38" viewBox="0 0 37 38" fill="none" xmlns="http://www.w3.org/2000/svg">
<path d="M25.2386 35.6897H24.7737C24.6196 35.6897 24.4718 35.6245 24.3628 35.5084C24.2539 35.3923 24.1927 35.2349 24.1927 35.0707C24.1927 34.9066 24.2539 34.7491 24.3628 34.6331C24.4718 34.517 24.6196 34.4518 24.7737 34.4518H25.2386C27.0772 34.4518 28.8405 33.6737 30.1406 32.2888C31.4407 30.9039 32.1712 29.0255 32.1713 27.0668V15.4296C32.1197 11.7015 30.6933 8.14475 28.2003 5.52783C25.7073 2.91091 22.348 1.44396 18.8481 1.44396C15.3482 1.44396 11.9888 2.91091 9.49581 5.52783C7.00284 8.14475 5.57644 11.7015 5.52484 15.4296V24.88C5.52484 25.0441 5.46362 25.2016 5.35466 25.3177C5.2457 25.4337 5.09791 25.4989 4.94382 25.4989C4.78972 25.4989 4.64193 25.4337 4.53297 25.3177C4.42401 25.2016 4.36279 25.0441 4.36279 24.88V15.4296C4.36279 11.337 5.88889 7.41206 8.60536 4.51818C11.3218 1.6243 15.0062 -0.00146484 18.8478 -0.00146484C22.6895 -0.00146484 26.3738 1.6243 29.0903 4.51818C31.8067 7.41206 33.3328 11.337 33.3328 15.4296V27.0668C33.3327 29.3537 32.4799 31.5469 30.962 33.164C29.444 34.781 27.3853 35.6896 25.2386 35.6897Z" fill="#1E88E5"/>
<path d="M22.4116 37.9998H19.3909C18.7504 37.9999 18.1356 37.7317 17.6791 37.2531C17.2226 36.7745 16.9611 36.1238 16.9509 35.4416V34.9468C16.9611 34.2646 17.2226 33.614 17.6791 33.1354C18.1356 32.6568 18.7504 32.3886 19.3909 32.3887H22.4116C23.0521 32.3886 23.6669 32.6568 24.1234 33.1354C24.5799 33.614 24.8414 34.2646 24.8516 34.9468V35.4416C24.8414 36.1238 24.5799 36.7745 24.1234 37.2531C23.6669 37.7317 23.0521 37.9999 22.4116 37.9998ZM19.3909 33.6282C19.0586 33.628 18.7392 33.7658 18.5007 34.0122C18.2621 34.2587 18.123 34.5945 18.113 34.9484V35.4437C18.1133 35.6203 18.147 35.795 18.2119 35.9575C18.2767 36.12 18.3716 36.2669 18.4907 36.3897C18.6099 36.5125 18.7509 36.6085 18.9055 36.6722C19.0602 36.7358 19.2252 36.7658 19.3909 36.7603H22.4116C22.5776 36.7658 22.7429 36.7357 22.8978 36.6719C23.0526 36.608 23.1938 36.5116 23.313 36.3885C23.4322 36.2653 23.527 36.1179 23.5917 35.955C23.6563 35.7921 23.6896 35.617 23.6895 35.4401V34.9448C23.6795 34.5909 23.5404 34.2551 23.3019 34.0086C23.0633 33.7622 22.744 33.6244 22.4116 33.6246L19.3909 33.6282Z" fill="#1E88E5"/>
<path d="M19.3909 33.6282C19.0586 33.628 18.7392 33.7658 18.5007 34.0122C18.2621 34.2587 18.123 34.5945 18.113 34.9484V35.4437C18.1133 35.6203 18.147 35.795 18.2119 35.9575C18.2767 36.12 18.3716 36.2669 18.4907 36.3897C18.6099 36.5125 18.7509 36.6085 18.9055 36.6722C19.0602 36.7358 19.2252 36.7658 19.3909 36.7603H22.4116C22.5776 36.7658 22.7429 36.7357 22.8978 36.6719C23.0526 36.608 23.1938 36.5116 23.313 36.3885C23.4322 36.2653 23.527 36.1179 23.5917 35.955C23.6563 35.7921 23.6896 35.617 23.6895 35.4401V34.9448C23.6795 34.5909 23.5404 34.2551 23.3019 34.0086C23.0633 33.7622 22.744 33.6244 22.4116 33.6246L19.3909 33.6282Z" fill="#1E88E5"/>
<path d="M4.94272 25.952H3.74399C2.97679 25.941 2.24393 25.6114 1.7014 25.0334C1.15886 24.4554 0.849481 23.6747 0.839111 22.8574V19.2264C0.849606 18.4092 1.15904 17.6286 1.70156 17.0507C2.24409 16.4729 2.97687 16.1434 3.74399 16.1323H4.94272C5.09637 16.1323 5.24373 16.1973 5.35237 16.3131C5.46102 16.4288 5.52206 16.5858 5.52206 16.7495V25.3333C5.52225 25.4145 5.5074 25.4949 5.47837 25.5699C5.44935 25.645 5.4067 25.7132 5.35289 25.7707C5.29907 25.8282 5.23514 25.8738 5.16476 25.9049C5.09438 25.936 5.01892 25.952 4.94272 25.952ZM3.74399 17.3703C3.28176 17.3703 2.83846 17.5659 2.51162 17.9141C2.18478 18.2623 2.00116 18.7345 2.00116 19.2269V22.8579C2.00116 23.3503 2.18478 23.8226 2.51162 24.1708C2.83846 24.519 3.28176 24.7146 3.74399 24.7146H4.36339V17.3703H3.74399Z" fill="#1E88E5"/>
<path d="M3.74399 17.3703C3.28176 17.3703 2.83846 17.5659 2.51162 17.9141C2.18478 18.2623 2.00116 18.7345 2.00116 19.2269V22.8579C2.00116 23.3503 2.18478 23.8226 2.51162 24.1708C2.83846 24.519 3.28176 24.7146 3.74399 24.7146H4.36339V17.3703H3.74399Z" fill="#1E88E5"/>
<path d="M33.9533 25.952H32.7512C32.5976 25.952 32.4502 25.887 32.3416 25.7712C32.2329 25.6555 32.1719 25.4985 32.1719 25.3348V16.7495C32.1719 16.6684 32.1869 16.5882 32.216 16.5133C32.2451 16.4384 32.2878 16.3704 32.3416 16.3131C32.3954 16.2558 32.4592 16.2103 32.5295 16.1793C32.5998 16.1483 32.6751 16.1323 32.7512 16.1323H33.9519C34.7191 16.1434 35.4519 16.473 35.9945 17.0509C36.537 17.6289 36.8464 18.4096 36.8568 19.2269V22.8579C36.8464 23.6752 36.537 24.4559 35.9945 25.0339C35.4519 25.6119 34.7191 25.9415 33.9519 25.9525L33.9533 25.952ZM33.3334 24.7141H33.9533C34.4156 24.7141 34.8588 24.5185 35.1857 24.1703C35.5125 23.8221 35.6962 23.3498 35.6962 22.8574V19.2264C35.6962 18.734 35.5125 18.2617 35.1857 17.9135C34.8588 17.5654 34.4156 17.3697 33.9533 17.3697H33.3339L33.3334 24.7141Z" fill="#1E88E5"/>
<path d="M33.3334 24.7141H33.9533C34.4156 24.7141 34.8588 24.5185 35.1857 24.1703C35.5125 23.8221 35.6962 23.3498 35.6962 22.8574V19.2264C35.6962 18.734 35.5125 18.2617 35.1857 17.9135C34.8588 17.5654 34.4156 17.3697 33.9533 17.3697H33.3339L33.3334 24.7141Z" fill="#1E88E5"/>
</svg>
