<svg width="39" height="40" viewBox="0 0 39 40" fill="none" xmlns="http://www.w3.org/2000/svg">
<path d="M38.1945 20.0001C38.1945 19.3768 38.3701 18.6655 38.5558 17.9123C38.8677 16.6481 39.2212 15.2151 38.7679 13.8188C38.2965 12.3669 37.143 11.4023 36.1252 10.5513C35.552 10.0719 35.0106 9.61924 34.6714 9.15318C34.3244 8.67626 34.0563 8.01404 33.7725 7.31292C33.2779 6.0909 32.7173 4.70584 31.4996 3.81959C30.2928 2.94131 28.8078 2.83382 27.4976 2.73918C26.7369 2.68417 26.0185 2.63214 25.4456 2.4462C24.9141 2.27366 24.3263 1.9045 23.704 1.51363C22.5743 0.804092 21.2939 0 19.7419 0C18.1899 0 16.9095 0.804092 15.7799 1.51354C15.1576 1.90432 14.5698 2.27348 14.0383 2.44611C13.4653 2.63214 12.7469 2.68408 11.9862 2.73909C10.6761 2.83382 9.19107 2.94122 7.98425 3.8195C6.76658 4.70575 6.20597 6.0909 5.71131 7.31283C5.42748 8.01395 5.15948 8.67617 4.81249 9.15309C4.47319 9.61915 3.93185 10.0719 3.35867 10.5512C2.34086 11.4022 1.18734 12.3668 0.716031 13.8185C0.262547 15.2149 0.616141 16.6479 0.928024 17.9121C1.11387 18.6654 1.28931 19.3768 1.28931 20C1.28931 20.6233 1.11387 21.3347 0.928024 22.0878C0.616141 23.3521 0.262638 24.7851 0.716031 26.1815C1.18734 27.6332 2.34095 28.5978 3.35876 29.4488C3.93194 29.9281 4.47337 30.3809 4.81258 30.8469C5.15957 31.3238 5.42757 31.986 5.7114 32.6872C6.20606 33.9093 6.76667 35.2943 7.98434 36.1805C9.19116 37.0588 10.6761 37.1663 11.9863 37.2609C12.747 37.3159 13.4654 37.368 14.0383 37.5539C14.5699 37.7265 15.1576 38.0956 15.78 38.4865C16.9096 39.1959 18.19 40 19.742 40C21.294 40 22.5743 39.1959 23.7039 38.4865C24.3262 38.0958 24.914 37.7266 25.4456 37.554C26.0186 37.3679 26.737 37.3159 27.4978 37.2609C28.8079 37.1662 30.2929 37.0588 31.4997 36.1805C32.7174 35.2943 33.278 33.9091 33.7726 32.6872C34.0564 31.986 34.3245 31.3238 34.6715 30.8469C35.0107 30.3809 35.5522 29.9281 36.1254 29.4488C37.1431 28.5978 38.2967 27.6332 38.768 26.1815C39.2215 24.7851 38.8679 23.3521 38.556 22.0878C38.3701 21.3348 38.1945 20.6235 38.1945 20.0001ZM35.9205 22.7381C36.1674 23.7386 36.4004 24.6834 36.1862 25.3433C35.956 26.0521 35.1924 26.6907 34.384 27.3666C33.7098 27.9303 33.0128 28.5133 32.4767 29.2499C31.9336 29.996 31.5896 30.8459 31.2568 31.6678L31.2564 31.6688C30.8635 32.6396 30.4924 33.5565 29.9023 33.9859C29.3229 34.4076 28.3411 34.4786 27.3018 34.5537C26.4129 34.618 25.4938 34.6845 24.6072 34.9724C23.7555 35.2489 22.9953 35.7263 22.2603 36.1879C21.3613 36.7524 20.5122 37.2857 19.742 37.2857C18.9717 37.2857 18.1226 36.7524 17.2236 36.1879C16.4885 35.7262 15.7284 35.2489 14.8766 34.9723C13.9905 34.6846 13.0719 34.6181 12.1834 34.5538L12.1821 34.5537C11.1427 34.4786 10.161 34.4076 9.58158 33.9859C8.99156 33.5565 8.62041 32.6396 8.22755 31.6688L8.22714 31.6678C7.8944 30.8459 7.55036 29.996 7.00725 29.2499C6.47125 28.5132 5.77411 27.9303 5.09994 27.3666L5.09905 27.3659C4.29095 26.6901 3.52778 26.0519 3.29777 25.3434C3.08352 24.6834 3.31659 23.7386 3.56342 22.7381C3.77994 21.8607 4.00378 20.9532 4.00378 20.0001C4.00378 19.047 3.77994 18.1396 3.56342 17.262C3.31659 16.2616 3.08352 15.3167 3.29777 14.6569C3.52786 13.9481 4.29151 13.3094 5.09994 12.6336C5.77411 12.0699 6.47116 11.4869 7.00725 10.7503C7.55036 10.0042 7.8944 9.15433 8.22714 8.33236L8.22755 8.33136C8.62041 7.3606 8.99156 6.44368 9.58167 6.01426C10.161 5.59263 11.1428 5.5216 12.1822 5.44651L12.1835 5.44641C13.072 5.38211 13.9906 5.31563 14.8768 5.02786C15.7285 4.75126 16.4886 4.27398 17.2237 3.81226C18.1225 3.24767 18.9715 2.71439 19.7419 2.71439C20.5122 2.71439 21.3614 3.24767 22.2603 3.81217C22.9954 4.27389 23.7555 4.75117 24.6072 5.02777C25.4933 5.31554 26.412 5.38202 27.3005 5.44632L27.3017 5.44641C28.3411 5.52151 29.3228 5.59254 29.9023 6.01417C30.4923 6.44359 30.8635 7.3606 31.2564 8.33126L31.2568 8.33229C31.5896 9.15425 31.9336 10.0041 32.4766 10.7502C33.0127 11.4868 33.7097 12.0697 34.3839 12.6334C35.1923 13.3094 35.956 13.948 36.1862 14.6568C36.4004 15.3166 36.1673 16.2616 35.9204 17.262C35.7039 18.1395 35.4801 19.0469 35.4801 20C35.4801 20.9532 35.704 21.8606 35.9205 22.7381Z" fill="#42A5F5"/>
<path d="M35.9205 22.7381C36.1674 23.7386 36.4004 24.6834 36.1862 25.3433C35.956 26.0521 35.1924 26.6907 34.384 27.3666C33.7098 27.9303 33.0128 28.5133 32.4767 29.2499C31.9336 29.996 31.5896 30.8459 31.2568 31.6678L31.2564 31.6688C30.8635 32.6396 30.4924 33.5565 29.9023 33.9859C29.3229 34.4076 28.3411 34.4786 27.3018 34.5537C26.4129 34.618 25.4938 34.6845 24.6072 34.9724C23.7555 35.2489 22.9953 35.7263 22.2603 36.1879C21.3613 36.7524 20.5122 37.2857 19.742 37.2857C18.9717 37.2857 18.1226 36.7524 17.2236 36.1879C16.4885 35.7262 15.7284 35.2489 14.8766 34.9723C13.9905 34.6846 13.0719 34.6181 12.1834 34.5538L12.1821 34.5537C11.1427 34.4786 10.161 34.4076 9.58158 33.9859C8.99156 33.5565 8.62041 32.6396 8.22755 31.6688L8.22714 31.6678C7.8944 30.8459 7.55036 29.996 7.00725 29.2499C6.47125 28.5132 5.77411 27.9303 5.09994 27.3666L5.09905 27.3659C4.29095 26.6901 3.52778 26.0519 3.29777 25.3434C3.08352 24.6834 3.31659 23.7386 3.56342 22.7381C3.77994 21.8607 4.00378 20.9532 4.00378 20.0001C4.00378 19.047 3.77994 18.1396 3.56342 17.262C3.31659 16.2616 3.08352 15.3167 3.29777 14.6569C3.52786 13.9481 4.29151 13.3094 5.09994 12.6336C5.77411 12.0699 6.47116 11.4869 7.00725 10.7503C7.55036 10.0042 7.8944 9.15433 8.22714 8.33236L8.22755 8.33136C8.62041 7.3606 8.99156 6.44368 9.58167 6.01426C10.161 5.59263 11.1428 5.5216 12.1822 5.44651L12.1835 5.44641C13.072 5.38211 13.9906 5.31563 14.8768 5.02786C15.7285 4.75126 16.4886 4.27398 17.2237 3.81226C18.1225 3.24767 18.9715 2.71439 19.7419 2.71439C20.5122 2.71439 21.3614 3.24767 22.2603 3.81217C22.9954 4.27389 23.7555 4.75117 24.6072 5.02777C25.4933 5.31554 26.412 5.38202 27.3005 5.44632L27.3017 5.44641C28.3411 5.52151 29.3228 5.59254 29.9023 6.01417C30.4923 6.44359 30.8635 7.3606 31.2564 8.33126L31.2568 8.33229C31.5896 9.15425 31.9336 10.0041 32.4766 10.7502C33.0127 11.4868 33.7097 12.0697 34.3839 12.6334C35.1923 13.3094 35.956 13.948 36.1862 14.6568C36.4004 15.3166 36.1673 16.2616 35.9204 17.262C35.7039 18.1395 35.4801 19.0469 35.4801 20C35.4801 20.9532 35.704 21.8606 35.9205 22.7381Z" fill="#42A5F5"/>
<path d="M24.663 11.3061C24.2281 11.0599 23.676 11.2129 23.4299 11.6477L14.4791 27.4607C14.233 27.8956 14.386 28.4477 14.8208 28.6938C14.9617 28.7735 15.1147 28.8114 15.2657 28.8114C15.5811 28.8114 15.8875 28.6462 16.0539 28.3521L25.0047 12.5391C25.2509 12.1043 25.0979 11.5522 24.663 11.3061Z" fill="white"/>
<path d="M17.4421 18.6741C17.9854 17.732 18.1292 16.6346 17.8472 15.5843C17.5652 14.534 16.891 13.6563 15.9488 13.1131C15.0068 12.5697 13.9096 12.426 12.8591 12.7079C11.8087 12.9899 10.931 13.6641 10.3878 14.6062C9.84456 15.5484 9.7007 16.6457 9.98272 17.6961C10.2647 18.7464 10.939 19.6241 11.8812 20.1674C12.5081 20.5289 13.2036 20.7135 13.9084 20.7134C14.2628 20.7134 14.6195 20.6667 14.9709 20.5724C16.0212 20.2904 16.8989 19.6163 17.4421 18.6741ZM12.785 18.5997C12.2615 18.2979 11.887 17.8103 11.7302 17.2268C11.5735 16.6433 11.6534 16.0336 11.9553 15.5102C12.257 14.9868 12.7447 14.6122 13.3282 14.4556C13.5235 14.4031 13.7216 14.3772 13.9185 14.3772C14.31 14.3772 14.6964 14.4798 15.0447 14.6806C15.5681 14.9825 15.9427 15.4701 16.0994 16.0536C16.2561 16.6372 16.1762 17.2468 15.8744 17.7701C15.5726 18.2936 15.085 18.6681 14.5014 18.8248C13.9179 18.9816 13.3084 18.9015 12.785 18.5997Z" fill="white"/>
<path d="M27.6072 19.5461C26.665 19.0029 25.5678 18.859 24.5174 19.141C23.467 19.4231 22.5894 20.0972 22.0461 21.0394C21.5029 21.9816 21.359 23.0789 21.641 24.1293C21.9231 25.1796 22.5973 26.0572 23.5394 26.6005C24.1663 26.962 24.8618 27.1467 25.5666 27.1466C25.921 27.1466 26.2777 27.0999 26.6292 27.0055C27.6796 26.7235 28.5572 26.0493 29.1004 25.1072C29.6437 24.165 29.7876 23.0677 29.5055 22.0174C29.2235 20.9671 28.5493 20.0895 27.6072 19.5461ZM27.5329 24.2033C27.2311 24.7267 26.7435 25.1013 26.16 25.2579C25.5765 25.4147 24.9668 25.3347 24.4435 25.033C23.92 24.7311 23.5455 24.2435 23.3887 23.66C23.232 23.0765 23.3119 22.4668 23.6138 21.9435C23.9155 21.42 24.4031 21.0455 24.9867 20.8888C25.182 20.8364 25.3801 20.8104 25.577 20.8104C25.9685 20.8104 26.3549 20.9131 26.7032 21.1139C27.2266 21.4157 27.6012 21.9033 27.7579 22.4869C27.9146 23.0703 27.8347 23.68 27.5329 24.2033Z" fill="white"/>
</svg>
