<svg width="52" height="38" viewBox="0 0 52 38" fill="none" xmlns="http://www.w3.org/2000/svg">
<path d="M23.6064 26.3288C23.4126 26.3291 23.2205 26.3679 23.0416 26.4425C23.0416 26.4425 22.527 26.6611 21.7074 26.9298C20.5657 27.1963 19.3957 27.3218 18.2235 27.3034C16.4319 27.2958 14.6453 27.1096 12.8905 26.7478C12.7917 26.7281 12.691 26.7173 12.59 26.7157C12.2406 26.717 11.9029 26.8431 11.6383 27.0712C10.5601 27.933 9.27042 28.4899 7.90378 28.683C5.35796 28.9835 1.4643 29.0019 1.42331 29.0019C1.0132 29.0051 0.623739 29.184 0.354072 29.4927C0.0840549 29.8018 -0.0404745 30.2116 0.0116292 30.6186C0.170144 31.8476 0.410617 33.0649 0.731152 34.2619C0.821689 34.5536 1.00308 34.8086 1.24895 34.9897C1.49482 35.1708 1.79217 35.2686 2.09748 35.2683H2.21596L9.65255 34.6355C12.7994 35.1273 16.092 37.3955 16.1238 37.418H16.1241C16.3642 37.5867 16.6505 37.6772 16.9436 37.6775H17.0939L26.9356 36.639H26.9359C27.1831 36.6181 27.4204 36.5317 27.6234 36.3887L32.255 33.2692C32.6781 32.9821 32.9157 32.491 32.8786 31.9811C32.8414 31.4712 32.5348 31.0198 32.0745 30.7969C31.6146 30.5742 31.0704 30.6139 30.6472 30.901L26.4073 33.7747C18.4831 33.2874 16.9665 31.5659 16.6892 31.0421H16.6895C16.6565 30.9798 16.6304 30.9144 16.612 30.8464C18.6524 30.7044 20.6673 30.3082 22.6096 29.6669C23.1699 29.5138 23.7157 29.3111 24.2402 29.0611C24.6452 28.8781 24.9419 28.5172 25.0436 28.0845C25.1449 27.6519 25.0394 27.1967 24.758 26.8527C24.4765 26.5086 24.0512 26.3149 23.6071 26.3288L23.6064 26.3288Z" fill="#42A5F5"/>
<path d="M28.3936 11.349C28.5874 11.3486 28.7795 11.3099 28.9584 11.2352C28.9584 11.2352 29.473 11.0167 30.2926 10.7479C31.4343 10.4814 32.6043 10.3559 33.7765 10.3743C35.5681 10.382 37.3547 10.5681 39.1095 10.9299C39.2083 10.9496 39.309 10.9604 39.41 10.962C39.7594 10.9608 40.0971 10.8346 40.3617 10.6066C41.4399 9.74469 42.7296 9.18787 44.0962 8.99473C46.642 8.69422 50.5357 8.67579 50.5767 8.67579C50.9868 8.67261 51.3763 8.49376 51.6459 8.18499C51.9159 7.8759 52.0405 7.46611 51.9884 7.05915C51.8299 5.83011 51.5894 4.61279 51.2688 3.41579C51.1783 3.12418 50.9969 2.86908 50.751 2.68802C50.5052 2.50695 50.2078 2.4091 49.9025 2.40942L49.784 2.40942L42.3474 3.04222C39.2006 2.55046 35.908 0.282272 35.8762 0.259745L35.8759 0.259745C35.6358 0.0910648 35.3495 0.000529853 35.0564 0.000212718L34.9061 0.000212731L25.0644 1.03871L25.0641 1.03871C24.8169 1.05967 24.5796 1.14608 24.3766 1.28903L19.745 4.4085C19.3219 4.69567 19.0843 5.18679 19.1214 5.69666C19.1586 6.20651 19.4652 6.6579 19.9255 6.88089C20.3854 7.10357 20.9296 7.06386 21.3528 6.77669L25.5927 3.90306C33.5169 4.39036 35.0335 6.1118 35.3108 6.63568L35.3105 6.63568C35.3435 6.69794 35.3696 6.76338 35.388 6.83136C33.3476 6.97336 31.3327 7.36949 29.3904 8.01087C28.8301 8.16398 28.2843 8.36666 27.7598 8.61666C27.3548 8.79964 27.0581 9.16051 26.9564 9.59319C26.8551 10.0259 26.9606 10.4811 27.242 10.8251C27.5235 11.1691 27.9488 11.3629 28.3929 11.3489L28.3936 11.349Z" fill="#42A5F5"/>
<circle cx="17.9707" cy="19.5" r="6" fill="white" stroke="#42A5F5"/>
<path d="M17.6799 23.3182V22.6464C17.2287 22.6052 16.7993 22.4332 16.4444 22.1515C16.0894 21.8698 15.8244 21.4906 15.6819 21.0605C15.6493 20.9561 15.6617 20.8427 15.7162 20.7479C15.7708 20.653 15.8626 20.5852 15.9692 20.561L16.3338 20.4736C16.5684 20.4168 16.8092 20.5413 16.8982 20.7659C17.0705 21.2004 17.4726 21.5376 18.1643 21.5376C18.7962 21.5376 19.1632 21.2354 19.1632 20.8084C19.1632 20.4762 18.9134 20.2239 18.4316 20.1166L17.5375 19.9218C16.4862 19.6896 15.8343 19.0278 15.8343 18.0937C15.8343 17.0623 16.6336 16.3031 17.675 16.1383V15.4388C17.6748 15.2509 17.8265 15.0981 18.0145 15.0967H18.3218C18.5106 15.0967 18.6639 15.2498 18.6639 15.4388V16.1681C19.3327 16.2625 19.9139 16.6761 20.2222 17.2769C20.286 17.3999 20.2914 17.545 20.2367 17.6721C20.1819 17.7993 20.0731 17.8955 19.94 17.9338L19.6602 18.0138L19.6604 18.0136C19.4308 18.081 19.1858 17.9763 19.0759 17.7639C18.9798 17.5929 18.8368 17.4526 18.6639 17.3598C18.491 17.2669 18.2952 17.2251 18.0995 17.2394C17.4776 17.2394 17.1355 17.599 17.1355 17.9887C17.1355 18.2909 17.3503 18.5432 17.8072 18.6405L18.6937 18.8454C19.92 19.1177 20.4745 19.8443 20.4745 20.7209C20.4745 21.5976 19.8301 22.4442 18.6638 22.629V23.3108L18.6639 23.3106C18.6639 23.4087 18.6249 23.5026 18.5556 23.572C18.4863 23.6413 18.3924 23.6803 18.2943 23.6803H18.0445C17.8447 23.6789 17.6826 23.518 17.6799 23.3181L17.6799 23.3182Z" fill="#42A5F5"/>
<path fill-rule="evenodd" clip-rule="evenodd" d="M29.6381 24.2096C30.7014 24.9281 31.9514 25.3115 33.2302 25.3115C34.945 25.3115 36.5895 24.6227 37.8021 23.3965C39.0146 22.1704 39.6958 20.5074 39.6958 18.7734C39.6958 17.4803 39.3166 16.2163 38.6061 15.1411C37.8957 14.0659 36.8859 13.2279 35.7045 12.733C34.523 12.2382 33.223 12.1087 31.9688 12.361C30.7146 12.6133 29.5626 13.2359 28.6584 14.1503C27.7541 15.0647 27.1384 16.2297 26.8889 17.4979C26.6394 18.7662 26.7675 20.0808 27.2568 21.2754C27.7462 22.4701 28.5749 23.4912 29.6381 24.2096ZM30.9569 18.7976H31.0753L31.075 18.7979C31.521 18.7979 31.9488 18.6187 32.2641 18.2998C32.5795 17.9809 32.7567 17.5484 32.7567 17.0974V16.9777C32.7567 16.5267 32.5795 16.0941 32.2641 15.7752C31.9488 15.4563 31.521 15.2772 31.075 15.2772H30.9566C30.7339 15.2741 30.5127 15.3157 30.306 15.3998C30.0994 15.4838 29.9112 15.6086 29.7526 15.7668C29.594 15.925 29.4681 16.1134 29.3821 16.3213C29.2961 16.5291 29.2518 16.7521 29.2518 16.9774V17.0971C29.2518 17.3224 29.296 17.5455 29.382 17.7534C29.468 17.9613 29.594 18.1498 29.7526 18.308C29.9113 18.4662 30.0994 18.591 30.3062 18.675C30.5129 18.7591 30.7341 18.8008 30.9569 18.7976ZM30.5784 16.0636C30.6988 16.0156 30.8275 15.9924 30.9569 15.9954H31.0753C31.2028 15.9954 31.3291 16.0208 31.4469 16.0702C31.5647 16.1195 31.6718 16.1919 31.762 16.283C31.8521 16.3742 31.9237 16.4825 31.9725 16.6016C32.0213 16.7207 32.0464 16.8484 32.0464 16.9774V17.0971C32.0464 17.3575 31.9441 17.6073 31.762 17.7915C31.5798 17.9756 31.3328 18.0791 31.0753 18.0791H30.9569C30.8275 18.0821 30.6988 18.0589 30.5784 18.0109C30.458 17.9629 30.3483 17.8911 30.2558 17.7996C30.1632 17.7081 30.0897 17.5988 30.0395 17.4782C29.9893 17.3575 29.9635 17.228 29.9635 17.0971V16.9774C29.9635 16.8465 29.9893 16.717 30.0395 16.5963C30.0897 16.4757 30.1632 16.3664 30.2558 16.2749C30.3483 16.1834 30.458 16.1116 30.5784 16.0636ZM35.5749 22.3653H35.4566C35.0106 22.3653 34.5828 22.1862 34.2675 21.8672C33.9521 21.5483 33.7749 21.1158 33.7749 20.6648V20.5451C33.7718 20.3198 33.813 20.0961 33.8961 19.887C33.9792 19.678 34.1026 19.4877 34.2591 19.3273C34.4156 19.1669 34.602 19.0395 34.8076 18.9525C35.0131 18.8656 35.2337 18.8208 35.4566 18.8209H35.5749C35.7978 18.8208 36.0184 18.8656 36.224 18.9525C36.4295 19.0395 36.616 19.1669 36.7724 19.3273C36.9289 19.4877 37.0523 19.678 37.1354 19.887C37.2185 20.0961 37.2597 20.3198 37.2566 20.5451V20.6648C37.2566 21.1158 37.0794 21.5483 36.7641 21.8672C36.4487 22.1862 36.0209 22.3653 35.5749 22.3653ZM35.4566 19.5394C35.3271 19.5394 35.199 19.5655 35.0797 19.6163C34.9604 19.667 34.8524 19.7414 34.7619 19.835C34.6714 19.9286 34.6004 20.0395 34.5529 20.1612C34.5054 20.283 34.4825 20.4131 34.4855 20.544V20.6637C34.4855 20.7926 34.5106 20.9203 34.5594 21.0395C34.6082 21.1586 34.6797 21.2669 34.7699 21.358C34.8601 21.4492 34.9671 21.5216 35.0849 21.5709C35.2028 21.6203 35.329 21.6457 35.4566 21.6457H35.5749C35.8325 21.6457 36.0795 21.5422 36.2616 21.358C36.4437 21.1739 36.546 20.9241 36.546 20.6637V20.544C36.549 20.4131 36.5261 20.283 36.4786 20.1612C36.4312 20.0395 36.3601 19.9286 36.2696 19.835C36.1792 19.7414 36.0711 19.667 35.9518 19.6163C35.8325 19.5655 35.7044 19.5394 35.5749 19.5394H35.4566ZM30.9968 22.0379C31.0294 22.0503 31.064 22.0559 31.0988 22.0544C31.1576 22.0563 31.2161 22.0442 31.2696 22.0192C31.323 21.9942 31.37 21.957 31.4067 21.9104L35.6459 16.068C35.7024 15.9918 35.7267 15.896 35.7134 15.8017C35.7001 15.7073 35.6502 15.6222 35.5749 15.565C35.4995 15.5079 35.4047 15.4833 35.3114 15.4968C35.2181 15.5103 35.134 15.5607 35.0774 15.6369L30.8145 21.4804C30.7878 21.5196 30.7691 21.5637 30.7594 21.6103C30.7497 21.6568 30.7492 21.7049 30.758 21.7516C30.7668 21.7983 30.7847 21.8428 30.8107 21.8825C30.8366 21.9222 30.8701 21.9562 30.9092 21.9827C30.9345 22.0069 30.9642 22.0256 30.9968 22.0379Z" fill="#42A5F5"/>
</svg>
