<svg width="53" height="50" viewBox="0 0 53 50" fill="none" xmlns="http://www.w3.org/2000/svg">
<path fill-rule="evenodd" clip-rule="evenodd" d="M4.09191 6.29921C5.27567 6.29921 6.23529 5.32975 6.23529 4.13386C6.23529 2.93797 5.27567 1.9685 4.09191 1.9685C2.90815 1.9685 1.94853 2.93797 1.94853 4.13386C1.94853 5.32975 2.90815 6.29921 4.09191 6.29921ZM4.09191 8.26772C6.35181 8.26772 8.18382 6.41692 8.18382 4.13386C8.18382 1.85079 6.35181 0 4.09191 0C1.83201 0 0 1.85079 0 4.13386C0 6.41692 1.83201 8.26772 4.09191 8.26772ZM38.9706 22.0472C38.9706 22.0854 38.9705 22.1235 38.9702 22.1615L40.5289 22.1872C40.5292 22.1406 40.5294 22.0939 40.5294 22.0472C40.5294 12.4801 32.8524 4.72441 23.3824 4.72441C18.8576 4.72441 14.7422 6.49494 11.6779 9.38764L9.96114 7.65328L9.54779 7.2357L8.7211 8.07086L9.13445 8.48844L11.886 11.2205L12.6654 10.4331C15.447 7.82503 19.2881 6.29921 23.3824 6.29921C31.9915 6.29921 38.9706 13.3498 38.9706 22.0472ZM38.8453 24.0536L38.8454 24.0522L38.9318 24.0536H39.3603H42.9426H43.5272V25.2347H42.9426H40.2397C39.6106 28.652 37.9884 31.7167 35.6871 34.1118L34.6326 32.9479C36.7797 30.6868 38.2655 27.7798 38.7757 24.5442L38.8453 24.0536ZM18.7546 37.0897C20.2167 37.5482 21.771 37.7952 23.3824 37.7952C26.833 37.7952 30.673 36.6287 33.235 34.2046L33.6346 34.6357L36.0834 37.2771L36.483 37.7082L35.6297 38.5155L35.2301 38.0845L33.3986 36.1089C30.5808 38.161 27.1213 39.37 23.3824 39.37C21.4863 39.37 19.6622 39.0591 17.9571 38.4851L18.7546 37.0897ZM16.1283 37.7481L16.9111 36.3784C16.6198 36.2439 16.336 36.0942 16.0521 35.9445C15.986 35.9096 15.92 35.8748 15.8538 35.8402C11.0484 33.1575 7.79412 27.9863 7.79412 22.0472C7.79412 18.5814 8.90238 15.377 10.7804 12.7761L9.61139 11.7239C7.4903 14.607 6.23529 18.179 6.23529 22.0472C6.23529 28.5691 9.80292 34.2493 15.0742 37.2044L13.7891 39.453L13.4968 39.9645L14.5093 40.555L14.8016 40.0436L16.1166 37.7426L16.1283 37.7481ZM37.4118 22.2441C37.4118 29.9631 31.2179 36.2205 23.5772 36.2205C15.9366 36.2205 9.74265 29.9631 9.74265 22.2441C9.74265 14.5251 15.9366 8.26772 23.5772 8.26772C31.2179 8.26772 37.4118 14.5251 37.4118 22.2441ZM15.3473 19.3424C14.9989 20.309 14.8088 21.3526 14.8088 22.4409C14.8088 27.442 18.8218 31.4961 23.7721 31.4961C28.7224 31.4961 32.7353 27.442 32.7353 22.4409C32.7353 17.4399 28.7224 13.3858 23.7721 13.3858C22.3275 13.3858 20.9628 13.7311 19.7543 14.3443L26.793 20.8507L22.3208 25.7886L15.3473 19.3424ZM14.4191 45.8661C14.4191 47.062 13.4595 48.0315 12.2757 48.0315C11.092 48.0315 10.1324 47.062 10.1324 45.8661C10.1324 44.6702 11.092 43.7008 12.2757 43.7008C13.4595 43.7008 14.4191 44.6702 14.4191 45.8661ZM16.3676 45.8661C16.3676 48.1492 14.5356 50 12.2757 50C10.0158 50 8.18382 48.1492 8.18382 45.8661C8.18382 43.5831 10.0158 41.7323 12.2757 41.7323C14.5356 41.7323 16.3676 43.5831 16.3676 45.8661ZM39.5551 44.8819C40.7389 44.8819 41.6985 43.9124 41.6985 42.7165C41.6985 41.5206 40.7389 40.5512 39.5551 40.5512C38.3714 40.5512 37.4118 41.5206 37.4118 42.7165C37.4118 43.9124 38.3714 44.8819 39.5551 44.8819ZM39.5551 46.8504C41.815 46.8504 43.6471 44.9996 43.6471 42.7165C43.6471 40.4335 41.815 38.5827 39.5551 38.5827C37.2952 38.5827 35.4632 40.4335 35.4632 42.7165C35.4632 44.9996 37.2952 46.8504 39.5551 46.8504ZM51.0515 22.2441C51.0515 23.44 50.0918 24.4094 48.9081 24.4094C47.7243 24.4094 46.7647 23.44 46.7647 22.2441C46.7647 21.0482 47.7243 20.0787 48.9081 20.0787C50.0918 20.0787 51.0515 21.0482 51.0515 22.2441ZM53 22.2441C53 24.5272 51.168 26.378 48.9081 26.378C46.6482 26.378 44.8162 24.5272 44.8162 22.2441C44.8162 19.961 46.6482 18.1102 48.9081 18.1102C51.168 18.1102 53 19.961 53 22.2441Z" fill="#42A5F5"/>
</svg>
