<svg width="38" height="41" viewBox="0 0 38 41" fill="none" xmlns="http://www.w3.org/2000/svg">
<path d="M36.6574 0.991303C36.5621 0.592932 36.2834 0.263468 35.9065 0.103086C35.5296 -0.0572964 35.099 -0.0293027 34.7458 0.178453C30.1146 2.90254 24.3606 2.90271 19.7291 0.178453C19.325 -0.0594497 18.8233 -0.0594497 18.419 0.178453C13.7877 2.90262 8.03371 2.90262 3.40244 0.178453C3.04938 -0.0293027 2.6187 -0.057038 2.24178 0.103086C1.86486 0.263382 1.58621 0.592932 1.49086 0.991303C-1.84056 14.9094 3.38556 29.4763 14.805 38.1024L18.2953 40.7389C18.5257 40.913 18.7998 41 19.0741 41C19.3482 41 19.6225 40.9129 19.8529 40.7389L23.3432 38.1024C34.7627 29.4763 39.9889 14.9094 36.6574 0.991303ZM21.7858 36.0405L19.0741 38.0887L16.3626 36.0405C6.20775 28.3698 1.32936 15.6368 3.65645 3.2221C8.56309 5.47347 14.2746 5.3236 19.0741 2.7723C23.8739 5.3236 29.5851 5.47356 34.4918 3.2221C36.8189 15.6368 31.9405 28.3698 21.7858 36.0405Z" fill="#42A5F5"/>
<path d="M32.7862 6.12787C32.5787 5.98075 32.3166 5.93277 32.0709 5.99703C30.4944 6.40755 28.8682 6.61573 27.2376 6.61573C24.571 6.61573 21.8692 6.04104 19.4241 4.95369C19.2012 4.85463 18.947 4.85463 18.7241 4.95369C16.2791 6.04104 13.5773 6.61573 10.9108 6.61573C9.28001 6.61573 7.6538 6.40755 6.07737 5.99703C5.83128 5.93286 5.56952 5.98084 5.36219 6.12787C5.15487 6.2749 5.023 6.50608 5.00189 6.7594C4.58233 11.8187 5.40311 16.9674 7.3755 21.6489C9.53265 26.7691 13.0173 31.2464 17.4528 34.5969L18.555 35.4295C18.7086 35.5455 18.8914 35.6035 19.0742 35.6035C19.257 35.6035 19.4397 35.5455 19.5933 35.4295L20.6955 34.5969C25.1311 31.2464 28.6157 26.7689 30.7729 21.6489C32.7452 16.9674 33.566 11.8187 33.1465 6.7594C33.1254 6.506 32.9936 6.2749 32.7862 6.12787Z" fill="#42A5F5"/>
<path d="M15 19.8889L18.3939 23L24 16.5" stroke="white" stroke-width="2" stroke-linecap="round"/>
</svg>
