<svg width="36" height="41" viewBox="0 0 36 41" fill="none" xmlns="http://www.w3.org/2000/svg">
<path d="M28.3837 0H7.60795V3.71128H0.5V9.21537C0.5 13.1696 3.68861 16.3866 7.60795 16.3866H7.7325C8.38849 20.6843 11.6352 24.1108 15.8037 25.0155V30.9553H13.2544C12.4656 30.9553 11.8345 31.6003 11.8345 32.3878V34.2728H9.65896V41H26.341V34.2728H24.1655V32.3878C24.1655 31.592 23.5261 30.9553 22.7456 30.9553H20.1963V25.0155C24.3731 24.1108 27.6115 20.6759 28.2675 16.3866H28.3921C32.3114 16.3866 35.5 13.1696 35.5 9.21537V3.71128H28.3921V0H28.3837ZM7.60795 12.7591C5.67319 12.7591 4.09549 11.1673 4.09549 9.21537V7.33878H7.60795V12.7591ZM22.7123 10.1955L20.5783 12.0135L21.2426 14.753C21.3671 15.264 20.8108 15.6745 20.3624 15.398L17.9958 13.9068L15.621 15.3897C15.1726 15.6661 14.6163 15.264 14.7408 14.7446L15.4051 12.0051L13.2794 10.1955C12.8808 9.85206 13.0884 9.19023 13.6115 9.15672L16.3932 8.95566L17.4561 6.34185C17.6554 5.84757 18.3446 5.84757 18.5439 6.34185L19.5985 8.94728L22.3802 9.14834C22.9033 9.19023 23.1109 9.85206 22.7123 10.1955ZM31.8879 7.33878V9.21537C31.8879 11.1673 30.3185 12.7591 28.3837 12.7591V7.33878H31.8879Z" fill="#42A5F5"/>
</svg>
