<svg width="37" height="25" viewBox="0 0 37 25" fill="none" xmlns="http://www.w3.org/2000/svg">
<path d="M24.7971 5.7971C24.7971 8.72261 22.4255 11.0942 19.5 11.0942C16.5745 11.0942 14.2029 8.72261 14.2029 5.7971C14.2029 2.87159 16.5745 0.5 19.5 0.5C22.4255 0.5 24.7971 2.87159 24.7971 5.7971Z" fill="#2196F3" stroke="#2196F3"/>
<path d="M29.495 24.5H9.50501C9.76553 19.2054 14.1408 14.9928 19.5 14.9928C24.8592 14.9928 29.2344 19.2054 29.495 24.5Z" fill="#2196F3" stroke="#2196F3"/>
<g clip-path="url(#clip0_16_866)">
<path d="M34.087 7.08696C34.087 7.96341 33.3765 8.67391 32.5 8.67391C31.6236 8.67391 30.9131 7.96341 30.9131 7.08696C30.9131 6.2105 31.6236 5.5 32.5 5.5C33.3765 5.5 34.087 6.2105 34.087 7.08696Z" stroke="#2196F3"/>
<path d="M35.7448 13.5H29.2552C29.496 11.9244 30.8571 10.7174 32.5 10.7174C34.143 10.7174 35.504 11.9244 35.7448 13.5Z" stroke="#2196F3"/>
</g>
<g clip-path="url(#clip1_16_866)">
<path d="M6.087 7.08696C6.087 7.96341 5.37649 8.67391 4.50004 8.67391C3.62359 8.67391 2.91309 7.96341 2.91309 7.08696C2.91309 6.2105 3.62359 5.5 4.50004 5.5C5.37649 5.5 6.087 6.2105 6.087 7.08696Z" stroke="#2196F3"/>
<path d="M7.74479 13.5H1.25524C1.49604 11.9244 2.85707 10.7174 4.50002 10.7174C6.14296 10.7174 7.50399 11.9244 7.74479 13.5Z" stroke="#2196F3"/>
</g>
<defs>
<clipPath id="clip0_16_866">
<rect width="9" height="9" fill="white" transform="translate(28 5)"/>
</clipPath>
<clipPath id="clip1_16_866">
<rect width="9" height="9" fill="white" transform="translate(0 5)"/>
</clipPath>
</defs>
</svg>
