<svg width="28" height="37" viewBox="0 0 28 37" fill="none" xmlns="http://www.w3.org/2000/svg">
<path d="M27.25 15.6494V31.625C27.25 32.6693 26.8352 33.6708 26.0967 34.4092C25.3583 35.1477 24.3568 35.5625 23.3125 35.5625H4.9375C3.89321 35.5625 2.89169 35.1477 2.15327 34.4092C1.41484 33.6708 1 32.6693 1 31.625V5.375C1 4.33071 1.41484 3.32919 2.15327 2.59077C2.89169 1.85234 3.89321 1.4375 4.9375 1.4375H13.0381C13.734 1.43761 14.4015 1.71408 14.8936 2.20613L26.4814 13.7939C26.9734 14.286 27.2499 14.9535 27.25 15.6494Z" stroke="#0080FF" stroke-linejoin="round"/>
<path d="M14.125 2.09375V11.9375C14.125 12.6337 14.4016 13.3014 14.8938 13.7937C15.3861 14.2859 16.0538 14.5625 16.75 14.5625H26.5938" stroke="#0080FF" stroke-linecap="round" stroke-linejoin="round"/>
<path d="M7.5625 21.125H20.6875" stroke="#0080FF" stroke-linecap="round" stroke-linejoin="round"/>
<path d="M7.5625 27.6875H20.6875" stroke="#0080FF" stroke-linecap="round" stroke-linejoin="round"/>
</svg>
