<svg width="30" height="34" viewBox="0 0 30 34" fill="none" xmlns="http://www.w3.org/2000/svg">
<path d="M1.5 20.5V33H29.5" stroke="#42A5F5"/>
<rect x="5.5" y="15" width="3" height="11" fill="#42A5F5" stroke="#42A5F5"/>
<path d="M7 15V11.5M7 26.5V30" stroke="#42A5F5"/>
<rect x="11.5" y="10" width="3" height="11" fill="#42A5F5" stroke="#42A5F5"/>
<path d="M13 21V26.5M13 9.5V6.5" stroke="#42A5F5"/>
<rect x="17.5" y="14" width="3" height="11" fill="#42A5F5" stroke="#42A5F5"/>
<path d="M19 25V28M19 14V10.5" stroke="#42A5F5"/>
<rect x="23.5" y="12" width="3" height="5" fill="#42A5F5" stroke="#42A5F5"/>
<path d="M25 9V12M25 17.2138V23.5" stroke="#42A5F5"/>
<path d="M13.5 3L13.8536 2.64645L13.5 2.29289L13.1464 2.64645L13.5 3ZM17 6.5L16.6464 6.85355L17 7.20711L17.3536 6.85355L17 6.5ZM23 1C23 0.723858 22.7761 0.5 22.5 0.5H18C17.7239 0.5 17.5 0.723858 17.5 1C17.5 1.27614 17.7239 1.5 18 1.5H22V5.5C22 5.77614 22.2239 6 22.5 6C22.7761 6 23 5.77614 23 5.5V1ZM0.853553 16.3536L13.8536 3.35355L13.1464 2.64645L0.146447 15.6464L0.853553 16.3536ZM13.1464 3.35355L16.6464 6.85355L17.3536 6.14645L13.8536 2.64645L13.1464 3.35355ZM17.3536 6.85355L22.8536 1.35355L22.1464 0.646447L16.6464 6.14645L17.3536 6.85355Z" fill="#42A5F5"/>
</svg>
