<svg width="50" height="50" viewBox="0 0 50 50" fill="none" xmlns="http://www.w3.org/2000/svg">
<path d="M25 0C15.0012 0 6.86646 8.13467 6.86646 18.1336C6.86646 22.9214 8.71548 27.4377 12.0728 30.8503L12.3393 31.1207C13.7398 32.5934 14.7763 34.3467 15.386 36.2637C14.6669 36.7329 14.1904 37.5439 14.1904 38.4646V41.0668C14.1904 42.4332 15.2392 43.5588 16.5742 43.6819V45.427C16.5742 47.9484 18.6256 49.9999 21.1471 49.9999H28.8527C31.3743 49.9999 33.4257 47.9484 33.4257 45.427V43.6819C34.7605 43.5589 35.8094 42.4332 35.8094 41.0668V38.4646C35.8094 37.5439 35.3329 36.7329 34.6139 36.2638C35.2214 34.3534 36.2531 32.6053 37.6462 31.1358L37.9271 30.8503C41.2845 27.4378 43.1334 22.9215 43.1334 18.1336C43.1336 8.13467 34.9989 0 25 0ZM28.8528 47.0295H21.1472C20.2636 47.0295 19.5447 46.3105 19.5447 45.427V43.6937H30.4553V45.427H30.4554C30.4554 46.3105 29.7365 47.0295 28.8528 47.0295ZM32.8391 40.7232H17.161V38.8082H32.8391V40.7232ZM35.8931 28.6817L35.8192 28.7554C33.8309 30.7366 32.4009 33.1658 31.6402 35.8378H18.3599C17.5993 33.1659 16.1693 30.7367 14.181 28.7554L14.1096 28.6844C11.3535 25.8408 9.83687 22.0984 9.83687 18.1335C9.83687 9.77256 16.639 2.97031 25 2.97031C33.3611 2.97031 40.1631 9.77246 40.1631 18.1335C40.1631 22.0973 38.6476 25.8386 35.8931 28.6817Z" fill="#42A5F5"/>
<path d="M25 13.512C22.4517 13.512 20.3784 15.5852 20.3784 18.1336C20.3784 20.682 22.4516 22.7552 25 22.7552C27.5484 22.7552 29.6216 20.682 29.6216 18.1336C29.6216 15.5852 27.5483 13.512 25 13.512ZM25 19.7848C24.0896 19.7848 23.3488 19.0441 23.3488 18.1336C23.3488 17.2232 24.0896 16.4824 25 16.4824C25.9104 16.4824 26.6512 17.2232 26.6512 18.1336C26.6512 19.0441 25.9104 19.7848 25 19.7848Z" fill="#42A5F5"/>
<path d="M37.1114 19.6188V16.6484H34.4569C34.2171 15.1154 33.6119 13.7022 32.7339 12.5L34.6142 10.6197L32.5138 8.51935L30.6335 10.3996C29.4314 9.52169 28.0182 8.91652 26.4852 8.67657V6.02228H23.5147V8.67667C21.9818 8.91652 20.5686 9.52169 19.3664 10.3997L17.4861 8.51945L15.3857 10.6198L17.2661 12.5C16.3882 13.7022 15.7829 15.1153 15.5431 16.6484H12.8887V19.6188H15.5431C15.7829 21.1517 16.3881 22.565 17.2661 23.7671L15.3858 25.6474L17.4862 27.7478L19.3665 25.8675C20.5686 26.7454 21.9818 27.3506 23.5148 27.5905V30.2449H26.4853V27.5905C28.0182 27.3507 29.4315 26.7455 30.6336 25.8675L32.5139 27.7478L34.6143 25.6474L32.734 23.7671C33.612 22.565 34.2171 21.1518 34.457 19.6188H37.1114ZM25 24.7355C21.3598 24.7355 18.3981 21.7738 18.3981 18.1336C18.3981 14.4934 21.3598 11.5318 25 11.5318C28.6403 11.5318 31.6019 14.4934 31.6019 18.1336C31.6019 21.7738 28.6403 24.7355 25 24.7355Z" fill="#42A5F5"/>
</svg>
