<svg width="50" height="50" viewBox="0 0 50 50" fill="none" xmlns="http://www.w3.org/2000/svg">
<path d="M48.0327 18.7551C48.0404 18.8927 48.0303 19.0327 47.9957 19.1718L44.9116 31.5082C44.7561 32.1297 44.1991 32.5667 43.5587 32.5701L25.054 32.6635C25.0516 32.6635 25.0493 32.6635 25.0469 32.6635H6.54206C5.89832 32.6635 5.33738 32.225 5.18187 31.6004L2.09776 19.2172C2.06224 19.0744 2.05196 18.9304 2.06093 18.7893C0.86785 18.4134 0 17.297 0 15.9813C0 14.3579 1.32056 13.0374 2.94393 13.0374C4.56729 13.0374 5.88785 14.3579 5.88785 15.9813C5.88785 16.8955 5.46897 17.7134 4.81308 18.2538L8.67439 22.1443C9.65028 23.1276 11.0045 23.6914 12.3899 23.6914C14.028 23.6914 15.5899 22.9134 16.5735 21.6101L22.9193 13.2018C22.3862 12.6691 22.0561 11.9331 22.0561 11.1215C22.0561 9.49811 23.3766 8.17755 25 8.17755C26.6234 8.17755 27.9439 9.49811 27.9439 11.1215C27.9439 11.9088 27.6314 12.6233 27.1262 13.1521C27.1279 13.1544 27.1299 13.1562 27.1316 13.1587L33.4314 21.5901C34.4146 22.906 35.9821 23.6916 37.6249 23.6916C39.023 23.6916 40.3378 23.1471 41.3264 22.1583L45.212 18.2727C44.5422 17.7325 44.1121 16.9067 44.1121 15.9813C44.1121 14.3579 45.4327 13.0374 47.0561 13.0374C48.6794 13.0374 50 14.3579 50 15.9813C50 17.2619 49.1766 18.351 48.0327 18.7551ZM44.6107 37.0561C44.6107 36.2819 43.983 35.6542 43.2088 35.6542H6.9471C6.1729 35.6542 5.54523 36.2819 5.54523 37.0561V40.4205C5.54523 41.1947 6.1729 41.8224 6.9471 41.8224H43.2088C43.983 41.8224 44.6107 41.1947 44.6107 40.4205V37.0561Z" fill="#42A5F5"/>
</svg>
