<svg width="46" height="38" viewBox="0 0 46 38" fill="none" xmlns="http://www.w3.org/2000/svg">
<path d="M22.6848 4C14.942 4 8.68481 10.2571 8.68481 18C8.68481 25.7429 14.942 32 22.6848 32C30.4277 32 36.6848 25.7429 36.6848 18C36.6848 10.2571 30.4277 4 22.6848 4ZM22.6848 5.19429C23.3762 5.19429 24.0505 5.25143 24.7134 5.35429L23.422 7.60571L18.502 9.95429L16.5534 11.32L10.782 13.2571C12.662 8.52571 17.2734 5.19429 22.6848 5.19429ZM30.7991 27.9143C28.5934 29.72 25.7648 30.8057 22.6791 30.8057C15.5934 30.8057 9.8791 25.0914 9.8791 18C9.8791 16.8571 10.0277 15.7486 10.3077 14.6971L17.1077 12.4171L19.1191 11.0114L24.2848 8.53714L25.9591 5.61143C26.7762 5.82286 27.5591 6.12 28.2962 6.48V8.55429L26.8848 10.76V13.5543L24.8734 18.1371L26.6048 20.4514H30.7991V27.9143ZM32.0162 26.7829V19.24H27.2162L26.2734 17.9771L28.102 13.8114V11.1143L29.5134 8.91429V7.15429C33.1077 9.41714 35.4905 13.4229 35.4905 18C35.4905 21.4057 34.1705 24.4914 32.0162 26.7829Z" fill="#42A5F5"/>
<path d="M32.0162 26.7829V19.24H27.2162L26.2734 17.9771L28.102 13.8114V11.1143L29.5134 8.91429V7.15429C33.1077 9.41714 35.4905 13.4229 35.4905 18C35.4905 21.4057 34.1705 24.4914 32.0162 26.7829Z" fill="#42A5F5"/>
<path d="M22.6848 5.19429C23.3762 5.19429 24.0505 5.25143 24.7134 5.35429L23.422 7.60571L18.502 9.95429L16.5534 11.32L10.782 13.2571C12.662 8.52571 17.2734 5.19429 22.6848 5.19429Z" fill="#42A5F5"/>
<path d="M16.3077 16.2686L13.9191 18.5371V20.4972L16.102 24.2686L17.3591 28.7829L21.8048 27.8057L22.6391 24.9429L23.8848 23.2286V20.2114L21.2448 19.6571L16.3077 16.2686ZM22.6791 22.84H22.6734L21.5363 24.4L20.8448 26.7772L18.222 27.3543L17.2277 23.7943L15.1306 20.1714V19.0571L16.4334 17.8229L20.7648 20.7943L22.6791 21.1943V22.84Z" fill="#42A5F5"/>
<path d="M22.6791 22.84H22.6734L21.5363 24.4L20.8448 26.7772L18.222 27.3543L17.2277 23.7943L15.1306 20.1714V19.0571L16.4334 17.8229L20.7648 20.7943L22.6791 21.1943V22.84Z" fill="#42A5F5"/>
<path fill-rule="evenodd" clip-rule="evenodd" d="M22.1848 34.9928C22.1887 33.6154 23.3065 32.5 24.6848 32.5C26.0655 32.5 27.1848 33.6193 27.1848 35C27.1848 36.3807 26.0655 37.5 24.6848 37.5C23.644 37.5 22.7517 36.8639 22.3755 35.9593C22.3163 35.9828 22.2515 35.995 22.1835 35.9932C13.9554 35.7682 7.10617 30.0215 5.20785 22.3252H5.03074C2.25234 22.3252 0 20.0729 0 17.2945C0 14.5161 2.25234 12.2637 5.03074 12.2637H5.61814C8.01316 5.13516 14.7493 0 22.6848 0C30.334 0 36.8688 4.77126 39.4754 11.5H40.1476C43.0317 11.5 45.3696 13.838 45.3696 16.722C45.3696 19.4354 43.2915 21.6967 40.5877 21.9254L39.946 21.9797C39.9025 21.9929 39.8565 22 39.8091 22C39.7889 22 39.769 21.9987 39.7495 21.9963L39.727 21.9982L39.7265 21.9929C39.4654 21.947 39.2861 21.6874 39.3413 21.4168C39.5666 20.313 39.6848 19.1703 39.6848 18C39.6848 8.61116 32.0737 1 22.6848 1C13.296 1 5.68481 8.61116 5.68481 18C5.68481 27.2212 13.0266 34.7276 22.1836 34.9928C22.184 34.9928 22.1844 34.9928 22.1848 34.9928ZM40.4022 20.9375L40.5034 20.929C42.6895 20.7441 44.3696 18.9158 44.3696 16.722C44.3696 14.3903 42.4794 12.5 40.1476 12.5H39.829C40.3848 14.2337 40.6848 16.0818 40.6848 18C40.6848 19.0003 40.5746 19.9816 40.4022 20.9375ZM5.31443 13.2637H5.03074C2.80462 13.2637 1 15.0684 1 17.2945C1 19.5074 2.78335 21.3039 4.9913 21.325C4.79005 20.2474 4.68481 19.136 4.68481 18C4.68481 16.3608 4.90392 14.7729 5.31443 13.2637ZM24.6848 33.5C23.8564 33.5 23.1848 34.1716 23.1848 35C23.1848 35.8284 23.8564 36.5 24.6848 36.5C25.5132 36.5 26.1848 35.8284 26.1848 35C26.1848 34.1716 25.5132 33.5 24.6848 33.5Z" fill="#42A5F5"/>
</svg>
