<svg width="37" height="42" viewBox="0 0 37 42" fill="none" xmlns="http://www.w3.org/2000/svg">
<path d="M31.5 15H4L11.9492 23.786C12.9473 24.8891 13.5 26.3238 13.5 27.8115V32.5H21V27.9853C21 26.394 21.6321 24.8679 22.7574 23.7426L31.5 15Z" fill="#42A5F5"/>
<path d="M32.75 14.5H2.75C1.7835 14.5 1 13.7165 1 12.75C1 11.7835 1.7835 11 2.75 11H32.75C33.7165 11 34.5 11.7835 34.5 12.75C34.5 13.7165 33.7165 14.5 32.75 14.5Z" stroke="#42A5F5"/>
<path d="M33.4435 23.4949H22.4425C22.3236 23.4902 22.2111 23.4391 22.1286 23.3526C22.0461 23.2661 22 23.1507 22 23.0307C22 22.9108 22.0461 22.7954 22.1286 22.7089C22.2111 22.6224 22.3236 22.5713 22.4425 22.5665H33.4435C34.1279 22.5665 34.7843 22.2926 35.2682 21.8048C35.7521 21.3171 36.024 20.6557 36.024 19.9659C36.024 19.2762 35.7521 18.6147 35.2682 18.127C34.7843 17.6393 34.1279 17.3653 33.4435 17.3653H28.1563C28.0942 17.3678 28.0323 17.3576 27.9743 17.3354C27.9162 17.3132 27.8632 17.2794 27.8185 17.2361C27.7737 17.1927 27.7381 17.1407 27.7137 17.0832C27.6894 17.0256 27.6769 16.9637 27.6769 16.9011C27.6769 16.8385 27.6894 16.7766 27.7137 16.719C27.7381 16.6615 27.7737 16.6094 27.8185 16.5661C27.8632 16.5227 27.9162 16.4889 27.9743 16.4667C28.0323 16.4445 28.0942 16.4344 28.1563 16.4369H33.4435C34.3723 16.4369 35.2631 16.8087 35.9198 17.4706C36.5766 18.1325 36.9456 19.0302 36.9456 19.9663C36.9456 20.9023 36.5766 21.8001 35.9198 22.462C35.2631 23.1238 34.3723 23.4949 33.4435 23.4949Z" fill="#42A5F5"/>
<circle cx="17" cy="34" r="7.5" fill="white" stroke="#42A5F5"/>
<path fill-rule="evenodd" clip-rule="evenodd" d="M17 39C19.7614 39 22 36.7614 22 34C22 31.2386 19.7614 29 17 29C14.2386 29 12 31.2386 12 34C12 36.7614 14.2386 39 17 39ZM16.9873 32.8435V32.5215H16.7676V32.8423C16.6835 32.852 16.6078 32.8734 16.5405 32.9067C16.4458 32.9536 16.3726 33.0205 16.3208 33.1074C16.269 33.1943 16.2432 33.2979 16.2432 33.418C16.2432 33.5332 16.2671 33.6313 16.3149 33.7124C16.3638 33.7935 16.4326 33.8613 16.5215 33.916C16.6113 33.9707 16.7178 34.0171 16.8408 34.0552C16.9424 34.0884 17.0234 34.1245 17.084 34.1636C17.1445 34.2026 17.188 34.2456 17.2144 34.2925C17.2407 34.3394 17.2539 34.3921 17.2539 34.4507C17.2539 34.52 17.2378 34.5806 17.2056 34.6323C17.1733 34.6841 17.1265 34.7241 17.0649 34.7524C17.0044 34.7798 16.9302 34.7935 16.8423 34.7935C16.7944 34.7935 16.7461 34.7871 16.6973 34.7744C16.6494 34.7607 16.6055 34.7383 16.5654 34.707C16.5254 34.6748 16.4932 34.6318 16.4688 34.5781C16.4453 34.5234 16.4336 34.4546 16.4336 34.3716H16.1611C16.1611 34.4946 16.1807 34.5986 16.2197 34.6836C16.2588 34.7676 16.311 34.8354 16.3765 34.8872C16.4419 34.938 16.5151 34.9746 16.5962 34.9971C16.6447 35.0105 16.6935 35.0199 16.7427 35.0253V35.3047H16.9609V35.0248C17.0502 35.0153 17.1307 34.9949 17.2026 34.9634C17.3052 34.9185 17.3848 34.853 17.4414 34.7671C17.498 34.6802 17.5264 34.5737 17.5264 34.4478C17.5264 34.3315 17.5034 34.2344 17.4575 34.1562C17.4116 34.0771 17.3447 34.0107 17.2568 33.957C17.1689 33.9023 17.062 33.855 16.936 33.8149C16.8286 33.7788 16.7441 33.7422 16.6826 33.7051C16.6221 33.667 16.5791 33.6245 16.5537 33.5776C16.5283 33.5308 16.5156 33.4761 16.5156 33.4136C16.5156 33.3462 16.5283 33.2871 16.5537 33.2363C16.5791 33.1846 16.6182 33.1445 16.6709 33.1162C16.7246 33.0879 16.7925 33.0737 16.8745 33.0737C16.9331 33.0737 16.9849 33.085 17.0298 33.1074C17.0747 33.1289 17.1128 33.1602 17.144 33.2012C17.1753 33.2412 17.1987 33.2886 17.2144 33.3433C17.23 33.3979 17.2378 33.458 17.2378 33.5234H17.5073C17.5073 33.4121 17.4927 33.314 17.4634 33.229C17.4351 33.144 17.3936 33.0723 17.3389 33.0137C17.2852 32.9551 17.2192 32.9111 17.1411 32.8818C17.0938 32.8635 17.0425 32.8507 16.9873 32.8435Z" fill="#42A5F5"/>
<path d="M7.5006 7.05583C6.80825 7.05583 6.13144 6.84892 5.55577 6.46127C4.9801 6.07361 4.53142 5.52263 4.26647 4.87799C4.00152 4.23335 3.93219 3.524 4.06726 2.83965C4.20234 2.1553 4.53574 1.52669 5.0253 1.0333C5.51487 0.539916 6.13862 0.203915 6.81767 0.0677894C7.49672 -0.0683359 8.20057 0.00152858 8.84022 0.268548C9.47987 0.535567 10.0266 0.987749 10.4112 1.56791C10.7959 2.14807 11.0012 2.83016 11.0012 3.52791C11.0012 3.99121 10.9107 4.44996 10.7347 4.87799C10.5588 5.30601 10.301 5.69493 9.9759 6.02253C9.65083 6.35012 9.26493 6.60999 8.84022 6.78728C8.41551 6.96458 7.9603 7.05583 7.5006 7.05583ZM7.5006 0.925429C6.99044 0.925429 6.49175 1.07789 6.06757 1.36353C5.64339 1.64916 5.31278 2.05515 5.11756 2.53015C4.92233 3.00515 4.87125 3.52783 4.97077 4.03208C5.0703 4.53634 5.31596 4.99953 5.6767 5.36308C6.03743 5.72663 6.49703 5.97421 6.99739 6.07451C7.49774 6.17481 8.01637 6.12333 8.48769 5.92658C8.95901 5.72983 9.36186 5.39664 9.64528 4.96916C9.92871 4.54167 10.08 4.03908 10.08 3.52494C10.0718 2.83808 9.79737 2.18169 9.31541 1.69597C8.83345 1.21025 8.18214 0.933716 7.5006 0.925429V0.925429Z" fill="#42A5F5"/>
<path d="M14.5791 11.1238H10.647C10.5604 11.1233 10.4758 11.0965 10.4046 11.0468C10.3333 10.9971 10.2786 10.9269 10.2476 10.8453C10.0762 10.5108 9.9916 10.138 10.0018 9.76165C9.98687 9.35646 10.0639 8.95317 10.2271 8.58255C10.3903 8.21194 10.6354 7.88378 10.9436 7.62311C11.2517 7.36245 11.6149 7.17616 12.0054 7.07846C12.3959 6.98075 12.8033 6.97421 13.1967 7.05934C13.5901 7.14447 13.959 7.31902 14.2752 7.56966C14.5915 7.82031 14.8468 8.14044 15.0216 8.50563C15.1964 8.87083 15.2862 9.27144 15.284 9.6769C15.2819 10.0824 15.1879 10.482 15.0092 10.8453C14.9672 10.925 14.9056 10.9924 14.8303 11.0412C14.755 11.09 14.6685 11.1184 14.5791 11.1238ZM10.9849 10.1954H14.2718C14.3053 10.0531 14.3259 9.90806 14.3334 9.76202C14.3662 9.51695 14.3466 9.26763 14.276 9.03081C14.2053 8.79398 14.0853 8.57513 13.9238 8.38893C13.7623 8.20273 13.5632 8.0535 13.3397 7.95125C13.1163 7.849 12.8738 7.7961 12.6284 7.7961C12.383 7.7961 12.1405 7.849 11.917 7.95125C11.6936 8.0535 11.4945 8.20273 11.333 8.38893C11.1715 8.57513 11.0514 8.79398 10.9808 9.03081C10.9101 9.26763 10.8906 9.51695 10.9234 9.76202C10.9308 9.90806 10.9514 10.0531 10.9849 10.1954Z" fill="#42A5F5"/>
<path d="M10.9849 10.1954H14.2718C14.3053 10.0531 14.3259 9.90806 14.3334 9.76202C14.3662 9.51695 14.3466 9.26763 14.276 9.03081C14.2053 8.79398 14.0853 8.57513 13.9238 8.38893C13.7623 8.20273 13.5632 8.0535 13.3397 7.95125C13.1163 7.849 12.8738 7.7961 12.6284 7.7961C12.383 7.7961 12.1405 7.849 11.917 7.95125C11.6936 8.0535 11.4945 8.20273 11.333 8.38893C11.1715 8.57513 11.0514 8.79398 10.9808 9.03081C10.9101 9.26763 10.8906 9.51695 10.9234 9.76202C10.9308 9.90806 10.9514 10.0531 10.9849 10.1954Z" fill="#42A5F5"/>
<path d="M27.2563 9.22258C26.6123 9.22258 25.9827 9.03012 25.4472 8.66952C24.9117 8.30892 24.4943 7.79639 24.2479 7.19674C24.0014 6.59708 23.9369 5.93724 24.0626 5.30065C24.1882 4.66407 24.4983 4.07932 24.9537 3.62037C25.4091 3.16142 25.9894 2.84886 26.621 2.72224C27.2527 2.59561 27.9074 2.6606 28.5024 2.90899C29.0974 3.15737 29.606 3.57799 29.9638 4.11767C30.3216 4.65734 30.5126 5.29182 30.5126 5.94088C30.5126 6.81124 30.1695 7.64596 29.5588 8.2614C28.9482 8.87683 28.1199 9.22258 27.2563 9.22258ZM27.2563 3.58795C26.7945 3.58795 26.3431 3.72595 25.9592 3.98449C25.5753 4.24303 25.276 4.61051 25.0993 5.04045C24.9226 5.4704 24.8764 5.94349 24.9664 6.39992C25.0565 6.85634 25.2789 7.27559 25.6054 7.60466C25.9319 7.93372 26.3479 8.15782 26.8008 8.2486C27.2537 8.33939 27.7231 8.2928 28.1498 8.11471C28.5764 7.93662 28.941 7.63504 29.1975 7.2481C29.4541 6.86116 29.591 6.40625 29.591 5.94088C29.5911 5.63186 29.5307 5.32585 29.4134 5.04034C29.2961 4.75483 29.1241 4.4954 28.9073 4.27687C28.6905 4.05834 28.4331 3.88499 28.1498 3.76672C27.8665 3.64845 27.5629 3.58795 27.2563 3.58795Z" fill="#42A5F5"/>
<path d="M27.2563 3.58795C26.7945 3.58795 26.3431 3.72595 25.9592 3.98449C25.5753 4.24303 25.276 4.61051 25.0993 5.04045C24.9226 5.4704 24.8764 5.94349 24.9664 6.39992C25.0565 6.85634 25.2789 7.27559 25.6054 7.60466C25.9319 7.93372 26.3479 8.15782 26.8008 8.2486C27.2537 8.33939 27.7231 8.2928 28.1498 8.11471C28.5764 7.93662 28.941 7.63504 29.1975 7.2481C29.4541 6.86116 29.591 6.40625 29.591 5.94088C29.5911 5.63186 29.5307 5.32585 29.4134 5.04034C29.2961 4.75483 29.1241 4.4954 28.9073 4.27687C28.6905 4.05834 28.4331 3.88499 28.1498 3.76672C27.8665 3.64845 27.5629 3.58795 27.2563 3.58795Z" fill="#42A5F5"/>
<path d="M17.2732 6.40556C16.8236 6.40556 16.3841 6.2712 16.0103 6.01947C15.6364 5.76774 15.3451 5.40995 15.173 4.99134C15.001 4.57273 14.956 4.11211 15.0437 3.66771C15.1314 3.22332 15.3479 2.81512 15.6658 2.49473C15.9837 2.17433 16.3888 1.95615 16.8297 1.86775C17.2707 1.77936 17.7277 1.82472 18.1431 1.99812C18.5585 2.17151 18.9135 2.46514 19.1633 2.84188C19.413 3.21862 19.5464 3.66155 19.5464 4.11465C19.5464 4.41549 19.4876 4.7134 19.3733 4.99134C19.2591 5.26929 19.0916 5.52184 18.8806 5.73457C18.6695 5.9473 18.4189 6.11605 18.1431 6.23118C17.8673 6.34631 17.5717 6.40556 17.2732 6.40556ZM17.2732 2.78332C17.0089 2.78635 16.7514 2.86831 16.5333 3.01883C16.3151 3.16935 16.1462 3.38167 16.0479 3.62894C15.9495 3.87621 15.9261 4.14733 15.9806 4.408C16.0352 4.66868 16.1652 4.9072 16.3542 5.09341C16.5433 5.27962 16.7828 5.40515 17.0427 5.45412C17.3025 5.5031 17.5709 5.47332 17.814 5.36855C18.057 5.26378 18.2638 5.08873 18.4081 4.86554C18.5524 4.64235 18.6278 4.38103 18.6248 4.11465C18.6168 3.75875 18.4709 3.42015 18.2183 3.17133C17.9656 2.92251 17.6264 2.78323 17.2732 2.78332V2.78332Z" fill="#42A5F5"/>
</svg>
