<svg width="1260" height="1360" viewBox="0 0 1260 1360" fill="none" xmlns="http://www.w3.org/2000/svg">
 
<path d="M59.6484 1169.34H77.9883L48.8672 1255H29.0625L0 1169.34H18.3398L34.4531 1220.31C35.3516 1223.32 36.2695 1226.84 37.207 1230.86C38.1836 1234.84 38.7891 1237.62 39.0234 1239.18C39.4531 1235.59 40.918 1229.3 43.418 1220.31L59.6484 1169.34ZM141.27 1255L135.059 1234.61H103.828L97.6172 1255H78.0469L108.281 1168.98H130.488L160.84 1255H141.27ZM130.723 1219.37C124.98 1200.9 121.738 1190.45 120.996 1188.03C120.293 1185.6 119.785 1183.69 119.473 1182.28C118.184 1187.28 114.492 1199.65 108.398 1219.37H130.723ZM247.676 1255H224.59L187.324 1190.19H186.797C187.539 1201.64 187.91 1209.8 187.91 1214.69V1255H171.68V1169.34H194.59L231.797 1233.5H232.207C231.621 1222.36 231.328 1214.49 231.328 1209.88V1169.34H247.676V1255ZM339.023 1169.34V1224.77C339.023 1231.09 337.598 1236.64 334.746 1241.41C331.934 1246.17 327.852 1249.82 322.5 1252.36C317.148 1254.9 310.82 1256.17 303.516 1256.17C292.5 1256.17 283.945 1253.36 277.852 1247.73C271.758 1242.07 268.711 1234.34 268.711 1224.53V1169.34H286.816V1221.78C286.816 1228.38 288.145 1233.22 290.801 1236.31C293.457 1239.39 297.852 1240.94 303.984 1240.94C309.922 1240.94 314.219 1239.39 316.875 1236.31C319.57 1233.18 320.918 1228.3 320.918 1221.66V1169.34H339.023ZM412.441 1255L406.23 1234.61H375L368.789 1255H349.219L379.453 1168.98H401.66L432.012 1255H412.441ZM401.895 1219.37C396.152 1200.9 392.91 1190.45 392.168 1188.03C391.465 1185.6 390.957 1183.69 390.645 1182.28C389.355 1187.28 385.664 1199.65 379.57 1219.37H401.895ZM475.898 1255H457.734V1184.45H434.473V1169.34H499.16V1184.45H475.898V1255ZM582.07 1169.34V1224.77C582.07 1231.09 580.645 1236.64 577.793 1241.41C574.98 1246.17 570.898 1249.82 565.547 1252.36C560.195 1254.9 553.867 1256.17 546.562 1256.17C535.547 1256.17 526.992 1253.36 520.898 1247.73C514.805 1242.07 511.758 1234.34 511.758 1224.53V1169.34H529.863V1221.78C529.863 1228.38 531.191 1233.22 533.848 1236.31C536.504 1239.39 540.898 1240.94 547.031 1240.94C552.969 1240.94 557.266 1239.39 559.922 1236.31C562.617 1233.18 563.965 1228.3 563.965 1221.66V1169.34H582.07ZM652.09 1255H634.219V1169.34H683.32V1184.22H652.09V1206.31H681.152V1221.13H652.09V1255ZM700.078 1255V1169.34H718.242V1255H700.078ZM815.801 1255H792.715L755.449 1190.19H754.922C755.664 1201.64 756.035 1209.8 756.035 1214.69V1255H739.805V1169.34H762.715L799.922 1233.5H800.332C799.746 1222.36 799.453 1214.49 799.453 1209.88V1169.34H815.801V1255ZM889.863 1255L883.652 1234.61H852.422L846.211 1255H826.641L856.875 1168.98H879.082L909.434 1255H889.863ZM879.316 1219.37C873.574 1200.9 870.332 1190.45 869.59 1188.03C868.887 1185.6 868.379 1183.69 868.066 1182.28C866.777 1187.28 863.086 1199.65 856.992 1219.37H879.316ZM996.27 1255H973.184L935.918 1190.19H935.391C936.133 1201.64 936.504 1209.8 936.504 1214.69V1255H920.273V1169.34H943.184L980.391 1233.5H980.801C980.215 1222.36 979.922 1214.49 979.922 1209.88V1169.34H996.27V1255ZM1054.28 1183.22C1047.44 1183.22 1042.15 1185.8 1038.4 1190.96C1034.65 1196.07 1032.77 1203.22 1032.77 1212.4C1032.77 1231.5 1039.94 1241.05 1054.28 1241.05C1060.29 1241.05 1067.58 1239.55 1076.13 1236.54V1251.78C1069.1 1254.71 1061.25 1256.17 1052.58 1256.17C1040.12 1256.17 1030.59 1252.4 1023.98 1244.86C1017.38 1237.28 1014.08 1226.43 1014.08 1212.28C1014.08 1203.38 1015.7 1195.59 1018.95 1188.91C1022.19 1182.19 1026.84 1177.05 1032.89 1173.5C1038.98 1169.9 1046.11 1168.1 1054.28 1168.1C1062.6 1168.1 1070.96 1170.12 1079.36 1174.14L1073.5 1188.91C1070.29 1187.38 1067.07 1186.05 1063.83 1184.92C1060.59 1183.79 1057.4 1183.22 1054.28 1183.22ZM1094.41 1255V1169.34H1112.58V1255H1094.41ZM1186.58 1255L1180.37 1234.61H1149.14L1142.93 1255H1123.36L1153.59 1168.98H1175.8L1206.15 1255H1186.58ZM1176.04 1219.37C1170.29 1200.9 1167.05 1190.45 1166.31 1188.03C1165.61 1185.6 1165.1 1183.69 1164.79 1182.28C1163.5 1187.28 1159.8 1199.65 1153.71 1219.37H1176.04ZM1216.99 1255V1169.34H1235.16V1240H1269.9V1255H1216.99Z" fill="#BFBFBF"/>
<path d="M169.023 1321.26C169.023 1320.11 168.848 1319.09 168.496 1318.18C168.174 1317.24 167.559 1316.39 166.65 1315.63C165.742 1314.84 164.468 1314.06 162.827 1313.3C161.187 1312.54 159.062 1311.75 156.455 1310.93C153.555 1309.99 150.801 1308.94 148.193 1307.77C145.615 1306.59 143.33 1305.23 141.338 1303.68C139.375 1302.1 137.822 1300.27 136.68 1298.19C135.566 1296.1 135.01 1293.69 135.01 1290.93C135.01 1288.27 135.596 1285.85 136.768 1283.68C137.939 1281.49 139.58 1279.61 141.689 1278.06C143.799 1276.48 146.289 1275.26 149.16 1274.41C152.061 1273.56 155.239 1273.14 158.696 1273.14C163.413 1273.14 167.529 1273.99 171.045 1275.69C174.561 1277.38 177.285 1279.71 179.219 1282.67C181.182 1285.63 182.163 1289.02 182.163 1292.82H169.067C169.067 1290.95 168.672 1289.31 167.881 1287.9C167.119 1286.47 165.947 1285.34 164.365 1284.52C162.812 1283.7 160.85 1283.29 158.477 1283.29C156.191 1283.29 154.287 1283.64 152.764 1284.34C151.24 1285.02 150.098 1285.94 149.336 1287.11C148.574 1288.25 148.193 1289.54 148.193 1290.98C148.193 1292.06 148.457 1293.04 148.984 1293.92C149.541 1294.8 150.361 1295.62 151.445 1296.38C152.529 1297.15 153.862 1297.86 155.444 1298.54C157.026 1299.21 158.857 1299.87 160.938 1300.51C164.424 1301.57 167.485 1302.76 170.122 1304.07C172.788 1305.39 175.015 1306.87 176.802 1308.51C178.589 1310.15 179.937 1312.01 180.845 1314.09C181.753 1316.17 182.207 1318.53 182.207 1321.17C182.207 1323.95 181.665 1326.44 180.581 1328.64C179.497 1330.84 177.93 1332.7 175.879 1334.22C173.828 1335.74 171.382 1336.9 168.54 1337.69C165.698 1338.48 162.52 1338.88 159.004 1338.88C155.84 1338.88 152.72 1338.47 149.644 1337.65C146.567 1336.8 143.77 1335.52 141.25 1333.82C138.76 1332.13 136.768 1329.96 135.273 1327.32C133.779 1324.68 133.032 1321.56 133.032 1317.96H146.26C146.26 1319.95 146.567 1321.64 147.183 1323.01C147.798 1324.39 148.662 1325.5 149.775 1326.35C150.918 1327.2 152.266 1327.82 153.818 1328.2C155.4 1328.58 157.129 1328.77 159.004 1328.77C161.289 1328.77 163.164 1328.45 164.629 1327.8C166.123 1327.16 167.222 1326.27 167.925 1325.12C168.657 1323.98 169.023 1322.69 169.023 1321.26ZM234.106 1327.72V1338H200.049V1327.72H234.106ZM204.355 1274.02V1338H191.172V1274.02H204.355ZM229.668 1300.07V1310.09H200.049V1300.07H229.668ZM234.062 1274.02V1284.34H200.049V1274.02H234.062ZM241.797 1274.02H265.659C270.552 1274.02 274.756 1274.75 278.271 1276.21C281.816 1277.68 284.541 1279.85 286.445 1282.72C288.35 1285.59 289.302 1289.12 289.302 1293.31C289.302 1296.73 288.716 1299.68 287.544 1302.14C286.401 1304.57 284.775 1306.61 282.666 1308.25C280.586 1309.86 278.14 1311.15 275.327 1312.12L271.152 1314.31H250.41L250.322 1304.03H265.747C268.062 1304.03 269.98 1303.62 271.504 1302.8C273.027 1301.98 274.17 1300.84 274.932 1299.37C275.723 1297.91 276.118 1296.21 276.118 1294.27C276.118 1292.22 275.737 1290.45 274.976 1288.96C274.214 1287.46 273.057 1286.32 271.504 1285.53C269.951 1284.74 268.003 1284.34 265.659 1284.34H254.98V1338H241.797V1274.02ZM277.568 1338L262.979 1309.48L276.909 1309.39L291.675 1337.38V1338H277.568ZM321.646 1324.64L336.719 1274.02H351.396L329.116 1338H319.448L321.646 1324.64ZM307.759 1274.02L322.788 1324.64L325.073 1338H315.317L293.169 1274.02H307.759ZM371.392 1274.02V1338H358.252V1274.02H371.392ZM420.83 1316.77H433.97C433.706 1321.08 432.52 1324.9 430.41 1328.24C428.33 1331.58 425.415 1334.19 421.665 1336.07C417.944 1337.94 413.462 1338.88 408.218 1338.88C404.116 1338.88 400.439 1338.18 397.188 1336.77C393.936 1335.33 391.152 1333.28 388.838 1330.62C386.553 1327.95 384.81 1324.73 383.608 1320.95C382.407 1317.17 381.807 1312.94 381.807 1308.25V1303.81C381.807 1299.12 382.422 1294.89 383.652 1291.11C384.912 1287.3 386.699 1284.06 389.014 1281.4C391.357 1278.73 394.155 1276.68 397.407 1275.25C400.659 1273.81 404.292 1273.09 408.306 1273.09C413.638 1273.09 418.135 1274.06 421.797 1275.99C425.488 1277.93 428.345 1280.59 430.366 1283.99C432.417 1287.39 433.647 1291.26 434.058 1295.59H420.874C420.728 1293.01 420.215 1290.83 419.336 1289.04C418.457 1287.23 417.124 1285.87 415.337 1284.96C413.579 1284.02 411.235 1283.55 408.306 1283.55C406.108 1283.55 404.189 1283.96 402.549 1284.78C400.908 1285.6 399.531 1286.85 398.418 1288.52C397.305 1290.19 396.47 1292.3 395.913 1294.85C395.386 1297.36 395.122 1300.32 395.122 1303.72V1308.25C395.122 1311.56 395.371 1314.47 395.869 1316.99C396.367 1319.48 397.129 1321.59 398.154 1323.32C399.209 1325.02 400.557 1326.31 402.197 1327.19C403.867 1328.04 405.874 1328.46 408.218 1328.46C410.972 1328.46 413.242 1328.02 415.029 1327.15C416.816 1326.27 418.179 1324.96 419.116 1323.23C420.083 1321.51 420.654 1319.35 420.83 1316.77ZM485.562 1327.72V1338H451.504V1327.72H485.562ZM455.811 1274.02V1338H442.627V1274.02H455.811ZM481.123 1300.07V1310.09H451.504V1300.07H481.123ZM485.518 1274.02V1284.34H451.504V1274.02H485.518ZM526.562 1321.26C526.562 1320.11 526.387 1319.09 526.035 1318.18C525.713 1317.24 525.098 1316.39 524.189 1315.63C523.281 1314.84 522.007 1314.06 520.366 1313.3C518.726 1312.54 516.602 1311.75 513.994 1310.93C511.094 1309.99 508.34 1308.94 505.732 1307.77C503.154 1306.59 500.869 1305.23 498.877 1303.68C496.914 1302.1 495.361 1300.27 494.219 1298.19C493.105 1296.1 492.549 1293.69 492.549 1290.93C492.549 1288.27 493.135 1285.85 494.307 1283.68C495.479 1281.49 497.119 1279.61 499.229 1278.06C501.338 1276.48 503.828 1275.26 506.699 1274.41C509.6 1273.56 512.778 1273.14 516.235 1273.14C520.952 1273.14 525.068 1273.99 528.584 1275.69C532.1 1277.38 534.824 1279.71 536.758 1282.67C538.721 1285.63 539.702 1289.02 539.702 1292.82H526.606C526.606 1290.95 526.211 1289.31 525.42 1287.9C524.658 1286.47 523.486 1285.34 521.904 1284.52C520.352 1283.7 518.389 1283.29 516.016 1283.29C513.73 1283.29 511.826 1283.64 510.303 1284.34C508.779 1285.02 507.637 1285.94 506.875 1287.11C506.113 1288.25 505.732 1289.54 505.732 1290.98C505.732 1292.06 505.996 1293.04 506.523 1293.92C507.08 1294.8 507.9 1295.62 508.984 1296.38C510.068 1297.15 511.401 1297.86 512.983 1298.54C514.565 1299.21 516.396 1299.87 518.477 1300.51C521.963 1301.57 525.024 1302.76 527.661 1304.07C530.327 1305.39 532.554 1306.87 534.341 1308.51C536.128 1310.15 537.476 1312.01 538.384 1314.09C539.292 1316.17 539.746 1318.53 539.746 1321.17C539.746 1323.95 539.204 1326.44 538.12 1328.64C537.036 1330.84 535.469 1332.7 533.418 1334.22C531.367 1335.74 528.921 1336.9 526.079 1337.69C523.237 1338.48 520.059 1338.88 516.543 1338.88C513.379 1338.88 510.259 1338.47 507.183 1337.65C504.106 1336.8 501.309 1335.52 498.789 1333.82C496.299 1332.13 494.307 1329.96 492.812 1327.32C491.318 1324.68 490.571 1321.56 490.571 1317.96H503.799C503.799 1319.95 504.106 1321.64 504.722 1323.01C505.337 1324.39 506.201 1325.5 507.314 1326.35C508.457 1327.2 509.805 1327.82 511.357 1328.2C512.939 1328.58 514.668 1328.77 516.543 1328.77C518.828 1328.77 520.703 1328.45 522.168 1327.8C523.662 1327.16 524.761 1326.27 525.464 1325.12C526.196 1323.98 526.562 1322.69 526.562 1321.26ZM608.213 1316.77H621.353C621.089 1321.08 619.902 1324.9 617.793 1328.24C615.713 1331.58 612.798 1334.19 609.048 1336.07C605.327 1337.94 600.845 1338.88 595.601 1338.88C591.499 1338.88 587.822 1338.18 584.57 1336.77C581.318 1335.33 578.535 1333.28 576.221 1330.62C573.936 1327.95 572.192 1324.73 570.991 1320.95C569.79 1317.17 569.189 1312.94 569.189 1308.25V1303.81C569.189 1299.12 569.805 1294.89 571.035 1291.11C572.295 1287.3 574.082 1284.06 576.396 1281.4C578.74 1278.73 581.538 1276.68 584.79 1275.25C588.042 1273.81 591.675 1273.09 595.688 1273.09C601.021 1273.09 605.518 1274.06 609.18 1275.99C612.871 1277.93 615.728 1280.59 617.749 1283.99C619.8 1287.39 621.03 1291.26 621.44 1295.59H608.257C608.11 1293.01 607.598 1290.83 606.719 1289.04C605.84 1287.23 604.507 1285.87 602.72 1284.96C600.962 1284.02 598.618 1283.55 595.688 1283.55C593.491 1283.55 591.572 1283.96 589.932 1284.78C588.291 1285.6 586.914 1286.85 585.801 1288.52C584.688 1290.19 583.853 1292.3 583.296 1294.85C582.769 1297.36 582.505 1300.32 582.505 1303.72V1308.25C582.505 1311.56 582.754 1314.47 583.252 1316.99C583.75 1319.48 584.512 1321.59 585.537 1323.32C586.592 1325.02 587.939 1326.31 589.58 1327.19C591.25 1328.04 593.257 1328.46 595.601 1328.46C598.354 1328.46 600.625 1328.02 602.412 1327.15C604.199 1326.27 605.562 1324.96 606.499 1323.23C607.466 1321.51 608.037 1319.35 608.213 1316.77ZM682.568 1304.51V1307.55C682.568 1312.41 681.909 1316.77 680.591 1320.64C679.272 1324.51 677.412 1327.8 675.01 1330.53C672.607 1333.22 669.736 1335.29 666.396 1336.73C663.086 1338.16 659.409 1338.88 655.366 1338.88C651.353 1338.88 647.676 1338.16 644.336 1336.73C641.025 1335.29 638.154 1333.22 635.723 1330.53C633.291 1327.8 631.401 1324.51 630.054 1320.64C628.735 1316.77 628.076 1312.41 628.076 1307.55V1304.51C628.076 1299.62 628.735 1295.26 630.054 1291.42C631.372 1287.55 633.232 1284.25 635.635 1281.53C638.066 1278.81 640.938 1276.73 644.248 1275.29C647.588 1273.85 651.265 1273.14 655.278 1273.14C659.321 1273.14 662.998 1273.85 666.309 1275.29C669.648 1276.73 672.52 1278.81 674.922 1281.53C677.354 1284.25 679.229 1287.55 680.547 1291.42C681.895 1295.26 682.568 1299.62 682.568 1304.51ZM669.253 1307.55V1304.43C669.253 1301.03 668.945 1298.04 668.33 1295.46C667.715 1292.88 666.807 1290.71 665.605 1288.96C664.404 1287.2 662.939 1285.88 661.211 1285C659.482 1284.09 657.505 1283.64 655.278 1283.64C653.052 1283.64 651.074 1284.09 649.346 1285C647.646 1285.88 646.196 1287.2 644.995 1288.96C643.823 1290.71 642.93 1292.88 642.314 1295.46C641.699 1298.04 641.392 1301.03 641.392 1304.43V1307.55C641.392 1310.91 641.699 1313.9 642.314 1316.51C642.93 1319.09 643.838 1321.27 645.039 1323.06C646.24 1324.82 647.705 1326.15 649.434 1327.06C651.162 1327.97 653.14 1328.42 655.366 1328.42C657.593 1328.42 659.57 1327.97 661.299 1327.06C663.027 1326.15 664.478 1324.82 665.649 1323.06C666.821 1321.27 667.715 1319.09 668.33 1316.51C668.945 1313.9 669.253 1310.91 669.253 1307.55ZM698.081 1274.02H709.243L725.679 1320.99L742.114 1274.02H753.276L730.161 1338H721.196L698.081 1274.02ZM692.061 1274.02H703.179L705.2 1319.81V1338H692.061V1274.02ZM748.179 1274.02H759.341V1338H746.157V1319.81L748.179 1274.02ZM776.919 1274.02H788.081L804.517 1320.99L820.952 1274.02H832.114L808.999 1338H800.034L776.919 1274.02ZM770.898 1274.02H782.017L784.038 1319.81V1338H770.898V1274.02ZM827.017 1274.02H838.179V1338H824.995V1319.81L827.017 1274.02ZM863.755 1274.02V1338H850.615V1274.02H863.755ZM909.414 1321.26C909.414 1320.11 909.238 1319.09 908.887 1318.18C908.564 1317.24 907.949 1316.39 907.041 1315.63C906.133 1314.84 904.858 1314.06 903.218 1313.3C901.577 1312.54 899.453 1311.75 896.846 1310.93C893.945 1309.99 891.191 1308.94 888.584 1307.77C886.006 1306.59 883.721 1305.23 881.729 1303.68C879.766 1302.1 878.213 1300.27 877.07 1298.19C875.957 1296.1 875.4 1293.69 875.4 1290.93C875.4 1288.27 875.986 1285.85 877.158 1283.68C878.33 1281.49 879.971 1279.61 882.08 1278.06C884.189 1276.48 886.68 1275.26 889.551 1274.41C892.451 1273.56 895.63 1273.14 899.087 1273.14C903.804 1273.14 907.92 1273.99 911.436 1275.69C914.951 1277.38 917.676 1279.71 919.609 1282.67C921.572 1285.63 922.554 1289.02 922.554 1292.82H909.458C909.458 1290.95 909.062 1289.31 908.271 1287.9C907.51 1286.47 906.338 1285.34 904.756 1284.52C903.203 1283.7 901.24 1283.29 898.867 1283.29C896.582 1283.29 894.678 1283.64 893.154 1284.34C891.631 1285.02 890.488 1285.94 889.727 1287.11C888.965 1288.25 888.584 1289.54 888.584 1290.98C888.584 1292.06 888.848 1293.04 889.375 1293.92C889.932 1294.8 890.752 1295.62 891.836 1296.38C892.92 1297.15 894.253 1297.86 895.835 1298.54C897.417 1299.21 899.248 1299.87 901.328 1300.51C904.814 1301.57 907.876 1302.76 910.513 1304.07C913.179 1305.39 915.405 1306.87 917.192 1308.51C918.979 1310.15 920.327 1312.01 921.235 1314.09C922.144 1316.17 922.598 1318.53 922.598 1321.17C922.598 1323.95 922.056 1326.44 920.972 1328.64C919.888 1330.84 918.32 1332.7 916.27 1334.22C914.219 1335.74 911.772 1336.9 908.931 1337.69C906.089 1338.48 902.91 1338.88 899.395 1338.88C896.23 1338.88 893.11 1338.47 890.034 1337.65C886.958 1336.8 884.16 1335.52 881.641 1333.82C879.15 1332.13 877.158 1329.96 875.664 1327.32C874.17 1324.68 873.423 1321.56 873.423 1317.96H886.65C886.65 1319.95 886.958 1321.64 887.573 1323.01C888.188 1324.39 889.053 1325.5 890.166 1326.35C891.309 1327.2 892.656 1327.82 894.209 1328.2C895.791 1328.58 897.52 1328.77 899.395 1328.77C901.68 1328.77 903.555 1328.45 905.02 1327.8C906.514 1327.16 907.612 1326.27 908.315 1325.12C909.048 1323.98 909.414 1322.69 909.414 1321.26ZM964.873 1321.26C964.873 1320.11 964.697 1319.09 964.346 1318.18C964.023 1317.24 963.408 1316.39 962.5 1315.63C961.592 1314.84 960.317 1314.06 958.677 1313.3C957.036 1312.54 954.912 1311.75 952.305 1310.93C949.404 1309.99 946.65 1308.94 944.043 1307.77C941.465 1306.59 939.18 1305.23 937.188 1303.68C935.225 1302.1 933.672 1300.27 932.529 1298.19C931.416 1296.1 930.859 1293.69 930.859 1290.93C930.859 1288.27 931.445 1285.85 932.617 1283.68C933.789 1281.49 935.43 1279.61 937.539 1278.06C939.648 1276.48 942.139 1275.26 945.01 1274.41C947.91 1273.56 951.089 1273.14 954.546 1273.14C959.263 1273.14 963.379 1273.99 966.895 1275.69C970.41 1277.38 973.135 1279.71 975.068 1282.67C977.031 1285.63 978.013 1289.02 978.013 1292.82H964.917C964.917 1290.95 964.521 1289.31 963.73 1287.9C962.969 1286.47 961.797 1285.34 960.215 1284.52C958.662 1283.7 956.699 1283.29 954.326 1283.29C952.041 1283.29 950.137 1283.64 948.613 1284.34C947.09 1285.02 945.947 1285.94 945.186 1287.11C944.424 1288.25 944.043 1289.54 944.043 1290.98C944.043 1292.06 944.307 1293.04 944.834 1293.92C945.391 1294.8 946.211 1295.62 947.295 1296.38C948.379 1297.15 949.712 1297.86 951.294 1298.54C952.876 1299.21 954.707 1299.87 956.787 1300.51C960.273 1301.57 963.335 1302.76 965.972 1304.07C968.638 1305.39 970.864 1306.87 972.651 1308.51C974.438 1310.15 975.786 1312.01 976.694 1314.09C977.603 1316.17 978.057 1318.53 978.057 1321.17C978.057 1323.95 977.515 1326.44 976.431 1328.64C975.347 1330.84 973.779 1332.7 971.729 1334.22C969.678 1335.74 967.231 1336.9 964.39 1337.69C961.548 1338.48 958.369 1338.88 954.854 1338.88C951.689 1338.88 948.569 1338.47 945.493 1337.65C942.417 1336.8 939.619 1335.52 937.1 1333.82C934.609 1332.13 932.617 1329.96 931.123 1327.32C929.629 1324.68 928.882 1321.56 928.882 1317.96H942.109C942.109 1319.95 942.417 1321.64 943.032 1323.01C943.647 1324.39 944.512 1325.5 945.625 1326.35C946.768 1327.2 948.115 1327.82 949.668 1328.2C951.25 1328.58 952.979 1328.77 954.854 1328.77C957.139 1328.77 959.014 1328.45 960.479 1327.8C961.973 1327.16 963.071 1326.27 963.774 1325.12C964.507 1323.98 964.873 1322.69 964.873 1321.26ZM1001.04 1274.02V1338H987.9V1274.02H1001.04ZM1065.95 1304.51V1307.55C1065.95 1312.41 1065.29 1316.77 1063.97 1320.64C1062.65 1324.51 1060.79 1327.8 1058.39 1330.53C1055.99 1333.22 1053.12 1335.29 1049.78 1336.73C1046.46 1338.16 1042.79 1338.88 1038.75 1338.88C1034.73 1338.88 1031.05 1338.16 1027.71 1336.73C1024.4 1335.29 1021.53 1333.22 1019.1 1330.53C1016.67 1327.8 1014.78 1324.51 1013.43 1320.64C1012.11 1316.77 1011.46 1312.41 1011.46 1307.55V1304.51C1011.46 1299.62 1012.11 1295.26 1013.43 1291.42C1014.75 1287.55 1016.61 1284.25 1019.01 1281.53C1021.45 1278.81 1024.32 1276.73 1027.63 1275.29C1030.97 1273.85 1034.64 1273.14 1038.66 1273.14C1042.7 1273.14 1046.38 1273.85 1049.69 1275.29C1053.03 1276.73 1055.9 1278.81 1058.3 1281.53C1060.73 1284.25 1062.61 1287.55 1063.93 1291.42C1065.27 1295.26 1065.95 1299.62 1065.95 1304.51ZM1052.63 1307.55V1304.43C1052.63 1301.03 1052.32 1298.04 1051.71 1295.46C1051.09 1292.88 1050.19 1290.71 1048.98 1288.96C1047.78 1287.2 1046.32 1285.88 1044.59 1285C1042.86 1284.09 1040.88 1283.64 1038.66 1283.64C1036.43 1283.64 1034.45 1284.09 1032.72 1285C1031.03 1285.88 1029.58 1287.2 1028.37 1288.96C1027.2 1290.71 1026.31 1292.88 1025.69 1295.46C1025.08 1298.04 1024.77 1301.03 1024.77 1304.43V1307.55C1024.77 1310.91 1025.08 1313.9 1025.69 1316.51C1026.31 1319.09 1027.22 1321.27 1028.42 1323.06C1029.62 1324.82 1031.08 1326.15 1032.81 1327.06C1034.54 1327.97 1036.52 1328.42 1038.75 1328.42C1040.97 1328.42 1042.95 1327.97 1044.68 1327.06C1046.41 1326.15 1047.86 1324.82 1049.03 1323.06C1050.2 1321.27 1051.09 1319.09 1051.71 1316.51C1052.32 1313.9 1052.63 1310.91 1052.63 1307.55ZM1127.51 1274.02V1338H1114.33L1088.62 1295.11V1338H1075.44V1274.02H1088.62L1114.38 1316.95V1274.02H1127.51Z" fill="#BFBFBF"/>
<rect x="4" y="1279" width="106" height="23" fill="#BFBFBF"/>
<rect x="4" y="1318" width="106" height="12" fill="#BFBFBF"/>
<rect x="1154" y="1279" width="106" height="23" fill="#BFBFBF"/>
<rect x="1154" y="1318" width="106" height="12" fill="#BFBFBF"/>
<path fill-rule="evenodd" clip-rule="evenodd" d="M666.349 935.152C924.584 935.152 1133.92 725.811 1133.92 467.576C1133.92 209.341 924.584 0 666.349 0C490.239 0 336.87 97.3621 257.131 241.196L574.585 926.151C604.257 932.055 634.942 935.152 666.349 935.152Z" fill="#D3D3D3"/>
<path fill-rule="evenodd" clip-rule="evenodd" d="M1133.91 477.818C1129.95 688.039 987.844 863.236 795.812 918.452L1069.03 231.113C1111.76 303.271 1135.61 387.814 1133.91 477.818Z" fill="#BFBFBF"/>
<path fill-rule="evenodd" clip-rule="evenodd" d="M256.216 245.068C226.36 296.483 206.305 353.754 198.399 414.451L-73 811.035L198.918 535.443C204.541 576.059 215.556 614.941 231.227 651.432L230.871 651.609L78.9355 887.002L258.986 705.722C275.91 734.001 295.819 760.376 318.285 784.467L226.591 937.291L345.785 811.654C373.594 837.008 404.508 859.201 437.894 877.666L389.226 998.279L480.332 898.534C503.317 908.493 527.238 916.774 551.922 923.222L256.216 245.068Z" fill="#BFBFBF"/>
<path fill-rule="evenodd" clip-rule="evenodd" d="M264.272 232.153L767.388 231.112L732.598 362.578H579.306V435.374H706.506L670.629 563.581H622.793L681.501 728.729L851.101 231.112H1069.88L1073.55 237.53L798.605 916.41C756.991 928.608 712.967 935.151 667.42 935.151C626.264 935.151 586.354 929.809 548.34 919.78L256.3 246.404C258.876 241.603 261.534 236.852 264.272 232.153Z" fill="#E9E9E9"/>
 
 
</svg>
