<svg aria-hidden="true" style="position: absolute; width: 0; height: 0; overflow: hidden;" version="1.1" xmlns="http://www.w3.org/2000/svg" xmlns:xlink="http://www.w3.org/1999/xlink">
<defs>
<symbol id="icon-advance" viewBox="0 0 32 32">
<path fill="#42a5f5" style="fill: var(--color1, #42a5f5)" d="M16 0c-6.399 0-11.605 5.206-11.605 11.605 0 3.064 1.183 5.955 3.332 8.139l0.171 0.173c0.896 0.943 1.56 2.065 1.95 3.292-0.46 0.3-0.765 0.819-0.765 1.409v1.665c0 0.875 0.671 1.595 1.526 1.674v1.117c0 1.614 1.313 2.927 2.927 2.927h4.932c1.614 0 2.927-1.313 2.927-2.927v-1.117c0.854-0.079 1.526-0.799 1.526-1.674v-1.665c0-0.589-0.305-1.108-0.765-1.409 0.389-1.223 1.049-2.341 1.941-3.282l0.18-0.183c2.149-2.184 3.332-5.074 3.332-8.139 0-6.399-5.206-11.605-11.605-11.605zM18.466 30.099h-4.932c-0.566 0-1.026-0.46-1.026-1.026v-1.109h6.983v1.109h0c0 0.565-0.46 1.026-1.026 1.026zM21.017 26.063h-10.034v-1.226h10.034v1.226zM22.972 18.356l-0.047 0.047c-1.273 1.268-2.188 2.823-2.675 4.533h-8.499c-0.487-1.71-1.402-3.265-2.675-4.533l-0.046-0.045c-1.764-1.82-2.735-4.215-2.735-6.753 0-5.351 4.353-9.704 9.704-9.704s9.704 4.353 9.704 9.704c0 2.537-0.97 4.931-2.733 6.751z"></path>
<path fill="#42a5f5" style="fill: var(--color1, #42a5f5)" d="M16 8.648c-1.631 0-2.958 1.327-2.958 2.958s1.327 2.958 2.958 2.958c1.631 0 2.958-1.327 2.958-2.958s-1.327-2.958-2.958-2.958zM16 12.662c-0.583 0-1.057-0.474-1.057-1.057s0.474-1.057 1.057-1.057 1.057 0.474 1.057 1.057c0 0.583-0.474 1.057-1.057 1.057z"></path>
<path fill="#42a5f5" style="fill: var(--color1, #42a5f5)" d="M23.751 12.556v-1.901h-1.699c-0.153-0.981-0.541-1.886-1.103-2.655l1.203-1.203-1.344-1.344-1.203 1.203c-0.769-0.562-1.674-0.949-2.655-1.103v-1.699h-1.901v1.699c-0.981 0.154-1.886 0.541-2.655 1.103l-1.203-1.203-1.344 1.344 1.203 1.203c-0.562 0.769-0.949 1.674-1.103 2.655h-1.699v1.901h1.699c0.153 0.981 0.541 1.886 1.103 2.655l-1.203 1.203 1.344 1.344 1.203-1.203c0.769 0.562 1.674 0.949 2.655 1.103v1.699h1.901v-1.699c0.981-0.153 1.886-0.541 2.655-1.103l1.203 1.203 1.344-1.344-1.203-1.203c0.562-0.769 0.949-1.674 1.103-2.655h1.699zM16 15.831c-2.33 0-4.225-1.896-4.225-4.225s1.896-4.225 4.225-4.225c2.33 0 4.225 1.895 4.225 4.225s-1.895 4.225-4.225 4.225z"></path>
</symbol>
<symbol id="icon-arrow-down" viewBox="0 0 10 7"   xmlns="http://www.w3.org/2000/svg">
<path fill-rule="evenodd" clip-rule="evenodd" d="M9.37095 1.33512L4.81605 6.37421L0.615479 1.3194L1.38458 0.680271L4.84781 4.84779L8.6291 0.664551L9.37095 1.33512Z" />
</symbol>

<symbol  id="icon-comissions" viewBox="0 0 39 40" fill="none" xmlns="http://www.w3.org/2000/svg">
<path d="M38.1945 20.0001C38.1945 19.3768 38.3701 18.6655 38.5558 17.9123C38.8677 16.648 39.2212 15.2151 38.7679 13.8188C38.2965 12.3669 37.143 11.4023 36.1252 10.5513C35.552 10.0719 35.0106 9.61924 34.6714 9.15318C34.3244 8.67626 34.0563 8.01404 33.7725 7.31292C33.2779 6.0909 32.7173 4.70584 31.4996 3.81959C30.2928 2.94131 28.8078 2.83382 27.4976 2.73918C26.7369 2.68416 26.0185 2.63214 25.4456 2.4462C24.9141 2.27366 24.3263 1.9045 23.704 1.51363C22.5743 0.804091 21.2939 0 19.7419 0C18.1899 0 16.9095 0.804091 15.7799 1.51354C15.1576 1.90432 14.5698 2.27348 14.0383 2.44611C13.4653 2.63214 12.7469 2.68407 11.9862 2.73909C10.6761 2.83382 9.19107 2.94122 7.98425 3.8195C6.76658 4.70575 6.20597 6.0909 5.71131 7.31283C5.42748 8.01395 5.15948 8.67617 4.81249 9.15309C4.47319 9.61915 3.93185 10.0719 3.35867 10.5512C2.34086 11.4022 1.18734 12.3668 0.716031 13.8185C0.262547 15.2149 0.616141 16.6479 0.928024 17.9121C1.11387 18.6654 1.28931 19.3768 1.28931 20C1.28931 20.6233 1.11387 21.3347 0.928024 22.0878C0.616141 23.3521 0.262638 24.7851 0.716031 26.1815C1.18734 27.6332 2.34095 28.5978 3.35876 29.4488C3.93194 29.9281 4.47337 30.3809 4.81258 30.8469C5.15957 31.3238 5.42757 31.986 5.7114 32.6872C6.20606 33.9093 6.76667 35.2943 7.98434 36.1805C9.19116 37.0588 10.6761 37.1663 11.9863 37.2609C12.747 37.3159 13.4654 37.368 14.0383 37.5539C14.5699 37.7265 15.1576 38.0956 15.78 38.4865C16.9096 39.1959 18.19 40 19.742 40C21.294 40 22.5743 39.1959 23.7039 38.4865C24.3262 38.0958 24.914 37.7266 25.4456 37.554C26.0186 37.3679 26.737 37.3159 27.4978 37.2609C28.8079 37.1662 30.2929 37.0588 31.4997 36.1805C32.7174 35.2943 33.278 33.9091 33.7726 32.6872C34.0564 31.986 34.3245 31.3238 34.6715 30.8469C35.0108 30.3809 35.5522 29.9281 36.1254 29.4488C37.1431 28.5978 38.2967 27.6332 38.768 26.1815C39.2215 24.7851 38.8679 23.3521 38.556 22.0878C38.3701 21.3348 38.1945 20.6234 38.1945 20.0001Z" fill="#42A5F5"/>
<path d="M24.663 11.3061C24.2281 11.0599 23.676 11.2129 23.4299 11.6477L14.4791 27.4607C14.233 27.8956 14.386 28.4477 14.8208 28.6938C14.9617 28.7735 15.1147 28.8114 15.2657 28.8114C15.5811 28.8114 15.8875 28.6462 16.0539 28.3521L25.0047 12.5391C25.2509 12.1043 25.0979 11.5522 24.663 11.3061Z" fill="white"/>
<path d="M17.4421 18.6741C17.9854 17.732 18.1292 16.6346 17.8472 15.5843C17.5652 14.534 16.891 13.6563 15.9488 13.1131C15.0068 12.5697 13.9096 12.426 12.8591 12.7079C11.8087 12.9899 10.931 13.6641 10.3878 14.6062C9.84456 15.5484 9.7007 16.6457 9.98272 17.6961C10.2647 18.7464 10.939 19.6241 11.8812 20.1674C12.5081 20.5289 13.2036 20.7135 13.9084 20.7134C14.2628 20.7134 14.6195 20.6667 14.9709 20.5724C16.0212 20.2904 16.8989 19.6163 17.4421 18.6741ZM12.785 18.5997C12.2615 18.2979 11.887 17.8103 11.7302 17.2268C11.5735 16.6433 11.6534 16.0336 11.9553 15.5102C12.257 14.9868 12.7447 14.6122 13.3282 14.4556C13.5235 14.4031 13.7216 14.3772 13.9185 14.3772C14.31 14.3772 14.6964 14.4798 15.0447 14.6806C15.5681 14.9825 15.9427 15.4701 16.0994 16.0536C16.2561 16.6372 16.1762 17.2468 15.8744 17.7701C15.5726 18.2936 15.085 18.6681 14.5014 18.8248C13.9179 18.9816 13.3084 18.9015 12.785 18.5997Z" fill="white"/>
<path d="M27.6072 19.5461C26.665 19.0029 25.5678 18.859 24.5174 19.141C23.467 19.4231 22.5894 20.0972 22.0461 21.0394C21.5029 21.9816 21.359 23.0789 21.641 24.1293C21.9231 25.1796 22.5973 26.0572 23.5394 26.6005C24.1663 26.962 24.8618 27.1467 25.5666 27.1466C25.921 27.1466 26.2777 27.0999 26.6292 27.0055C27.6796 26.7235 28.5572 26.0493 29.1004 25.1072C29.6437 24.165 29.7876 23.0677 29.5055 22.0174C29.2235 20.9671 28.5493 20.0895 27.6072 19.5461ZM27.5329 24.2033C27.2311 24.7267 26.7435 25.1013 26.16 25.2579C25.5765 25.4147 24.9668 25.3347 24.4435 25.033C23.92 24.7311 23.5455 24.2435 23.3887 23.66C23.232 23.0765 23.3119 22.4668 23.6138 21.9435C23.9155 21.42 24.4031 21.0455 24.9867 20.8888C25.182 20.8364 25.3801 20.8104 25.577 20.8104C25.9685 20.8104 26.3549 20.9131 26.7032 21.1139C27.2266 21.4157 27.6012 21.9033 27.7579 22.4869C27.9146 23.0703 27.8347 23.68 27.5329 24.2033Z" fill="white"/>
</symbol>

<symbol id="icon-crown" viewBox="0 0 32 32">
<path fill="#42a5f5" style="fill: var(--color1, #42a5f5)" d="M30.741 12.003c0.005 0.088-0.002 0.178-0.024 0.267l-1.974 7.895c-0.1 0.398-0.456 0.677-0.866 0.68l-11.843 0.060c-0.002 0-0.003 0-0.005 0h-11.843c-0.412 0-0.771-0.281-0.871-0.68l-1.974-7.925c-0.023-0.091-0.029-0.184-0.024-0.274-0.764-0.241-1.319-0.955-1.319-1.797 0-1.039 0.845-1.884 1.884-1.884s1.884 0.845 1.884 1.884c0 0.585-0.268 1.109-0.688 1.454l2.471 2.49c0.625 0.629 1.491 0.99 2.378 0.99 1.048 0 2.048-0.498 2.678-1.332l4.061-5.381c-0.341-0.341-0.552-0.812-0.552-1.331 0-1.039 0.845-1.884 1.884-1.884s1.884 0.845 1.884 1.884c0 0.504-0.2 0.961-0.523 1.3 0.001 0.001 0.002 0.003 0.003 0.004l4.032 5.396c0.629 0.842 1.632 1.345 2.684 1.345 0.895 0 1.736-0.348 2.369-0.981l2.487-2.487c-0.429-0.346-0.704-0.874-0.704-1.466 0-1.039 0.845-1.884 1.884-1.884s1.884 0.845 1.884 1.884c0 0.82-0.527 1.517-1.259 1.775zM28.551 23.716c0-0.495-0.402-0.897-0.897-0.897h-23.207c-0.495 0-0.897 0.402-0.897 0.897v2.153c0 0.495 0.402 0.897 0.897 0.897h23.207c0.495 0 0.897-0.402 0.897-0.897v-2.153z"></path>
</symbol>
<symbol id="icon-cup" viewBox="0 0 28 32">
<path fill="#42a5f5" style="fill: var(--color1, #42a5f5)" d="M22.153 0h-16.215v2.897h-5.548v4.296c0 3.086 2.489 5.597 5.548 5.597h0.097c0.512 3.354 3.046 6.029 6.299 6.735v4.636h-1.99c-0.616 0-1.108 0.503-1.108 1.118v1.471h-1.698v5.25h13.020v-5.25h-1.698v-1.471c0-0.621-0.499-1.118-1.108-1.118h-1.99v-4.636c3.26-0.706 5.787-3.387 6.299-6.735h0.097c3.059 0 5.548-2.511 5.548-5.597v-4.296h-5.548v-2.897h-0.007zM5.938 9.958c-1.51 0-2.741-1.242-2.741-2.766v-1.465h2.741v4.231zM17.727 7.957l-1.666 1.419 0.518 2.138c0.097 0.399-0.337 0.719-0.687 0.503l-1.847-1.164-1.854 1.157c-0.35 0.216-0.784-0.098-0.687-0.504l0.518-2.138-1.659-1.412c-0.311-0.268-0.149-0.785 0.259-0.811l2.171-0.157 0.83-2.040c0.156-0.386 0.693-0.386 0.849 0l0.823 2.034 2.171 0.157c0.408 0.033 0.57 0.549 0.259 0.817zM24.888 5.728v1.465c0 1.523-1.225 2.766-2.735 2.766v-4.231h2.735z"></path>
</symbol>
<symbol id="icon-document" viewBox="0 0 24 32">
<path fill="none" stroke="#0080ff" style="stroke: var(--color2, #0080ff)" stroke-linejoin="round" stroke-linecap="butt" stroke-miterlimit="4" stroke-width="0.8649" d="M23.568 13.535v13.817c0 0.903-0.359 1.769-0.997 2.408s-1.505 0.997-2.408 0.997h-15.892c-0.903 0-1.769-0.359-2.408-0.997s-0.997-1.505-0.997-2.408v-22.703c0-0.903 0.359-1.769 0.997-2.408s1.505-0.997 2.408-0.997h7.006c0.602 0 1.179 0.239 1.605 0.665l10.022 10.022c0.425 0.426 0.665 1.003 0.665 1.605z"></path>
<path fill="none" stroke="#0080ff" style="stroke: var(--color2, #0080ff)" stroke-linejoin="round" stroke-linecap="round" stroke-miterlimit="4" stroke-width="0.8649" d="M12.216 1.811v8.514c0 0.602 0.239 1.18 0.665 1.605s1.003 0.665 1.605 0.665h8.514"></path>
<path fill="none" stroke="#0080ff" style="stroke: var(--color2, #0080ff)" stroke-linejoin="round" stroke-linecap="round" stroke-miterlimit="4" stroke-width="0.8649" d="M6.541 18.27h11.351"></path>
<path fill="none" stroke="#0080ff" style="stroke: var(--color2, #0080ff)" stroke-linejoin="round" stroke-linecap="round" stroke-miterlimit="4" stroke-width="0.8649" d="M6.541 23.946h11.351"></path>
</symbol>
<symbol id="icon-height-lot" viewBox="0 0 31 32">
<path fill="#42a5f5" style="fill: var(--color1, #42a5f5)" d="M30.556 16c0-0.499 0.14-1.068 0.289-1.67 0.25-1.011 0.532-2.158 0.17-3.275-0.377-1.162-1.3-1.933-2.114-2.614-0.459-0.384-0.892-0.746-1.163-1.119-0.278-0.382-0.492-0.911-0.719-1.472-0.396-0.978-0.844-2.086-1.818-2.795-0.965-0.703-2.153-0.789-3.202-0.864-0.609-0.044-1.183-0.086-1.642-0.234-0.425-0.138-0.895-0.433-1.393-0.746-0.904-0.568-1.928-1.211-3.17-1.211s-2.266 0.643-3.17 1.211c-0.498 0.313-0.968 0.608-1.393 0.746-0.458 0.149-1.033 0.19-1.642 0.234-1.048 0.076-2.236 0.162-3.202 0.864-0.974 0.709-1.423 1.817-1.818 2.795-0.227 0.561-0.441 1.091-0.719 1.472-0.271 0.373-0.704 0.735-1.163 1.119-0.814 0.681-1.737 1.452-2.114 2.614-0.363 1.117-0.080 2.264 0.17 3.275 0.149 0.603 0.289 1.172 0.289 1.67s-0.14 1.068-0.289 1.67c-0.249 1.011-0.532 2.158-0.17 3.275 0.377 1.161 1.3 1.933 2.114 2.614 0.459 0.383 0.892 0.746 1.163 1.118 0.278 0.382 0.492 0.911 0.719 1.472 0.396 0.978 0.844 2.086 1.818 2.795 0.965 0.703 2.153 0.789 3.202 0.864 0.609 0.044 1.183 0.086 1.642 0.234 0.425 0.138 0.895 0.433 1.393 0.746 0.904 0.568 1.928 1.211 3.17 1.211s2.266-0.643 3.17-1.211c0.498-0.313 0.968-0.608 1.393-0.746 0.458-0.149 1.033-0.19 1.642-0.234 1.048-0.076 2.236-0.162 3.202-0.864 0.974-0.709 1.423-1.817 1.818-2.795 0.227-0.561 0.442-1.091 0.719-1.472 0.271-0.373 0.705-0.735 1.163-1.118 0.814-0.681 1.737-1.452 2.114-2.614 0.363-1.117 0.080-2.264-0.17-3.275-0.149-0.602-0.289-1.171-0.289-1.67zM28.736 18.19c0.198 0.8 0.384 1.556 0.213 2.084-0.184 0.567-0.795 1.078-1.442 1.619-0.539 0.451-1.097 0.917-1.526 1.507-0.434 0.597-0.71 1.277-0.976 1.934l-0 0.001c-0.314 0.777-0.611 1.51-1.083 1.854-0.464 0.337-1.249 0.394-2.080 0.454-0.711 0.051-1.446 0.105-2.156 0.335-0.681 0.221-1.29 0.603-1.878 0.972-0.719 0.452-1.398 0.878-2.015 0.878s-1.296-0.427-2.015-0.878c-0.588-0.369-1.196-0.751-1.878-0.972-0.709-0.23-1.444-0.283-2.155-0.335l-0.001-0c-0.832-0.060-1.617-0.117-2.080-0.454-0.472-0.344-0.769-1.077-1.083-1.854l-0-0.001c-0.266-0.658-0.541-1.337-0.976-1.934-0.429-0.589-0.987-1.056-1.526-1.507l-0.001-0.001c-0.646-0.541-1.257-1.051-1.441-1.618-0.171-0.528 0.015-1.284 0.213-2.084 0.173-0.702 0.352-1.428 0.352-2.19s-0.179-1.488-0.352-2.19c-0.197-0.8-0.384-1.556-0.213-2.084 0.184-0.567 0.795-1.078 1.442-1.619 0.539-0.451 1.097-0.917 1.526-1.507 0.434-0.597 0.71-1.277 0.976-1.934l0-0.001c0.314-0.777 0.611-1.51 1.083-1.854 0.463-0.337 1.249-0.394 2.080-0.454l0.001-0c0.711-0.051 1.446-0.105 2.155-0.335 0.681-0.221 1.289-0.603 1.878-0.972 0.719-0.452 1.398-0.878 2.015-0.878s1.296 0.427 2.015 0.878c0.588 0.369 1.196 0.751 1.878 0.972 0.709 0.23 1.444 0.283 2.155 0.335l0.001 0c0.832 0.060 1.617 0.117 2.080 0.454 0.472 0.344 0.769 1.077 1.083 1.854l0 0.001c0.266 0.658 0.541 1.337 0.976 1.934 0.429 0.589 0.986 1.056 1.526 1.507 0.647 0.541 1.258 1.052 1.442 1.619 0.171 0.528-0.015 1.284-0.213 2.084-0.173 0.702-0.352 1.428-0.352 2.19s0.179 1.488 0.352 2.19z"></path>
<path fill="#42a5f5" style="fill: var(--color1, #42a5f5)" d="M28.736 18.19c0.198 0.8 0.384 1.556 0.213 2.084-0.184 0.567-0.795 1.078-1.442 1.619-0.539 0.451-1.097 0.917-1.526 1.507-0.434 0.597-0.71 1.277-0.976 1.934l-0 0.001c-0.314 0.777-0.611 1.51-1.083 1.854-0.464 0.337-1.249 0.394-2.080 0.454-0.711 0.051-1.446 0.105-2.156 0.335-0.681 0.221-1.29 0.603-1.878 0.972-0.719 0.452-1.398 0.878-2.015 0.878s-1.296-0.427-2.015-0.878c-0.588-0.369-1.196-0.751-1.878-0.972-0.709-0.23-1.444-0.283-2.155-0.335l-0.001-0c-0.832-0.060-1.617-0.117-2.080-0.454-0.472-0.344-0.769-1.077-1.083-1.854l-0-0.001c-0.266-0.658-0.541-1.337-0.976-1.934-0.429-0.589-0.987-1.056-1.526-1.507l-0.001-0.001c-0.646-0.541-1.257-1.051-1.441-1.618-0.171-0.528 0.015-1.284 0.213-2.084 0.173-0.702 0.352-1.428 0.352-2.19s-0.179-1.488-0.352-2.19c-0.197-0.8-0.384-1.556-0.213-2.084 0.184-0.567 0.795-1.078 1.442-1.619 0.539-0.451 1.097-0.917 1.526-1.507 0.434-0.597 0.71-1.277 0.976-1.934l0-0.001c0.314-0.777 0.611-1.51 1.083-1.854 0.463-0.337 1.249-0.394 2.080-0.454l0.001-0c0.711-0.051 1.446-0.105 2.155-0.335 0.681-0.221 1.289-0.603 1.878-0.972 0.719-0.452 1.398-0.878 2.015-0.878s1.296 0.427 2.015 0.878c0.588 0.369 1.196 0.751 1.878 0.972 0.709 0.23 1.444 0.283 2.155 0.335l0.001 0c0.832 0.060 1.617 0.117 2.080 0.454 0.472 0.344 0.769 1.077 1.083 1.854l0 0.001c0.266 0.658 0.541 1.337 0.976 1.934 0.429 0.589 0.986 1.056 1.526 1.507 0.647 0.541 1.258 1.052 1.442 1.619 0.171 0.528-0.015 1.284-0.213 2.084-0.173 0.702-0.352 1.428-0.352 2.19s0.179 1.488 0.352 2.19z"></path>
<path fill="#fff" style="fill: var(--color3, #fff)" d="M19.73 9.045c-0.348-0.197-0.79-0.075-0.986 0.273l-7.161 12.65c-0.197 0.348-0.074 0.79 0.273 0.986 0.113 0.064 0.235 0.094 0.356 0.094 0.252 0 0.497-0.132 0.631-0.367l7.161-12.65c0.197-0.348 0.075-0.79-0.273-0.986z"></path>
<path fill="#fff" style="fill: var(--color3, #fff)" d="M13.954 14.939c0.435-0.754 0.55-1.632 0.324-2.472s-0.765-1.542-1.519-1.977c-0.754-0.435-1.631-0.55-2.472-0.324s-1.542 0.765-1.977 1.519c-0.435 0.754-0.55 1.632-0.324 2.472s0.765 1.542 1.519 1.977c0.502 0.289 1.058 0.437 1.622 0.437 0.284 0 0.569-0.037 0.85-0.113 0.84-0.226 1.542-0.765 1.977-1.519zM10.228 14.88c-0.419-0.241-0.718-0.632-0.844-1.098s-0.061-0.955 0.18-1.373c0.241-0.419 0.632-0.718 1.098-0.844 0.156-0.042 0.315-0.063 0.472-0.063 0.313 0 0.622 0.082 0.901 0.243 0.419 0.242 0.718 0.632 0.844 1.098s0.061 0.955-0.18 1.373c-0.241 0.419-0.632 0.718-1.098 0.844s-0.954 0.061-1.373-0.18z"></path>
<path fill="#fff" style="fill: var(--color3, #fff)" d="M22.086 15.637c-0.754-0.435-1.632-0.55-2.472-0.324s-1.542 0.765-1.977 1.519c-0.435 0.754-0.55 1.632-0.324 2.472s0.765 1.542 1.519 1.977c0.502 0.289 1.058 0.437 1.622 0.437 0.284 0 0.569-0.037 0.85-0.113 0.84-0.226 1.542-0.765 1.977-1.519s0.55-1.632 0.324-2.472c-0.226-0.84-0.765-1.542-1.519-1.977zM22.026 19.363c-0.241 0.419-0.632 0.718-1.098 0.844s-0.955 0.061-1.373-0.18c-0.419-0.242-0.718-0.632-0.844-1.098s-0.061-0.955 0.18-1.373c0.241-0.419 0.631-0.718 1.098-0.844 0.156-0.042 0.315-0.063 0.472-0.063 0.313 0 0.622 0.082 0.901 0.243 0.419 0.241 0.718 0.632 0.844 1.098s0.061 0.954-0.18 1.373z"></path>
</symbol>
<symbol id="icon-multy-control" viewBox="0 0 34 32">
<path fill="#42a5f5" style="fill: var(--color1, #42a5f5)" d="M2.619 4.032c0.758 0 1.372-0.62 1.372-1.386s-0.614-1.386-1.372-1.386c-0.758 0-1.372 0.62-1.372 1.386s0.614 1.386 1.372 1.386zM2.619 5.291c1.446 0 2.619-1.184 2.619-2.646s-1.173-2.646-2.619-2.646c-1.446 0-2.619 1.185-2.619 2.646s1.173 2.646 2.619 2.646zM24.941 14.11c0 0.024-0 0.049-0 0.073l0.998 0.016c0-0.030 0-0.060 0-0.090 0-6.123-4.913-11.087-10.974-11.087-2.896 0-5.53 1.133-7.491 2.984l-1.363-1.377-0.529 0.534 0.265 0.267 1.761 1.749 0.499-0.504c1.78-1.669 4.239-2.646 6.859-2.646 5.51 0 9.976 4.512 9.976 10.079zM24.861 15.394l0-0.001 0.055 0.001h2.941v0.756h-2.104c-0.403 2.187-1.441 4.148-2.914 5.681l-0.675-0.745c1.374-1.447 2.325-3.308 2.652-5.378l0.045-0.314zM12.003 23.737c0.936 0.293 1.931 0.452 2.962 0.452 2.208 0 4.666-0.747 6.306-2.298l2.079 2.242-0.546 0.517-1.428-1.54c-1.803 1.313-4.017 2.087-6.41 2.087-1.213 0-2.381-0.199-3.472-0.566l0.51-0.893zM10.322 24.159l0.501-0.877c-0.186-0.086-0.368-0.182-0.55-0.278-0.042-0.022-0.085-0.045-0.127-0.067-3.075-1.717-5.158-5.026-5.158-8.828 0-2.218 0.709-4.269 1.911-5.934l-0.748-0.673c-1.357 1.845-2.161 4.131-2.161 6.607 0 4.174 2.283 7.809 5.657 9.701l-1.010 1.766 0.648 0.378 1.029-1.8 0.008 0.004zM23.944 14.236c0 4.94-3.964 8.945-8.854 8.945s-8.854-4.005-8.854-8.945 3.964-8.945 8.854-8.945c4.89 0 8.854 4.005 8.854 8.945zM9.822 12.379c-0.223 0.619-0.345 1.287-0.345 1.983 0 3.201 2.568 5.795 5.736 5.795s5.736-2.595 5.736-5.795c0-3.201-2.568-5.795-5.736-5.795-0.925 0-1.798 0.221-2.571 0.613l4.505 4.164-2.862 3.16-4.463-4.126zM9.228 29.354c0 0.765-0.614 1.386-1.372 1.386s-1.372-0.62-1.372-1.386 0.614-1.386 1.372-1.386c0.758 0 1.372 0.62 1.372 1.386zM10.475 29.354c0 1.461-1.172 2.646-2.619 2.646s-2.619-1.184-2.619-2.646c0-1.461 1.172-2.646 2.619-2.646s2.619 1.184 2.619 2.646zM25.315 28.724c0.758 0 1.372-0.62 1.372-1.386s-0.614-1.386-1.372-1.386c-0.758 0-1.372 0.62-1.372 1.386s0.614 1.386 1.372 1.386zM25.315 29.984c1.446 0 2.619-1.184 2.619-2.646s-1.173-2.646-2.619-2.646-2.619 1.184-2.619 2.646c0 1.461 1.172 2.646 2.619 2.646zM32.673 14.236c0 0.765-0.614 1.386-1.372 1.386s-1.372-0.62-1.372-1.386 0.614-1.386 1.372-1.386c0.758 0 1.372 0.62 1.372 1.386zM33.92 14.236c0 1.461-1.172 2.646-2.619 2.646s-2.619-1.184-2.619-2.646c0-1.461 1.172-2.646 2.619-2.646s2.619 1.184 2.619 2.646z"></path>
</symbol>
<symbol id="icon-payment" viewBox="0 0 29 32">
<path fill="#42a5f5" style="fill: var(--color1, #42a5f5)" d="M20.58 21.62c-0.169 0-0.336 0.034-0.492 0.099 0 0-0.449 0.191-1.163 0.425-0.995 0.232-2.015 0.342-3.037 0.326-1.562-0.007-3.119-0.169-4.649-0.484-0.086-0.017-0.174-0.027-0.262-0.028-0.305 0.001-0.599 0.111-0.83 0.31-0.94 0.751-2.064 1.237-3.256 1.405-2.219 0.262-5.614 0.278-5.65 0.278-0.358 0.003-0.697 0.159-0.932 0.428s-0.344 0.627-0.299 0.981c0.138 1.071 0.348 2.133 0.627 3.176 0.079 0.254 0.237 0.477 0.451 0.634s0.474 0.243 0.74 0.243h0.103l6.483-0.552c2.743 0.429 5.614 2.406 5.642 2.426h0c0.209 0.147 0.459 0.226 0.715 0.226h0.131l8.58-0.905c0.215-0.018 0.422-0.094 0.599-0.218l4.038-2.72c0.369-0.25 0.576-0.678 0.544-1.123s-0.3-0.838-0.701-1.032c-0.401-0.194-0.875-0.159-1.244 0.091l-3.696 2.505c-6.908-0.425-8.23-1.926-8.472-2.382h0c-0.029-0.054-0.051-0.111-0.068-0.171 1.779-0.124 3.535-0.469 5.229-1.028 0.488-0.134 0.964-0.31 1.422-0.528 0.353-0.16 0.612-0.474 0.7-0.851s-0.004-0.774-0.249-1.074c-0.245-0.3-0.616-0.469-1.003-0.457h-0.001z"></path>
<path fill="none" stroke="#42a5f5" style="stroke: var(--color1, #42a5f5)" stroke-linejoin="miter" stroke-linecap="butt" stroke-miterlimit="4" stroke-width="1.3333" d="M26 10.333c0 5.339-4.328 9.667-9.667 9.667s-9.667-4.328-9.667-9.667c0-5.339 4.328-9.667 9.667-9.667s9.667 4.328 9.667 9.667z"></path>
<path fill="#42a5f5" style="fill: var(--color1, #42a5f5)" d="M15.871 16.403v-1.068c-0.717-0.066-1.4-0.339-1.964-0.787s-0.986-1.051-1.212-1.735c-0.052-0.166-0.032-0.346 0.055-0.497s0.233-0.259 0.402-0.297l0.58-0.139c0.373-0.090 0.756 0.108 0.897 0.465 0.274 0.691 0.913 1.227 2.013 1.227 1.004 0 1.588-0.481 1.588-1.159 0-0.528-0.397-0.929-1.163-1.1l-1.421-0.31c-1.671-0.369-2.708-1.421-2.708-2.906 0-1.64 1.271-2.847 2.926-3.109v-1.112c-0-0.299 0.241-0.542 0.54-0.544h0.489c0.3 0 0.544 0.243 0.544 0.544v1.159c1.063 0.15 1.987 0.808 2.477 1.763 0.101 0.196 0.11 0.426 0.023 0.628s-0.26 0.355-0.472 0.416l-0.444 0.127c-0.365 0.107-0.754-0.059-0.929-0.397-0.153-0.272-0.38-0.495-0.655-0.643s-0.586-0.214-0.897-0.191c-0.989 0-1.533 0.572-1.533 1.191 0 0.48 0.341 0.882 1.068 1.036l1.409 0.326c1.949 0.433 2.831 1.588 2.831 2.982s-1.024 2.74-2.879 3.033v1.084l0-0c0 0.156-0.062 0.305-0.172 0.415s-0.26 0.172-0.415 0.172h-0.397c-0.318-0.002-0.575-0.258-0.58-0.576v0z"></path>
</symbol>
 <symbol id="icon-personal-manager" viewBox="0 0 43 42" fill="none" xmlns="http://www.w3.org/2000/svg">
<path d="M10.1481 29.3754C7.47762 29.3754 5.78619 25.1917 5.78619 23.0553C5.78619 20.6518 7.74467 18.6934 10.1481 18.6934C12.5516 18.6934 14.5101 20.6518 14.5101 23.0553C14.5101 25.2808 12.8187 29.3754 10.1481 29.3754ZM10.1481 20.4742C8.72376 20.4742 7.56674 21.6315 7.56674 23.0556C7.56674 24.8359 8.99112 27.5955 10.1481 27.5955C11.3055 27.5955 12.7295 24.747 12.7295 23.0556C12.7298 21.6312 11.5725 20.4742 10.1481 20.4742Z" fill="#42A5F5"/>
<path d="M10.1481 20.4742C8.72376 20.4742 7.56674 21.6315 7.56674 23.0556C7.56674 24.8359 8.99112 27.5955 10.1481 27.5955C11.3055 27.5955 12.7295 24.747 12.7295 23.0556C12.7298 21.6312 11.5725 20.4742 10.1481 20.4742Z" fill="#42A5F5"/>
<path d="M10.1481 41.8385C6.9435 41.8385 3.73888 41.5715 0.712036 40.9483L0 40.7703V38.5448C0 36.8534 0.534104 35.2511 1.51319 33.9158C2.5817 32.4026 4.00578 31.4235 5.78632 31.0674C6.49836 30.8894 7.29951 31.1565 8.18979 31.4235C8.90182 31.6906 9.52505 31.8685 10.2371 31.8685C10.8603 31.8685 11.5723 31.6015 12.2844 31.4235C13.0855 31.1565 13.9758 30.8894 14.6878 31.0674C16.3793 31.4235 17.8925 32.4026 18.9607 33.9158C19.9398 35.2511 20.4739 36.9425 20.4739 38.5448V40.7703L19.7618 40.9483C16.5572 41.5715 13.3527 41.8385 10.1481 41.8385Z" fill="#42A5F5"/>
<path d="M31.6908 10.6821C29.0203 10.6821 27.3289 6.49836 27.3289 4.36195C27.3289 1.95848 29.2873 0 31.6908 0C34.0943 0 36.0527 1.95848 36.0527 4.36195C36.0525 6.58748 34.3613 10.6821 31.6908 10.6821ZM31.6908 1.78085C30.2664 1.78085 29.1094 2.93818 29.1094 4.36225C29.1094 6.14249 30.5338 8.90213 31.6908 8.90213C32.8481 8.90213 34.2722 6.05368 34.2722 4.36225C34.2722 2.93787 33.1149 1.78085 31.6908 1.78085Z" fill="#42A5F5"/>
<path d="M31.6908 1.78085C30.2664 1.78085 29.1094 2.93818 29.1094 4.36225C29.1094 6.14249 30.5338 8.90213 31.6908 8.90213C32.8481 8.90213 34.2722 6.05368 34.2722 4.36225C34.2722 2.93787 33.1149 1.78085 31.6908 1.78085Z" fill="#42A5F5"/>
<path d="M31.6908 23.1452C28.4862 23.1452 25.2815 22.8781 22.2547 22.2549L21.5427 22.077V19.8514C21.5427 18.16 22.0768 16.5577 23.0559 15.2224C24.1241 13.7093 25.6373 12.7299 27.3287 12.374C28.0407 12.1961 28.8419 12.4631 29.7321 12.7302C30.4442 12.9972 31.0674 13.1752 31.7794 13.1752C32.4027 13.1752 33.1147 12.9081 33.8267 12.7302C34.6279 12.4631 35.5182 12.1961 36.2302 12.374C37.9216 12.7302 39.4348 13.7093 40.503 15.2224C41.4821 16.5577 42.0162 18.2491 42.0162 19.8514V22.077L41.3042 22.2549C38.0999 22.8781 34.8957 23.1452 31.6908 23.1452Z" fill="#42A5F5"/>
<path d="M36.1414 36.0518H30.8895V34.2716H34.3611V25.3696H36.1414V36.0518Z" fill="#42A5F5"/>
<path d="M31.3345 38.3672V31.958L28.1299 35.1626L31.3345 38.3672Z" fill="#42A5F5"/>
<path d="M6.14236 15.1331H4.36212V7.12158H12.2844V8.90183H6.14221L6.14236 15.1331Z" fill="#42A5F5"/>
<path d="M11.8397 11.2159V4.80664L15.0443 8.01126L11.8397 11.2159Z" fill="#42A5F5"/>
</symbol>
<symbol id="icon-revenue-share" viewBox="0 0 23 32">
<path fill="#42a5f5" style="fill: var(--color1, #42a5f5); stroke: var(--color1, #42a5f5)" stroke="#42a5f5" stroke-linejoin="miter" stroke-linecap="butt" stroke-miterlimit="4" stroke-width="0.9412" d="M7.95 0.528l0.002 0c1.075 0.232 2.257 0.357 3.508 0.357 1.247 0 2.424-0.124 3.509-0.383 1.068-0.211 2.019 0.641 1.899 1.682-0.004 0.022-0.006 0.040-0.007 0.046-0 0.001-0 0.001-0 0.002l-0.004 0.033-0.005 0.037c-0.007 0.053-0.017 0.124-0.033 0.213-0.032 0.179-0.089 0.435-0.194 0.753-0.198 0.598-0.568 1.423-1.272 2.376h-7.841c-1.19-1.452-1.45-3.215-1.483-3.442-0-0.003-0.001-0.006-0.001-0.009-0.126-1.019 0.852-1.901 1.923-1.665z"></path>
<path fill="#42a5f5" style="fill: var(--color1, #42a5f5); stroke: var(--color1, #42a5f5)" stroke="#42a5f5" stroke-linejoin="miter" stroke-linecap="butt" stroke-miterlimit="4" stroke-width="0.9412" d="M8.651 24.543l0.001 0.001c0.392 0.416 0.864 0.733 1.38 0.941v0.341c0 0.799 0.647 1.446 1.446 1.446s1.446-0.647 1.446-1.446v-0.34c1.425-0.571 2.432-1.965 2.439-3.593v-0.002c0-2.141-1.738-3.879-3.879-3.879-0.542 0-0.986-0.444-0.986-0.986s0.444-0.986 0.986-0.986c0.28 0 0.534 0.112 0.722 0.313v0l0.003 0.003c0.553 0.581 1.465 0.598 2.042 0.058h0l0.003-0.003c0.581-0.553 0.598-1.465 0.058-2.042l-0.001-0.001c-0.392-0.416-0.864-0.733-1.38-0.941v-0.341c0-0.799-0.647-1.446-1.446-1.446s-1.446 0.647-1.446 1.446v0.341c-1.424 0.576-2.433 1.97-2.433 3.6 0 2.141 1.738 3.879 3.879 3.879 0.542 0 0.986 0.444 0.986 0.986s-0.444 0.986-0.986 0.986c-0.28 0-0.534-0.112-0.722-0.313l-0-0c-0.553-0.591-1.467-0.608-2.045-0.067l-0 0c-0.591 0.553-0.608 1.467-0.067 2.045zM7.109 7.94h8.688c1.787 1.413 3.324 3.582 4.426 6.044 1.126 2.516 1.78 5.301 1.793 7.826-0 3.412-1.183 5.671-3.040 7.093-1.879 1.438-4.514 2.070-7.497 2.070-2.985 0-5.62-0.624-7.498-2.058-1.856-1.418-3.040-3.677-3.040-7.105 0-2.525 0.648-5.31 1.768-7.826 1.095-2.461 2.626-4.631 4.4-6.043z"></path>
</symbol>

<symbol id="icon-step-1" viewBox="0 0 137 137" fill="none" xmlns="http://www.w3.org/2000/svg">
<g clip-path="url(#clip0_817_1501)">
<path fill-rule="evenodd" clip-rule="evenodd" d="M68.3597 137C106.191 137 136.86 106.332 136.86 68.5C136.86 30.6685 106.191 0 68.3597 0C30.5282 0 -0.140259 30.6685 -0.140259 68.5C-0.140259 106.332 30.5282 137 68.3597 137ZM68.3597 132.18C33.1902 132.18 4.67965 103.67 4.67965 68.5C4.67965 33.3305 33.1902 4.81991 68.3597 4.81991C103.529 4.81991 132.04 33.3305 132.04 68.5C132.04 103.67 103.529 132.18 68.3597 132.18Z" fill="#F9FAFF"/>
<path fill-rule="evenodd" clip-rule="evenodd" d="M104.755 120.754C97.3808 125.891 89.0026 129.408 80.1716 131.075C71.3406 132.742 62.2568 132.521 53.5174 130.426C44.778 128.331 36.5809 124.411 29.465 118.922C22.3492 113.433 16.4758 106.499 12.2309 98.5782C7.98607 90.657 5.46594 81.9269 4.8362 72.9621C4.20646 63.9972 5.48139 55.0006 8.57716 46.5637C11.6729 38.1268 16.5194 30.4407 22.798 24.0108C29.0766 17.5808 36.6451 12.5526 45.0058 9.25674L43.2382 4.77266C43.2373 4.773 43.2364 4.77335 43.2356 4.77369C41.3697 5.50932 39.5405 6.32515 37.7528 7.21802C30.9246 10.6283 24.7014 15.1624 19.3495 20.6434C12.5957 27.56 7.38233 35.8279 4.05224 44.9034C0.722155 53.9789 -0.649266 63.6564 0.0281386 73.2998C0.705535 82.9432 3.41641 92.334 7.98256 100.855C12.5487 109.376 18.8667 116.834 26.5211 122.738C34.1756 128.643 42.9931 132.86 52.394 135.113C61.7949 137.366 71.5663 137.604 81.0657 135.811C88.5933 134.39 95.815 131.719 102.436 127.923C104.17 126.928 105.863 125.856 107.51 124.709L104.755 120.754Z" fill="#4CD7AB"/>
<path d="M89.7517 39.4565H78.9879V34.4586C78.9879 33.1008 77.8871 32 76.5293 32H61.0412C59.6834 32 58.5826 33.1008 58.5826 34.4586V39.4565H47.8183C46.4605 39.4565 45.3597 40.5573 45.3597 41.9151V103.542C45.3597 104.899 46.4605 106 47.8183 106H89.7517C91.1095 106 92.2103 104.899 92.2103 103.542V41.9151C92.2103 40.5571 91.1096 39.4565 89.7517 39.4565ZM63.4996 36.9171H74.0706V45.2756H63.4996V36.9171V36.9171ZM87.2931 101.083H50.2769V44.3737H58.5824V47.7342C58.5824 49.092 59.6832 50.1928 61.041 50.1928H76.5292C77.887 50.1928 78.9877 49.092 78.9877 47.7342V44.3737H87.2931V101.083V101.083Z" fill="#42A5F5"/>
<path d="M61.2811 83.5707H76.2894C77.1945 83.5707 77.9284 82.8369 77.9284 81.9317V78.2192C77.9284 75.1149 76.372 72.3686 73.9996 70.7152C76.3718 69.0617 77.9284 66.3155 77.9284 63.211C77.9284 58.1694 73.8269 54.0679 68.7852 54.0679C63.7436 54.0679 59.6421 58.1694 59.6421 63.211C59.6421 66.3153 61.1985 69.0617 63.5707 70.7152C61.1985 72.3686 59.6421 75.1149 59.6421 78.2192V81.9317C59.6421 82.8369 60.3759 83.5707 61.2811 83.5707ZM62.9202 63.211C62.9202 59.977 65.5512 57.346 68.7852 57.346C72.0192 57.346 74.6503 59.977 74.6503 63.211C74.6503 66.445 72.0192 69.0761 68.7852 69.0761C65.5512 69.0761 62.9202 66.445 62.9202 63.211ZM62.9202 78.2192C62.9202 74.9852 65.5512 72.3542 68.7852 72.3542C72.0192 72.3542 74.6503 74.9852 74.6503 78.2192V80.2926H62.9202V78.2192Z" fill="#42A5F5"/>
<path d="M58.3367 86.6597C57.4315 86.6597 56.6977 87.3935 56.6977 88.2987C56.6977 89.204 57.4315 89.9378 58.3367 89.9378H79.2334C80.1385 89.9378 80.8725 89.204 80.8725 88.2987C80.8725 87.3935 80.1385 86.6597 79.2334 86.6597H58.3367Z" fill="#42A5F5"/>
<path d="M79.2336 92.8057H58.3367C57.4315 92.8057 56.6977 93.5395 56.6977 94.4447C56.6977 95.35 57.4315 96.0838 58.3367 96.0838H79.2334C80.1385 96.0838 80.8725 95.35 80.8725 94.4447C80.8725 93.5395 80.1387 92.8057 79.2336 92.8057Z" fill="#42A5F5"/>
</g>
<defs>
<clipPath id="clip0_817_1501">
<rect width="137" height="137" fill="white"/>
</clipPath>
</defs>
</symbol>


<symbol id="icon-step-2" viewBox="0 0 137 137" fill="none" xmlns="http://www.w3.org/2000/svg">
<path fill-rule="evenodd" clip-rule="evenodd" d="M68.5 137C106.332 137 137 106.332 137 68.5C137 30.6685 106.332 0 68.5 0C30.6685 0 0 30.6685 0 68.5C0 106.332 30.6685 137 68.5 137ZM68.5 132.889C32.9389 132.889 4.11095 104.061 4.11095 68.5C4.11095 32.9389 32.9389 4.11095 68.5 4.11095C104.061 4.11095 132.889 32.9389 132.889 68.5C132.889 104.061 104.061 132.889 68.5 132.889Z" fill="#F9FAFF"/>
<path fill-rule="evenodd" clip-rule="evenodd" d="M132.889 68.5C132.889 81.9122 128.701 94.9896 120.909 105.906C113.117 116.823 102.111 125.034 89.4272 129.393C76.7432 133.752 63.0145 134.042 50.1581 130.221C37.3016 126.401 25.9591 118.661 17.7141 108.082C9.46923 97.5035 4.73351 84.6142 4.16819 71.214C3.60287 57.8138 7.23617 44.5714 14.5608 33.336C21.8854 22.1005 32.5357 13.4327 45.0248 8.54285C57.5138 3.65298 71.218 2.78511 84.2241 6.06042L85.228 2.07394C83.9315 1.74744 82.6285 1.45964 81.3206 1.21044C68.6707 -1.19989 55.5674 0.000236511 43.526 4.71486C30.2396 9.91692 18.9093 19.1381 11.117 31.0909C3.32475 43.0437 -0.540517 57.1315 0.0608988 71.3873C0.662314 85.6431 5.70039 99.3552 14.4717 110.609C23.243 121.863 35.3097 130.097 48.987 134.162C62.6643 138.227 77.2695 137.919 90.7633 133.281C104.257 128.644 115.966 119.908 124.255 108.295C131.768 97.7691 136.131 85.3555 136.883 72.5C136.961 71.1709 137 69.837 137 68.5H132.889Z" fill="#4CD7AB"/>
<path fill-rule="evenodd" clip-rule="evenodd" d="M84.2525 45.0454C84.2525 48.3978 81.5252 51.125 78.1728 51.125C74.8205 51.125 72.0931 48.3978 72.0931 45.0454C72.0931 41.6931 74.8205 38.9658 78.1728 38.9658C81.5252 38.9658 84.2525 41.6931 84.2525 45.0454ZM81.346 45.0454C81.346 43.2958 79.9225 41.8724 78.1728 41.8724C76.4232 41.8724 74.9997 43.2958 74.9997 45.0454C74.9997 46.7951 76.4232 48.2184 78.1728 48.2184C79.9225 48.2184 81.346 46.7951 81.346 45.0454ZM67.0309 65.1735C67.0309 59.0299 72.0292 54.0316 78.1728 54.0316C84.3165 54.0316 89.3147 59.0299 89.3147 65.1735C89.3147 65.9761 88.6641 66.6268 87.8615 66.6268H68.4842C67.6816 66.6268 67.0309 65.9761 67.0309 65.1735ZM78.1728 56.9382C74.1276 56.9382 70.7544 59.8701 70.0659 63.7202H86.2798C85.5913 59.8701 82.218 56.9382 78.1728 56.9382ZM53.4513 49.6351C53.4513 48.5305 54.3467 47.6351 55.4513 47.6351H65.7254C66.8299 47.6351 67.7254 48.5305 67.7254 49.6351C67.7254 50.7397 66.8299 51.6351 65.7254 51.6351H57.4513V75.8888H83.3099C83.8403 75.8888 84.349 76.0996 84.7241 76.4746L90.9912 82.7418V77.8888C90.9912 76.7843 91.8866 75.8888 92.9912 75.8888H101.068V51.6351H88.0518C86.9472 51.6351 86.0518 50.7397 86.0518 49.6351C86.0518 48.5305 86.9472 47.6351 88.0518 47.6351H103.068C104.172 47.6351 105.068 48.5305 105.068 49.6351V77.8888C105.068 78.9934 104.172 79.8888 103.068 79.8888H94.9912V87.5702C94.9912 88.3791 94.5039 89.1084 93.7566 89.4179C93.0092 89.7275 92.149 89.5564 91.577 88.9844L82.4814 79.8888H74.2911C74.389 80.1248 74.4431 80.3836 74.4431 80.655V85.3969C74.4431 86.5014 73.5476 87.3969 72.4431 87.3969H49.7596L40.0713 97.0852C39.4994 97.6572 38.6391 97.8283 37.8918 97.5187C37.1444 97.2092 36.6571 96.4799 36.6571 95.671V87.3969H27C25.8954 87.3969 25 86.5014 25 85.3969V54.1795C25 53.0749 25.8954 52.1795 27 52.1795H50.1167C51.2213 52.1795 52.1167 53.0749 52.1167 54.1795C52.1167 55.284 51.2213 56.1795 50.1167 56.1795H29V83.3969H38.6571C39.7617 83.3969 40.6571 84.2923 40.6571 85.3969V90.8425L47.517 83.9827C47.8921 83.6076 48.4008 83.3969 48.9312 83.3969H70.4431V80.655C70.4431 80.3836 70.4971 80.1248 70.5951 79.8888H55.4513C54.3467 79.8888 53.4513 78.9934 53.4513 77.8888V49.6351Z" fill="#42A5F5"/>
</symbol>



<symbol id="icon-step-3" viewBox="0 0 138 137" fill="none" xmlns="http://www.w3.org/2000/svg">
<circle cx="69" cy="68.5" r="66" stroke="#4CD7AB" stroke-width="5"/>
<path fill-rule="evenodd" clip-rule="evenodd" d="M67.7367 47.5309C67.7367 54.7628 61.8565 60.6255 54.6029 60.6255C47.3493 60.6255 41.4691 54.7628 41.4691 47.5309C41.4691 40.2989 47.3493 34.4362 54.6029 34.4362C61.8565 34.4362 67.7367 40.2989 67.7367 47.5309ZM70.1802 47.5309C70.1802 56.1083 63.206 63.0617 54.6029 63.0617C45.9998 63.0617 39.0256 56.1083 39.0256 47.5309C39.0256 38.9534 45.9998 32 54.6029 32C63.206 32 70.1802 38.9534 70.1802 47.5309ZM34.5859 64.7258C36.7005 62.6175 40.129 62.6175 42.2436 64.7258L51.4713 73.9261C52.1214 74.5742 53.003 74.9383 53.9223 74.9383H65.2932C66.1366 74.9383 66.8204 74.2566 66.8204 73.4156C66.8204 72.5747 66.1366 71.893 65.2932 71.893H56.4355C54.0739 71.893 52.1594 69.9842 52.1594 67.6296C52.1594 65.275 54.0739 63.3663 56.4355 63.3663H72.9291C73.3342 63.3663 73.7226 63.5267 74.009 63.8122L89.2809 79.0386L92.9352 82.6821L96.5896 79.0386C97.186 78.4439 98.153 78.4439 98.7494 79.0386L104.553 84.8246C105.149 85.4192 105.149 86.3833 104.553 86.9779L85.9211 105.554C85.3246 106.149 84.3577 106.149 83.7613 105.554L77.958 99.768C77.3616 99.1734 77.3616 98.2093 77.958 97.6147L81.3069 94.2757L77.5657 90.5456C75.5609 88.5468 72.8418 87.4239 70.0065 87.4239H50.3268C49.9218 87.4239 49.5333 87.2634 49.2469 86.9779L34.5859 72.3606C32.4714 70.2523 32.4713 66.8341 34.5859 64.7258ZM40.0838 66.8791C39.162 65.9601 37.6675 65.9601 36.7457 66.8791C35.8239 67.7982 35.8239 69.2882 36.7457 70.2073L50.9594 84.3786H70.0065C73.6519 84.3786 77.1479 85.8224 79.7255 88.3923L83.033 91.6899L87.1565 87.8357L87.1589 87.8334L90.5849 84.6454L87.1211 81.1919L72.2965 66.4115H56.4355C55.7608 66.4115 55.2138 66.9569 55.2138 67.6296C55.2138 68.3024 55.7608 68.8477 56.4355 68.8477H65.2932C67.8235 68.8477 69.8748 70.8929 69.8748 73.4156C69.8748 75.9384 67.8235 77.9835 65.2932 77.9835H53.9223C52.1929 77.9835 50.5344 77.2986 49.3116 76.0794L40.0838 66.8791ZM97.6695 82.2686L84.3939 95.5046L81.1976 98.6914L84.8412 102.324L101.313 85.9012L97.6695 82.2686ZM54.9084 54.535C58.9569 54.535 62.2388 51.2628 62.2388 47.2263C62.2388 43.1899 58.9569 39.9177 54.9084 39.9177C50.8598 39.9177 47.5779 43.1899 47.5779 47.2263C47.5779 51.2628 50.8598 54.535 54.9084 54.535ZM54.9084 56.3621C59.969 56.3621 64.0715 52.2719 64.0715 47.2263C64.0715 42.1808 59.969 38.0905 54.9084 38.0905C49.8477 38.0905 45.7452 42.1808 45.7452 47.2263C45.7452 52.2719 49.8477 56.3621 54.9084 56.3621ZM55.1006 43.9319V42.963H54.4255V43.9183C54.1424 43.9462 53.8871 44.0163 53.6594 44.1286C53.3593 44.275 53.1242 44.4842 52.9539 44.7562C52.7837 45.0282 52.6986 45.3494 52.6986 45.72C52.6986 46.1086 52.7779 46.4298 52.9366 46.6839C53.0953 46.9349 53.316 47.1456 53.5988 47.316C53.8845 47.4834 54.2148 47.6418 54.5899 47.7912C54.8121 47.8779 54.9881 47.9675 55.118 48.0602C55.2507 48.1528 55.3459 48.2589 55.4036 48.3785C55.4642 48.498 55.4945 48.643 55.4945 48.8133C55.4945 48.9658 55.4628 49.1032 55.3993 49.2258C55.3387 49.3453 55.2478 49.4395 55.1266 49.5082C55.0083 49.5769 54.8568 49.6113 54.6722 49.6113C54.5539 49.6113 54.437 49.5934 54.3216 49.5575C54.2062 49.5217 54.1023 49.4619 54.01 49.3782C53.9205 49.2915 53.8484 49.1765 53.7936 49.033C53.7387 48.8866 53.7113 48.7042 53.7113 48.4861H52.4649C52.4649 48.8866 52.5283 49.2243 52.6553 49.4992C52.7822 49.7712 52.9525 49.9894 53.166 50.1538C53.3795 50.3181 53.6176 50.4377 53.8801 50.5124C54.034 50.5544 54.1884 50.5842 54.3432 50.6016V51.4897H55.0184V50.602C55.2883 50.573 55.5335 50.5088 55.7542 50.4093C56.0658 50.2658 56.3082 50.0596 56.4813 49.7906C56.6544 49.5187 56.741 49.1899 56.741 48.8044C56.741 48.4158 56.6616 48.096 56.5029 47.845C56.3442 47.5939 56.1235 47.3817 55.8407 47.2084C55.558 47.0351 55.229 46.8737 54.8539 46.7242C54.6231 46.6256 54.4413 46.53 54.3086 46.4373C54.1759 46.3417 54.0821 46.2371 54.0273 46.1235C53.9753 46.0099 53.9494 45.8769 53.9494 45.7245C53.9494 45.5691 53.9739 45.4316 54.023 45.3121C54.0749 45.1895 54.1571 45.0924 54.2697 45.0207C54.3822 44.949 54.5265 44.9131 54.7025 44.9131C54.8208 44.9131 54.929 44.937 55.0271 44.9848C55.1252 45.0296 55.2088 45.0984 55.2781 45.191C55.3502 45.2837 55.405 45.3987 55.4426 45.5362C55.4801 45.6737 55.4988 45.8321 55.4988 46.0114H56.741C56.741 45.6767 56.6934 45.3793 56.5981 45.1193C56.5029 44.8593 56.3659 44.6396 56.187 44.4603C56.0081 44.278 55.7946 44.1405 55.5464 44.0479C55.4069 43.9941 55.2584 43.9555 55.1006 43.9319Z" fill="#42A5F5"/>
</symbol>


<symbol id="icon-support" viewBox="0 0 39 32">
<path fill="#42a5f5" style="fill: var(--color1, #42a5f5)" d="M19.103 3.368c-6.52 0-11.789 5.269-11.789 11.789s5.269 11.789 11.789 11.789c6.52 0 11.789-5.269 11.789-11.789s-5.269-11.789-11.789-11.789zM19.103 4.374c0.582 0 1.15 0.048 1.708 0.135l-1.087 1.896-4.143 1.978-1.641 1.15-4.86 1.631c1.583-3.984 5.466-6.79 10.023-6.79zM25.936 23.507c-1.857 1.521-4.239 2.435-6.838 2.435-5.967 0-10.779-4.812-10.779-10.784 0-0.962 0.125-1.896 0.361-2.781l5.726-1.92 1.694-1.184 4.35-2.084 1.41-2.464c0.688 0.178 1.347 0.428 1.968 0.731v1.747l-1.189 1.857v2.353l-1.694 3.859 1.458 1.949h3.532v6.285zM26.961 22.554v-6.352h-4.042l-0.794-1.063 1.54-3.508v-2.271l1.189-1.853v-1.482c3.027 1.906 5.033 5.279 5.033 9.133 0 2.868-1.112 5.466-2.926 7.396z"></path>
<path fill="#42a5f5" style="fill: var(--color1, #42a5f5)" d="M26.961 22.554v-6.352h-4.042l-0.794-1.063 1.54-3.508v-2.271l1.189-1.853v-1.482c3.027 1.906 5.033 5.279 5.033 9.133 0 2.868-1.112 5.466-2.926 7.396z"></path>
<path fill="#42a5f5" style="fill: var(--color1, #42a5f5)" d="M19.103 4.374c0.582 0 1.15 0.048 1.708 0.135l-1.087 1.896-4.143 1.978-1.641 1.15-4.86 1.631c1.583-3.984 5.466-6.79 10.023-6.79z"></path>
<path fill="#42a5f5" style="fill: var(--color1, #42a5f5)" d="M13.733 13.7l-2.011 1.91v1.651l1.838 3.176 1.059 3.802 3.744-0.823 0.703-2.411 1.049-1.444v-2.541l-2.223-0.467-4.158-2.853zM19.098 19.234h-0.005l-0.958 1.314-0.582 2.002-2.209 0.486-0.837-2.998-1.766-3.051v-0.938l1.097-1.039 3.648 2.502 1.612 0.337v1.386z"></path>
<path fill="#42a5f5" style="fill: var(--color1, #42a5f5)" d="M19.098 19.234h-0.005l-0.958 1.314-0.582 2.002-2.209 0.486-0.837-2.998-1.766-3.051v-0.938l1.097-1.039 3.648 2.502 1.612 0.337v1.386z"></path>
<path fill="#42a5f5" style="fill: var(--color1, #42a5f5)" d="M18.682 29.468c0.003-1.16 0.945-2.099 2.105-2.099 1.163 0 2.105 0.943 2.105 2.105s-0.943 2.105-2.105 2.105c-0.876 0-1.628-0.536-1.945-1.297-0.050 0.020-0.104 0.030-0.162 0.029-6.929-0.189-12.697-5.029-14.295-11.51h-0.149c-2.34 0-4.236-1.897-4.236-4.236s1.897-4.236 4.236-4.236h0.495c2.017-6.003 7.689-10.327 14.372-10.327 6.441 0 11.944 4.018 14.139 9.684h0.566c2.429 0 4.397 1.969 4.397 4.397 0 2.285-1.75 4.189-4.027 4.382l-0.54 0.046c-0.037 0.011-0.075 0.017-0.115 0.017-0.017 0-0.034-0.001-0.050-0.003l-0.019 0.002-0-0.004c-0.22-0.039-0.371-0.257-0.324-0.485 0.19-0.93 0.289-1.892 0.289-2.877 0-7.906-6.409-14.316-14.316-14.316s-14.316 6.409-14.316 14.316c0 7.765 6.183 14.086 13.894 14.31 0 0 0.001 0 0.001 0zM34.023 17.632l0.085-0.007c1.841-0.156 3.256-1.695 3.256-3.543 0-1.964-1.592-3.555-3.555-3.555h-0.268c0.468 1.46 0.721 3.016 0.721 4.632 0 0.842-0.093 1.669-0.238 2.474zM4.475 11.169h-0.239c-1.875 0-3.394 1.52-3.394 3.394 0 1.863 1.502 3.376 3.361 3.394-0.169-0.907-0.258-1.843-0.258-2.8 0-1.38 0.185-2.718 0.53-3.988zM20.787 28.211c-0.698 0-1.263 0.566-1.263 1.263s0.566 1.263 1.263 1.263c0.698 0 1.263-0.566 1.263-1.263s-0.566-1.263-1.263-1.263z"></path>
</symbol>
<symbol id="icon-track-performance" viewBox="0 0 47 39" fill="none" xmlns="http://www.w3.org/2000/svg">
<path fill-rule="evenodd" clip-rule="evenodd" d="M28.6277 23C28.6277 22.3035 28.5625 21.592 28.4302 20.8805L32 17.8442L28.6124 12.1633L24.1084 13.6372C22.9709 12.7111 21.6741 11.9807 20.3064 11.4969L19.378 7H12.622L11.6936 11.4951C10.3105 11.9807 9.03682 12.6998 7.88972 13.6353L3.38762 12.1633L0 17.8442L3.56984 20.8805C3.43747 21.592 3.37225 22.3035 3.37225 23C3.37225 23.6965 3.43747 24.408 3.56983 25.1195L0 28.1558L3.3876 33.8367L7.89162 32.3628C9.02913 33.2889 10.3259 34.0193 11.6936 34.5031L12.622 39H19.378L20.3064 34.5049C21.6875 34.0193 22.9632 33.3002 24.1103 32.3647L28.6124 33.8386L32 28.1577L28.4301 25.1214C28.5625 24.408 28.6277 23.6965 28.6277 23M16 29.5882C12.2978 29.5882 9.28615 26.6329 9.28615 23C9.28615 19.3671 12.2978 16.4118 16 16.4118C19.7022 16.4118 22.7138 19.3671 22.7138 23C22.7138 26.6329 19.7022 29.5882 16 29.5882Z" fill="#42A5F5"/>
<circle cx="32" cy="15" r="14" fill="white" stroke="#42A5F5" stroke-width="2"/>
<path d="M31.8411 4C25.8633 4 21 8.8633 21 14.841C21 20.8188 25.8633 25.6821 31.8411 25.6821C37.8189 25.6821 42.6821 20.8188 42.6821 14.841C42.6821 8.86324 37.8189 4 31.8411 4Z" fill="#42A5F5"/>
<path d="M31.8413 9.26416C31.3206 9.26416 30.8984 9.6863 30.8984 10.207V13.8986H29.83C29.3093 13.8986 28.8872 14.3207 28.8872 14.8414C28.8872 15.3621 29.3093 15.7843 29.83 15.7843H31.8413C32.362 15.7843 32.7841 15.3621 32.7841 14.8414V10.207C32.7841 9.6863 32.362 9.26416 31.8413 9.26416Z" fill="white"/>
<path d="M24.7733 14.2124H23.4469C23.0998 14.2124 22.8184 14.4938 22.8184 14.841C22.8184 15.1881 23.0998 15.4695 23.4469 15.4695H24.7733C25.1205 15.4695 25.4019 15.1881 25.4019 14.841C25.4019 14.4938 25.1205 14.2124 24.7733 14.2124Z" fill="white"/>
<path d="M31.8412 8.40187C32.1884 8.40187 32.4698 8.12046 32.4698 7.77331V6.44692C32.4698 6.09977 32.1884 5.81836 31.8412 5.81836C31.4941 5.81836 31.2126 6.09977 31.2126 6.44692V7.77331C31.2126 8.12046 31.4941 8.40187 31.8412 8.40187Z" fill="white"/>
<path d="M31.8412 21.2808C31.4941 21.2808 31.2126 21.5622 31.2126 21.9093V23.2357C31.2126 23.5829 31.4941 23.8643 31.8412 23.8643C32.1884 23.8643 32.4698 23.5829 32.4698 23.2357V21.9093C32.4698 21.5622 32.1884 21.2808 31.8412 21.2808Z" fill="white"/>
</symbol>

<symbol id="icon-trading-chart" viewBox="0 0 28 32">
<path fill="none" stroke="#42a5f5" style="stroke: var(--color1, #42a5f5)" stroke-linejoin="miter" stroke-linecap="butt" stroke-miterlimit="4" stroke-width="0.9412" d="M1.412 19.294v11.765h26.353"></path>
<path fill="#42a5f5" style="fill: var(--color1, #42a5f5); stroke: var(--color1, #42a5f5)" stroke="#42a5f5" stroke-linejoin="miter" stroke-linecap="butt" stroke-miterlimit="4" stroke-width="0.9412" d="M5.176 14.118h2.824v10.353h-2.824v-10.353z"></path>
<path fill="none" stroke="#42a5f5" style="stroke: var(--color1, #42a5f5)" stroke-linejoin="miter" stroke-linecap="butt" stroke-miterlimit="4" stroke-width="0.9412" d="M6.588 14.118v-3.294M6.588 24.941v3.294"></path>
<path fill="#42a5f5" style="fill: var(--color1, #42a5f5); stroke: var(--color1, #42a5f5)" stroke="#42a5f5" stroke-linejoin="miter" stroke-linecap="butt" stroke-miterlimit="4" stroke-width="0.9412" d="M10.824 9.412h2.824v10.353h-2.824v-10.353z"></path>
<path fill="none" stroke="#42a5f5" style="stroke: var(--color1, #42a5f5)" stroke-linejoin="miter" stroke-linecap="butt" stroke-miterlimit="4" stroke-width="0.9412" d="M12.235 19.765v5.176M12.235 8.941v-2.824"></path>
<path fill="#42a5f5" style="fill: var(--color1, #42a5f5); stroke: var(--color1, #42a5f5)" stroke="#42a5f5" stroke-linejoin="miter" stroke-linecap="butt" stroke-miterlimit="4" stroke-width="0.9412" d="M16.471 13.176h2.824v10.353h-2.824v-10.353z"></path>
<path fill="none" stroke="#42a5f5" style="stroke: var(--color1, #42a5f5)" stroke-linejoin="miter" stroke-linecap="butt" stroke-miterlimit="4" stroke-width="0.9412" d="M17.882 23.529v2.824M17.882 13.176v-3.294"></path>
<path fill="#42a5f5" style="fill: var(--color1, #42a5f5); stroke: var(--color1, #42a5f5)" stroke="#42a5f5" stroke-linejoin="miter" stroke-linecap="butt" stroke-miterlimit="4" stroke-width="0.9412" d="M22.118 11.294h2.824v4.706h-2.824v-4.706z"></path>
<path fill="none" stroke="#42a5f5" style="stroke: var(--color1, #42a5f5)" stroke-linejoin="miter" stroke-linecap="butt" stroke-miterlimit="4" stroke-width="0.9412" d="M23.529 8.471v2.824M23.529 16.201v5.916"></path>
<path fill="#42a5f5" style="fill: var(--color1, #42a5f5)" d="M12.706 2.824l0.333-0.333-0.333-0.333-0.333 0.333 0.333 0.333zM16 6.118l-0.333 0.333 0.333 0.333 0.333-0.333-0.333-0.333zM21.647 0.941c0-0.26-0.211-0.471-0.471-0.471h-4.235c-0.26 0-0.471 0.211-0.471 0.471s0.211 0.471 0.471 0.471h3.765v3.765c0 0.26 0.211 0.471 0.471 0.471s0.471-0.211 0.471-0.471v-4.235zM0.803 15.392l12.235-12.235-0.666-0.665-12.235 12.235 0.665 0.666zM12.373 3.156l3.294 3.294 0.666-0.665-3.294-3.294-0.666 0.665zM16.333 6.45l5.176-5.176-0.666-0.665-5.176 5.176 0.666 0.665z"></path>
</symbol>
<symbol id="icon-trasted-brand" viewBox="0 0 38 41" fill="none" xmlns="http://www.w3.org/2000/svg">
<path d="M36.6574 0.991303C36.5621 0.592932 36.2834 0.263468 35.9065 0.103086C35.5296 -0.0572964 35.099 -0.0293027 34.7458 0.178453C30.1146 2.90254 24.3606 2.90271 19.7291 0.178453C19.325 -0.0594497 18.8233 -0.0594497 18.419 0.178453C13.7877 2.90262 8.03371 2.90262 3.40244 0.178453C3.04938 -0.0293027 2.6187 -0.057038 2.24178 0.103086C1.86486 0.263382 1.58621 0.592932 1.49086 0.991303C-1.84056 14.9094 3.38556 29.4763 14.805 38.1024L18.2953 40.7389C18.5257 40.913 18.7998 41 19.0741 41C19.3482 41 19.6225 40.9129 19.8529 40.7389L23.3432 38.1024C34.7627 29.4763 39.9889 14.9094 36.6574 0.991303ZM21.7858 36.0405L19.0741 38.0887L16.3626 36.0405C6.20775 28.3698 1.32936 15.6368 3.65645 3.2221C8.56309 5.47347 14.2746 5.3236 19.0741 2.7723C23.8739 5.3236 29.5851 5.47356 34.4918 3.2221C36.8189 15.6368 31.9405 28.3698 21.7858 36.0405Z" fill="#42A5F5"/>
<path d="M32.7862 6.12787C32.5787 5.98075 32.3166 5.93277 32.0709 5.99703C30.4944 6.40755 28.8682 6.61573 27.2376 6.61573C24.571 6.61573 21.8692 6.04104 19.4241 4.95369C19.2012 4.85463 18.947 4.85463 18.7241 4.95369C16.2791 6.04104 13.5773 6.61573 10.9108 6.61573C9.28001 6.61573 7.6538 6.40755 6.07737 5.99703C5.83128 5.93286 5.56952 5.98084 5.36219 6.12787C5.15487 6.2749 5.023 6.50608 5.00189 6.7594C4.58233 11.8187 5.40311 16.9674 7.3755 21.6489C9.53265 26.7691 13.0173 31.2464 17.4528 34.5969L18.555 35.4295C18.7086 35.5455 18.8914 35.6035 19.0742 35.6035C19.257 35.6035 19.4397 35.5455 19.5933 35.4295L20.6955 34.5969C25.1311 31.2464 28.6157 26.7689 30.7729 21.6489C32.7452 16.9674 33.566 11.8187 33.1465 6.7594C33.1254 6.506 32.9936 6.2749 32.7862 6.12787Z" fill="#42A5F5"/>
<path d="M15 19.8889L18.3939 23L24 16.5" stroke="white" stroke-width="2" stroke-linecap="round"/>
</symbol>

<symbol id="icon-users" viewBox="0 0 47 32">
<path fill="#2196f3" style="fill: var(--color7, #2196f3); stroke: var(--color7, #2196f3)" stroke="#2196f3" stroke-linejoin="miter" stroke-linecap="butt" stroke-miterlimit="4" stroke-width="1.28" d="M31.74 7.42c0 3.745-3.036 6.78-6.78 6.78s-6.78-3.036-6.78-6.78c0-3.745 3.036-6.78 6.78-6.78s6.78 3.036 6.78 6.78z"></path>
<path fill="#2196f3" style="fill: var(--color7, #2196f3); stroke: var(--color7, #2196f3)" stroke="#2196f3" stroke-linejoin="miter" stroke-linecap="butt" stroke-miterlimit="4" stroke-width="1.28" d="M37.754 31.36h-25.587c0.333-6.777 5.934-12.169 12.794-12.169s12.46 5.392 12.794 12.169z"></path>
<path fill="none" stroke="#2196f3" style="stroke: var(--color7, #2196f3)" stroke-linejoin="miter" stroke-linecap="butt" stroke-miterlimit="4" stroke-width="1.28" d="M43.631 9.071c0 1.122-0.909 2.031-2.031 2.031s-2.031-0.909-2.031-2.031 0.909-2.031 2.031-2.031c1.122 0 2.031 0.909 2.031 2.031z"></path>
<path fill="none" stroke="#2196f3" style="stroke: var(--color7, #2196f3)" stroke-linejoin="miter" stroke-linecap="butt" stroke-miterlimit="4" stroke-width="1.28" d="M45.753 17.28h-8.307c0.308-2.017 2.050-3.562 4.153-3.562s3.845 1.545 4.153 3.562z"></path>
<path fill="none" stroke="#2196f3" style="stroke: var(--color7, #2196f3)" stroke-linejoin="miter" stroke-linecap="butt" stroke-miterlimit="4" stroke-width="1.28" d="M7.791 9.071c0 1.122-0.909 2.031-2.031 2.031s-2.031-0.909-2.031-2.031c0-1.122 0.909-2.031 2.031-2.031s2.031 0.909 2.031 2.031z"></path>
<path fill="none" stroke="#2196f3" style="stroke: var(--color7, #2196f3)" stroke-linejoin="miter" stroke-linecap="butt" stroke-miterlimit="4" stroke-width="1.28" d="M9.913 17.28h-8.307c0.308-2.017 2.050-3.562 4.153-3.562s3.845 1.545 4.153 3.562z"></path>
</symbol>
<symbol id="icon-visa" viewBox="0 0 45 32">
<path fill="#42a5f5" style="fill: var(--color1, #42a5f5)" d="M43.852 7.751h-42.667v5.12h42.667v-5.12z"></path>
<path fill="none" stroke="#42a5f5" style="stroke: var(--color1, #42a5f5)" stroke-linejoin="miter" stroke-linecap="butt" stroke-miterlimit="4" stroke-width="2.3704" d="M1.185 7.751v0c0-3.299 2.674-5.973 5.973-5.973h30.72c3.299 0 5.973 2.674 5.973 5.973v0M1.185 7.751h42.667M1.185 7.751v5.12M43.852 7.751v5.12M43.852 12.871v10.24c0 3.927-3.184 7.111-7.111 7.111h-28.444c-3.927 0-7.111-3.184-7.111-7.111v-10.24M43.852 12.871h-42.667"></path>
</symbol>


<symbol  id="icon-arrow-right"   viewBox="0 0 12 19" xmlns="http://www.w3.org/2000/svg">
<path  d="M0.351469 0.309162C0.820095 -0.103054 1.57984 -0.103054 2.04848 0.309162L11.6485 8.75366C12.1172 9.1659 12.1172 9.83413 11.6485 10.2464L2.04848 18.6908C1.57984 19.1031 0.820095 19.1031 0.351469 18.6908C-0.117156 18.2786 -0.117156 17.6104 0.351469 17.1981L9.10291 9.50002L0.351469 1.80195C-0.117156 1.38973 -0.117156 0.721379 0.351469 0.309162Z" />
</symbol>

</defs>
</svg>
