<!-- Generated by IcoMoon.io -->
<svg version="1.1" xmlns="http://www.w3.org/2000/svg" width="31" height="32" viewBox="0 0 31 32">
<title>comissions</title>
<path fill="#42a5f5" d="M15.456 31.459c-0.906 0-1.812-0.302-2.517-0.906l-2.273-1.956c-0.23-0.201-0.806-0.403-1.108-0.403h-2.474c-2.129 0-3.855-1.726-3.855-3.855v-2.46c0-0.302-0.201-0.863-0.403-1.093l-1.942-2.287c-1.179-1.395-1.179-3.596 0-4.991l1.942-2.287c0.201-0.23 0.403-0.791 0.403-1.093v-2.474c0-2.129 1.726-3.855 3.855-3.855h2.488c0.302 0 0.877-0.216 1.108-0.403l2.273-1.956c1.41-1.208 3.61-1.208 5.020 0l2.273 1.956c0.23 0.201 0.806 0.403 1.108 0.403h2.445c2.129 0 3.855 1.726 3.855 3.855v2.445c0 0.302 0.216 0.877 0.417 1.108l1.956 2.273c1.208 1.41 1.208 3.61 0 5.020l-1.956 2.273c-0.201 0.23-0.417 0.806-0.417 1.108v2.445c0 2.129-1.726 3.855-3.855 3.855h-2.445c-0.302 0-0.877 0.216-1.108 0.403l-2.273 1.956c-0.705 0.618-1.611 0.921-2.517 0.921zM7.084 5.956c-0.935 0-1.697 0.762-1.697 1.697v2.46c0 0.82-0.388 1.87-0.921 2.488l-1.942 2.287c-0.503 0.59-0.503 1.611 0 2.201l1.942 2.287c0.532 0.633 0.921 1.669 0.921 2.489v2.46c0 0.935 0.762 1.697 1.697 1.697h2.488c0.834 0 1.884 0.388 2.517 0.935l2.273 1.956c0.59 0.503 1.626 0.503 2.215 0l2.273-1.956c0.633-0.532 1.683-0.935 2.517-0.935h2.445c0.935 0 1.697-0.762 1.697-1.697v-2.445c0-0.834 0.388-1.884 0.935-2.517l1.956-2.273c0.503-0.59 0.503-1.626 0-2.215l-1.956-2.273c-0.547-0.633-0.935-1.683-0.935-2.517v-2.431c0-0.935-0.762-1.697-1.697-1.697h-2.445c-0.834 0-1.884-0.388-2.517-0.935l-2.273-1.956c-0.59-0.503-1.626-0.503-2.215 0l-2.273 1.971c-0.633 0.532-1.697 0.921-2.517 0.921h-2.488z"></path>
<path fill="#42a5f5" d="M10.667 13.893v-0.549c0-0.394 0.087-0.753 0.26-1.076s0.429-0.582 0.766-0.777c0.337-0.195 0.751-0.292 1.242-0.292 0.506 0 0.927 0.097 1.264 0.292 0.342 0.195 0.597 0.454 0.766 0.777 0.173 0.323 0.26 0.682 0.26 1.076v0.549c0 0.385-0.087 0.739-0.26 1.062-0.169 0.323-0.421 0.582-0.758 0.777s-0.754 0.292-1.25 0.292c-0.501 0-0.922-0.097-1.264-0.292-0.337-0.195-0.592-0.454-0.766-0.777s-0.26-0.677-0.26-1.062zM12.046 13.345v0.549c0 0.166 0.031 0.325 0.094 0.477 0.067 0.147 0.169 0.268 0.303 0.363 0.14 0.090 0.308 0.135 0.506 0.135 0.207 0 0.376-0.045 0.506-0.135 0.13-0.095 0.226-0.216 0.289-0.363 0.063-0.152 0.094-0.311 0.094-0.477v-0.549c0-0.176-0.034-0.337-0.101-0.485-0.063-0.152-0.161-0.273-0.296-0.363-0.13-0.095-0.299-0.143-0.506-0.143-0.193 0-0.356 0.047-0.491 0.143-0.135 0.090-0.236 0.211-0.303 0.363-0.063 0.147-0.094 0.309-0.094 0.485zM15.694 19.729v-0.549c0-0.389 0.087-0.746 0.26-1.069 0.178-0.323 0.436-0.582 0.773-0.777 0.342-0.195 0.761-0.292 1.257-0.292 0.501 0 0.92 0.097 1.257 0.292s0.592 0.454 0.766 0.777c0.173 0.323 0.26 0.679 0.26 1.069v0.549c0 0.39-0.087 0.746-0.26 1.069-0.169 0.323-0.421 0.582-0.759 0.777s-0.754 0.292-1.25 0.292c-0.501 0-0.922-0.097-1.264-0.292s-0.602-0.454-0.78-0.777c-0.173-0.323-0.26-0.679-0.26-1.069zM17.081 19.18v0.549c0 0.171 0.039 0.332 0.116 0.484s0.183 0.273 0.318 0.363c0.14 0.090 0.301 0.135 0.484 0.135 0.231 0 0.412-0.045 0.542-0.135s0.219-0.211 0.267-0.363c0.053-0.152 0.079-0.314 0.079-0.484v-0.549c0-0.171-0.034-0.33-0.101-0.477-0.067-0.152-0.169-0.273-0.303-0.363-0.13-0.095-0.296-0.142-0.498-0.142s-0.371 0.047-0.506 0.142c-0.13 0.090-0.229 0.211-0.296 0.363-0.068 0.147-0.101 0.306-0.101 0.477zM18.497 12.832l-5.136 8.109-1.011-0.527 5.136-8.109 1.011 0.527z"></path>
<path fill="#42a5f5" d="M12.046 13.345v0.549c0 0.166 0.031 0.325 0.094 0.477 0.067 0.147 0.169 0.268 0.303 0.363 0.14 0.090 0.308 0.135 0.506 0.135 0.207 0 0.376-0.045 0.506-0.135 0.13-0.095 0.226-0.216 0.289-0.363 0.063-0.152 0.094-0.311 0.094-0.477v-0.549c0-0.176-0.034-0.337-0.101-0.485-0.063-0.152-0.161-0.273-0.296-0.363-0.13-0.095-0.299-0.143-0.506-0.143-0.193 0-0.356 0.047-0.491 0.143-0.135 0.090-0.236 0.211-0.303 0.363-0.063 0.147-0.094 0.309-0.094 0.485z"></path>
<path fill="#42a5f5" d="M17.081 19.18v0.549c0 0.171 0.039 0.332 0.116 0.484s0.183 0.273 0.318 0.363c0.14 0.090 0.301 0.135 0.484 0.135 0.231 0 0.412-0.045 0.542-0.135s0.219-0.211 0.267-0.363c0.053-0.152 0.079-0.314 0.079-0.484v-0.549c0-0.171-0.034-0.33-0.101-0.477-0.067-0.152-0.169-0.273-0.303-0.363-0.13-0.095-0.296-0.142-0.498-0.142s-0.371 0.047-0.506 0.142c-0.13 0.090-0.229 0.211-0.296 0.363-0.068 0.147-0.101 0.306-0.101 0.477z"></path>
</svg>
