<!-- Generated by IcoMoon.io -->
<svg version="1.1" xmlns="http://www.w3.org/2000/svg" width="28" height="32" viewBox="0 0 28 32">
<title>cup</title>
<path fill="#42a5f5" d="M22.153 0h-16.215v2.897h-5.548v4.296c0 3.086 2.489 5.597 5.548 5.597h0.097c0.512 3.354 3.046 6.029 6.299 6.735v4.636h-1.99c-0.616 0-1.108 0.503-1.108 1.118v1.471h-1.698v5.25h13.020v-5.25h-1.698v-1.471c0-0.621-0.499-1.118-1.108-1.118h-1.99v-4.636c3.26-0.706 5.787-3.387 6.299-6.735h0.097c3.059 0 5.548-2.511 5.548-5.597v-4.296h-5.548v-2.897h-0.007zM5.938 9.958c-1.51 0-2.741-1.242-2.741-2.766v-1.465h2.741v4.231zM17.727 7.957l-1.666 1.419 0.518 2.138c0.097 0.399-0.337 0.719-0.687 0.503l-1.847-1.164-1.854 1.157c-0.35 0.216-0.784-0.098-0.687-0.504l0.518-2.138-1.659-1.412c-0.311-0.268-0.149-0.785 0.259-0.811l2.171-0.157 0.83-2.040c0.156-0.386 0.693-0.386 0.849 0l0.823 2.034 2.171 0.157c0.408 0.033 0.57 0.549 0.259 0.817zM24.888 5.728v1.465c0 1.523-1.225 2.766-2.735 2.766v-4.231h2.735z"></path>
</svg>
