<!-- Generated by IcoMoon.io -->
<svg version="1.1" xmlns="http://www.w3.org/2000/svg" width="24" height="32" viewBox="0 0 24 32">
<title>document</title>
<path fill="none" stroke="#0080ff" stroke-linejoin="round" stroke-linecap="butt" stroke-miterlimit="4" stroke-width="0.8649" d="M23.568 13.535v13.817c0 0.903-0.359 1.769-0.997 2.408s-1.505 0.997-2.408 0.997h-15.892c-0.903 0-1.769-0.359-2.408-0.997s-0.997-1.505-0.997-2.408v-22.703c0-0.903 0.359-1.769 0.997-2.408s1.505-0.997 2.408-0.997h7.006c0.602 0 1.179 0.239 1.605 0.665l10.022 10.022c0.425 0.426 0.665 1.003 0.665 1.605z"></path>
<path fill="none" stroke="#0080ff" stroke-linejoin="round" stroke-linecap="round" stroke-miterlimit="4" stroke-width="0.8649" d="M12.216 1.811v8.514c0 0.602 0.239 1.18 0.665 1.605s1.003 0.665 1.605 0.665h8.514"></path>
<path fill="none" stroke="#0080ff" stroke-linejoin="round" stroke-linecap="round" stroke-miterlimit="4" stroke-width="0.8649" d="M6.541 18.27h11.351"></path>
<path fill="none" stroke="#0080ff" stroke-linejoin="round" stroke-linecap="round" stroke-miterlimit="4" stroke-width="0.8649" d="M6.541 23.946h11.351"></path>
</svg>
