<!-- Generated by IcoMoon.io -->
<svg version="1.1" xmlns="http://www.w3.org/2000/svg" width="31" height="32" viewBox="0 0 31 32">
<title>height-lot</title>
<path fill="#42a5f5" d="M30.556 16c0-0.499 0.14-1.068 0.289-1.67 0.25-1.011 0.532-2.158 0.17-3.275-0.377-1.162-1.3-1.933-2.114-2.614-0.459-0.384-0.892-0.746-1.163-1.119-0.278-0.382-0.492-0.911-0.719-1.472-0.396-0.978-0.844-2.086-1.818-2.795-0.965-0.703-2.153-0.789-3.202-0.864-0.609-0.044-1.183-0.086-1.642-0.234-0.425-0.138-0.895-0.433-1.393-0.746-0.904-0.568-1.928-1.211-3.17-1.211s-2.266 0.643-3.17 1.211c-0.498 0.313-0.968 0.608-1.393 0.746-0.458 0.149-1.033 0.19-1.642 0.234-1.048 0.076-2.236 0.162-3.202 0.864-0.974 0.709-1.423 1.817-1.818 2.795-0.227 0.561-0.441 1.091-0.719 1.472-0.271 0.373-0.704 0.735-1.163 1.119-0.814 0.681-1.737 1.452-2.114 2.614-0.363 1.117-0.080 2.264 0.17 3.275 0.149 0.603 0.289 1.172 0.289 1.67s-0.14 1.068-0.289 1.67c-0.249 1.011-0.532 2.158-0.17 3.275 0.377 1.161 1.3 1.933 2.114 2.614 0.459 0.383 0.892 0.746 1.163 1.118 0.278 0.382 0.492 0.911 0.719 1.472 0.396 0.978 0.844 2.086 1.818 2.795 0.965 0.703 2.153 0.789 3.202 0.864 0.609 0.044 1.183 0.086 1.642 0.234 0.425 0.138 0.895 0.433 1.393 0.746 0.904 0.568 1.928 1.211 3.17 1.211s2.266-0.643 3.17-1.211c0.498-0.313 0.968-0.608 1.393-0.746 0.458-0.149 1.033-0.19 1.642-0.234 1.048-0.076 2.236-0.162 3.202-0.864 0.974-0.709 1.423-1.817 1.818-2.795 0.227-0.561 0.442-1.091 0.719-1.472 0.271-0.373 0.705-0.735 1.163-1.118 0.814-0.681 1.737-1.452 2.114-2.614 0.363-1.117 0.080-2.264-0.17-3.275-0.149-0.602-0.289-1.171-0.289-1.67zM28.736 18.19c0.198 0.8 0.384 1.556 0.213 2.084-0.184 0.567-0.795 1.078-1.442 1.619-0.539 0.451-1.097 0.917-1.526 1.507-0.434 0.597-0.71 1.277-0.976 1.934l-0 0.001c-0.314 0.777-0.611 1.51-1.083 1.854-0.464 0.337-1.249 0.394-2.080 0.454-0.711 0.051-1.446 0.105-2.156 0.335-0.681 0.221-1.29 0.603-1.878 0.972-0.719 0.452-1.398 0.878-2.015 0.878s-1.296-0.427-2.015-0.878c-0.588-0.369-1.196-0.751-1.878-0.972-0.709-0.23-1.444-0.283-2.155-0.335l-0.001-0c-0.832-0.060-1.617-0.117-2.080-0.454-0.472-0.344-0.769-1.077-1.083-1.854l-0-0.001c-0.266-0.658-0.541-1.337-0.976-1.934-0.429-0.589-0.987-1.056-1.526-1.507l-0.001-0.001c-0.646-0.541-1.257-1.051-1.441-1.618-0.171-0.528 0.015-1.284 0.213-2.084 0.173-0.702 0.352-1.428 0.352-2.19s-0.179-1.488-0.352-2.19c-0.197-0.8-0.384-1.556-0.213-2.084 0.184-0.567 0.795-1.078 1.442-1.619 0.539-0.451 1.097-0.917 1.526-1.507 0.434-0.597 0.71-1.277 0.976-1.934l0-0.001c0.314-0.777 0.611-1.51 1.083-1.854 0.463-0.337 1.249-0.394 2.080-0.454l0.001-0c0.711-0.051 1.446-0.105 2.155-0.335 0.681-0.221 1.289-0.603 1.878-0.972 0.719-0.452 1.398-0.878 2.015-0.878s1.296 0.427 2.015 0.878c0.588 0.369 1.196 0.751 1.878 0.972 0.709 0.23 1.444 0.283 2.155 0.335l0.001 0c0.832 0.060 1.617 0.117 2.080 0.454 0.472 0.344 0.769 1.077 1.083 1.854l0 0.001c0.266 0.658 0.541 1.337 0.976 1.934 0.429 0.589 0.986 1.056 1.526 1.507 0.647 0.541 1.258 1.052 1.442 1.619 0.171 0.528-0.015 1.284-0.213 2.084-0.173 0.702-0.352 1.428-0.352 2.19s0.179 1.488 0.352 2.19z"></path>
<path fill="#42a5f5" d="M28.736 18.19c0.198 0.8 0.384 1.556 0.213 2.084-0.184 0.567-0.795 1.078-1.442 1.619-0.539 0.451-1.097 0.917-1.526 1.507-0.434 0.597-0.71 1.277-0.976 1.934l-0 0.001c-0.314 0.777-0.611 1.51-1.083 1.854-0.464 0.337-1.249 0.394-2.080 0.454-0.711 0.051-1.446 0.105-2.156 0.335-0.681 0.221-1.29 0.603-1.878 0.972-0.719 0.452-1.398 0.878-2.015 0.878s-1.296-0.427-2.015-0.878c-0.588-0.369-1.196-0.751-1.878-0.972-0.709-0.23-1.444-0.283-2.155-0.335l-0.001-0c-0.832-0.060-1.617-0.117-2.080-0.454-0.472-0.344-0.769-1.077-1.083-1.854l-0-0.001c-0.266-0.658-0.541-1.337-0.976-1.934-0.429-0.589-0.987-1.056-1.526-1.507l-0.001-0.001c-0.646-0.541-1.257-1.051-1.441-1.618-0.171-0.528 0.015-1.284 0.213-2.084 0.173-0.702 0.352-1.428 0.352-2.19s-0.179-1.488-0.352-2.19c-0.197-0.8-0.384-1.556-0.213-2.084 0.184-0.567 0.795-1.078 1.442-1.619 0.539-0.451 1.097-0.917 1.526-1.507 0.434-0.597 0.71-1.277 0.976-1.934l0-0.001c0.314-0.777 0.611-1.51 1.083-1.854 0.463-0.337 1.249-0.394 2.080-0.454l0.001-0c0.711-0.051 1.446-0.105 2.155-0.335 0.681-0.221 1.289-0.603 1.878-0.972 0.719-0.452 1.398-0.878 2.015-0.878s1.296 0.427 2.015 0.878c0.588 0.369 1.196 0.751 1.878 0.972 0.709 0.23 1.444 0.283 2.155 0.335l0.001 0c0.832 0.060 1.617 0.117 2.080 0.454 0.472 0.344 0.769 1.077 1.083 1.854l0 0.001c0.266 0.658 0.541 1.337 0.976 1.934 0.429 0.589 0.986 1.056 1.526 1.507 0.647 0.541 1.258 1.052 1.442 1.619 0.171 0.528-0.015 1.284-0.213 2.084-0.173 0.702-0.352 1.428-0.352 2.19s0.179 1.488 0.352 2.19z"></path>
<path fill="#fff" d="M19.73 9.045c-0.348-0.197-0.79-0.075-0.986 0.273l-7.161 12.65c-0.197 0.348-0.074 0.79 0.273 0.986 0.113 0.064 0.235 0.094 0.356 0.094 0.252 0 0.497-0.132 0.631-0.367l7.161-12.65c0.197-0.348 0.075-0.79-0.273-0.986z"></path>
<path fill="#fff" d="M13.954 14.939c0.435-0.754 0.55-1.632 0.324-2.472s-0.765-1.542-1.519-1.977c-0.754-0.435-1.631-0.55-2.472-0.324s-1.542 0.765-1.977 1.519c-0.435 0.754-0.55 1.632-0.324 2.472s0.765 1.542 1.519 1.977c0.502 0.289 1.058 0.437 1.622 0.437 0.284 0 0.569-0.037 0.85-0.113 0.84-0.226 1.542-0.765 1.977-1.519zM10.228 14.88c-0.419-0.241-0.718-0.632-0.844-1.098s-0.061-0.955 0.18-1.373c0.241-0.419 0.632-0.718 1.098-0.844 0.156-0.042 0.315-0.063 0.472-0.063 0.313 0 0.622 0.082 0.901 0.243 0.419 0.242 0.718 0.632 0.844 1.098s0.061 0.955-0.18 1.373c-0.241 0.419-0.632 0.718-1.098 0.844s-0.954 0.061-1.373-0.18z"></path>
<path fill="#fff" d="M22.086 15.637c-0.754-0.435-1.632-0.55-2.472-0.324s-1.542 0.765-1.977 1.519c-0.435 0.754-0.55 1.632-0.324 2.472s0.765 1.542 1.519 1.977c0.502 0.289 1.058 0.437 1.622 0.437 0.284 0 0.569-0.037 0.85-0.113 0.84-0.226 1.542-0.765 1.977-1.519s0.55-1.632 0.324-2.472c-0.226-0.84-0.765-1.542-1.519-1.977zM22.026 19.363c-0.241 0.419-0.632 0.718-1.098 0.844s-0.955 0.061-1.373-0.18c-0.419-0.242-0.718-0.632-0.844-1.098s-0.061-0.955 0.18-1.373c0.241-0.419 0.631-0.718 1.098-0.844 0.156-0.042 0.315-0.063 0.472-0.063 0.313 0 0.622 0.082 0.901 0.243 0.419 0.241 0.718 0.632 0.844 1.098s0.061 0.954-0.18 1.373z"></path>
</svg>
