<!-- Generated by IcoMoon.io -->
<svg version="1.1" xmlns="http://www.w3.org/2000/svg" width="32" height="32" viewBox="0 0 32 32">
<title>icon-crown</title>
<path fill="#42a5f5" d="M30.741 12.003c0.005 0.088-0.002 0.178-0.024 0.267l-1.974 7.895c-0.1 0.398-0.456 0.677-0.866 0.68l-11.843 0.060c-0.002 0-0.003 0-0.005 0h-11.843c-0.412 0-0.771-0.281-0.871-0.68l-1.974-7.925c-0.023-0.091-0.029-0.184-0.024-0.274-0.764-0.241-1.319-0.955-1.319-1.797 0-1.039 0.845-1.884 1.884-1.884s1.884 0.845 1.884 1.884c0 0.585-0.268 1.109-0.688 1.454l2.471 2.49c0.625 0.629 1.491 0.99 2.378 0.99 1.048 0 2.048-0.498 2.678-1.332l4.061-5.381c-0.341-0.341-0.552-0.812-0.552-1.331 0-1.039 0.845-1.884 1.884-1.884s1.884 0.845 1.884 1.884c0 0.504-0.2 0.961-0.523 1.3 0.001 0.001 0.002 0.003 0.003 0.004l4.032 5.396c0.629 0.842 1.632 1.345 2.684 1.345 0.895 0 1.736-0.348 2.369-0.981l2.487-2.487c-0.429-0.346-0.704-0.874-0.704-1.466 0-1.039 0.845-1.884 1.884-1.884s1.884 0.845 1.884 1.884c0 0.82-0.527 1.517-1.259 1.775zM28.551 23.716c0-0.495-0.402-0.897-0.897-0.897h-23.207c-0.495 0-0.897 0.402-0.897 0.897v2.153c0 0.495 0.402 0.897 0.897 0.897h23.207c0.495 0 0.897-0.402 0.897-0.897v-2.153z"></path>
</svg>
