<!-- Generated by IcoMoon.io -->
<svg version="1.1" xmlns="http://www.w3.org/2000/svg" width="32" height="32" viewBox="0 0 32 32">
<title>icon-advantages</title>
<path fill="#42a5f5" d="M16 0c-6.399 0-11.605 5.206-11.605 11.605 0 3.064 1.183 5.955 3.332 8.139l0.171 0.173c0.896 0.943 1.56 2.065 1.95 3.292-0.46 0.3-0.765 0.819-0.765 1.409v1.665c0 0.875 0.671 1.595 1.526 1.674v1.117c0 1.614 1.313 2.927 2.927 2.927h4.932c1.614 0 2.927-1.313 2.927-2.927v-1.117c0.854-0.079 1.526-0.799 1.526-1.674v-1.665c0-0.589-0.305-1.108-0.765-1.409 0.389-1.223 1.049-2.341 1.941-3.282l0.18-0.183c2.149-2.184 3.332-5.074 3.332-8.139 0-6.399-5.206-11.605-11.605-11.605zM18.466 30.099h-4.932c-0.566 0-1.026-0.46-1.026-1.026v-1.109h6.983v1.109h0c0 0.565-0.46 1.026-1.026 1.026zM21.017 26.063h-10.034v-1.226h10.034v1.226zM22.972 18.356l-0.047 0.047c-1.273 1.268-2.188 2.823-2.675 4.533h-8.499c-0.487-1.71-1.402-3.265-2.675-4.533l-0.046-0.045c-1.764-1.82-2.735-4.215-2.735-6.753 0-5.351 4.353-9.704 9.704-9.704s9.704 4.353 9.704 9.704c0 2.537-0.97 4.931-2.733 6.751z"></path>
<path fill="#42a5f5" d="M16 8.648c-1.631 0-2.958 1.327-2.958 2.958s1.327 2.958 2.958 2.958c1.631 0 2.958-1.327 2.958-2.958s-1.327-2.958-2.958-2.958zM16 12.662c-0.583 0-1.057-0.474-1.057-1.057s0.474-1.057 1.057-1.057 1.057 0.474 1.057 1.057c0 0.583-0.474 1.057-1.057 1.057z"></path>
<path fill="#42a5f5" d="M23.751 12.556v-1.901h-1.699c-0.153-0.981-0.541-1.886-1.103-2.655l1.203-1.203-1.344-1.344-1.203 1.203c-0.769-0.562-1.674-0.949-2.655-1.103v-1.699h-1.901v1.699c-0.981 0.154-1.886 0.541-2.655 1.103l-1.203-1.203-1.344 1.344 1.203 1.203c-0.562 0.769-0.949 1.674-1.103 2.655h-1.699v1.901h1.699c0.153 0.981 0.541 1.886 1.103 2.655l-1.203 1.203 1.344 1.344 1.203-1.203c0.769 0.562 1.674 0.949 2.655 1.103v1.699h1.901v-1.699c0.981-0.153 1.886-0.541 2.655-1.103l1.203 1.203 1.344-1.344-1.203-1.203c0.562-0.769 0.949-1.674 1.103-2.655h1.699zM16 15.831c-2.33 0-4.225-1.896-4.225-4.225s1.896-4.225 4.225-4.225c2.33 0 4.225 1.895 4.225 4.225s-1.895 4.225-4.225 4.225z"></path>
</svg>
