<!-- Generated by IcoMoon.io -->
<svg version="1.1" xmlns="http://www.w3.org/2000/svg" width="34" height="32" viewBox="0 0 34 32">
<title>multy-control</title>
<path fill="#42a5f5" d="M2.619 4.032c0.758 0 1.372-0.62 1.372-1.386s-0.614-1.386-1.372-1.386c-0.758 0-1.372 0.62-1.372 1.386s0.614 1.386 1.372 1.386zM2.619 5.291c1.446 0 2.619-1.184 2.619-2.646s-1.173-2.646-2.619-2.646c-1.446 0-2.619 1.185-2.619 2.646s1.173 2.646 2.619 2.646zM24.941 14.11c0 0.024-0 0.049-0 0.073l0.998 0.016c0-0.030 0-0.060 0-0.090 0-6.123-4.913-11.087-10.974-11.087-2.896 0-5.53 1.133-7.491 2.984l-1.363-1.377-0.529 0.534 0.265 0.267 1.761 1.749 0.499-0.504c1.78-1.669 4.239-2.646 6.859-2.646 5.51 0 9.976 4.512 9.976 10.079zM24.861 15.394l0-0.001 0.055 0.001h2.941v0.756h-2.104c-0.403 2.187-1.441 4.148-2.914 5.681l-0.675-0.745c1.374-1.447 2.325-3.308 2.652-5.378l0.045-0.314zM12.003 23.737c0.936 0.293 1.931 0.452 2.962 0.452 2.208 0 4.666-0.747 6.306-2.298l2.079 2.242-0.546 0.517-1.428-1.54c-1.803 1.313-4.017 2.087-6.41 2.087-1.213 0-2.381-0.199-3.472-0.566l0.51-0.893zM10.322 24.159l0.501-0.877c-0.186-0.086-0.368-0.182-0.55-0.278-0.042-0.022-0.085-0.045-0.127-0.067-3.075-1.717-5.158-5.026-5.158-8.828 0-2.218 0.709-4.269 1.911-5.934l-0.748-0.673c-1.357 1.845-2.161 4.131-2.161 6.607 0 4.174 2.283 7.809 5.657 9.701l-1.010 1.766 0.648 0.378 1.029-1.8 0.008 0.004zM23.944 14.236c0 4.94-3.964 8.945-8.854 8.945s-8.854-4.005-8.854-8.945 3.964-8.945 8.854-8.945c4.89 0 8.854 4.005 8.854 8.945zM9.822 12.379c-0.223 0.619-0.345 1.287-0.345 1.983 0 3.201 2.568 5.795 5.736 5.795s5.736-2.595 5.736-5.795c0-3.201-2.568-5.795-5.736-5.795-0.925 0-1.798 0.221-2.571 0.613l4.505 4.164-2.862 3.16-4.463-4.126zM9.228 29.354c0 0.765-0.614 1.386-1.372 1.386s-1.372-0.62-1.372-1.386 0.614-1.386 1.372-1.386c0.758 0 1.372 0.62 1.372 1.386zM10.475 29.354c0 1.461-1.172 2.646-2.619 2.646s-2.619-1.184-2.619-2.646c0-1.461 1.172-2.646 2.619-2.646s2.619 1.184 2.619 2.646zM25.315 28.724c0.758 0 1.372-0.62 1.372-1.386s-0.614-1.386-1.372-1.386c-0.758 0-1.372 0.62-1.372 1.386s0.614 1.386 1.372 1.386zM25.315 29.984c1.446 0 2.619-1.184 2.619-2.646s-1.173-2.646-2.619-2.646-2.619 1.184-2.619 2.646c0 1.461 1.172 2.646 2.619 2.646zM32.673 14.236c0 0.765-0.614 1.386-1.372 1.386s-1.372-0.62-1.372-1.386 0.614-1.386 1.372-1.386c0.758 0 1.372 0.62 1.372 1.386zM33.92 14.236c0 1.461-1.172 2.646-2.619 2.646s-2.619-1.184-2.619-2.646c0-1.461 1.172-2.646 2.619-2.646s2.619 1.184 2.619 2.646z"></path>
</svg>
