<!-- Generated by IcoMoon.io -->
<svg version="1.1" xmlns="http://www.w3.org/2000/svg" width="29" height="32" viewBox="0 0 29 32">
<title>payment</title>
<path fill="#42a5f5" d="M20.58 21.62c-0.169 0-0.336 0.034-0.492 0.099 0 0-0.449 0.191-1.163 0.425-0.995 0.232-2.015 0.342-3.037 0.326-1.562-0.007-3.119-0.169-4.649-0.484-0.086-0.017-0.174-0.027-0.262-0.028-0.305 0.001-0.599 0.111-0.83 0.31-0.94 0.751-2.064 1.237-3.256 1.405-2.219 0.262-5.614 0.278-5.65 0.278-0.358 0.003-0.697 0.159-0.932 0.428s-0.344 0.627-0.299 0.981c0.138 1.071 0.348 2.133 0.627 3.176 0.079 0.254 0.237 0.477 0.451 0.634s0.474 0.243 0.74 0.243h0.103l6.483-0.552c2.743 0.429 5.614 2.406 5.642 2.426h0c0.209 0.147 0.459 0.226 0.715 0.226h0.131l8.58-0.905c0.215-0.018 0.422-0.094 0.599-0.218l4.038-2.72c0.369-0.25 0.576-0.678 0.544-1.123s-0.3-0.838-0.701-1.032c-0.401-0.194-0.875-0.159-1.244 0.091l-3.696 2.505c-6.908-0.425-8.23-1.926-8.472-2.382h0c-0.029-0.054-0.051-0.111-0.068-0.171 1.779-0.124 3.535-0.469 5.229-1.028 0.488-0.134 0.964-0.31 1.422-0.528 0.353-0.16 0.612-0.474 0.7-0.851s-0.004-0.774-0.249-1.074c-0.245-0.3-0.616-0.469-1.003-0.457h-0.001z"></path>
<path fill="none" stroke="#42a5f5" stroke-linejoin="miter" stroke-linecap="butt" stroke-miterlimit="4" stroke-width="1.3333" d="M26 10.333c0 5.339-4.328 9.667-9.667 9.667s-9.667-4.328-9.667-9.667c0-5.339 4.328-9.667 9.667-9.667s9.667 4.328 9.667 9.667z"></path>
<path fill="#42a5f5" d="M15.871 16.403v-1.068c-0.717-0.066-1.4-0.339-1.964-0.787s-0.986-1.051-1.212-1.735c-0.052-0.166-0.032-0.346 0.055-0.497s0.233-0.259 0.402-0.297l0.58-0.139c0.373-0.090 0.756 0.108 0.897 0.465 0.274 0.691 0.913 1.227 2.013 1.227 1.004 0 1.588-0.481 1.588-1.159 0-0.528-0.397-0.929-1.163-1.1l-1.421-0.31c-1.671-0.369-2.708-1.421-2.708-2.906 0-1.64 1.271-2.847 2.926-3.109v-1.112c-0-0.299 0.241-0.542 0.54-0.544h0.489c0.3 0 0.544 0.243 0.544 0.544v1.159c1.063 0.15 1.987 0.808 2.477 1.763 0.101 0.196 0.11 0.426 0.023 0.628s-0.26 0.355-0.472 0.416l-0.444 0.127c-0.365 0.107-0.754-0.059-0.929-0.397-0.153-0.272-0.38-0.495-0.655-0.643s-0.586-0.214-0.897-0.191c-0.989 0-1.533 0.572-1.533 1.191 0 0.48 0.341 0.882 1.068 1.036l1.409 0.326c1.949 0.433 2.831 1.588 2.831 2.982s-1.024 2.74-2.879 3.033v1.084l0-0c0 0.156-0.062 0.305-0.172 0.415s-0.26 0.172-0.415 0.172h-0.397c-0.318-0.002-0.575-0.258-0.58-0.576v0z"></path>
</svg>
