<!-- Generated by IcoMoon.io -->
<svg version="1.1" xmlns="http://www.w3.org/2000/svg" width="33" height="32" viewBox="0 0 33 32">
<title>personal-manager</title>
<path fill="#42a5f5" d="M7.732 22.381c-2.035 0-3.323-3.188-3.323-4.815 0-1.831 1.492-3.323 3.323-3.323s3.323 1.492 3.323 3.323c0 1.696-1.289 4.815-3.323 4.815zM7.732 15.599c-1.085 0-1.967 0.882-1.967 1.967 0 1.356 1.085 3.459 1.967 3.459s1.967-2.17 1.967-3.459c0-1.085-0.882-1.967-1.967-1.967z"></path>
<path fill="#42a5f5" d="M7.732 15.599c-1.085 0-1.967 0.882-1.967 1.967 0 1.356 1.085 3.459 1.967 3.459s1.967-2.17 1.967-3.459c0-1.085-0.882-1.967-1.967-1.967z"></path>
<path fill="#42a5f5" d="M7.732 31.877c-2.442 0-4.883-0.203-7.189-0.678l-0.542-0.136v-1.696c0-1.289 0.407-2.509 1.153-3.527 0.814-1.153 1.899-1.899 3.256-2.17 0.542-0.136 1.153 0.068 1.831 0.271 0.542 0.203 1.017 0.339 1.56 0.339 0.475 0 1.017-0.203 1.56-0.339 0.61-0.203 1.289-0.407 1.831-0.271 1.289 0.271 2.442 1.017 3.256 2.17 0.746 1.017 1.153 2.306 1.153 3.527v1.696l-0.543 0.136c-2.442 0.475-4.883 0.678-7.325 0.678zM1.357 29.978c4.137 0.746 8.614 0.746 12.75 0v-0.543c0-0.949-0.339-1.967-0.882-2.781-0.407-0.61-1.221-1.356-2.442-1.628-0.271-0.068-0.678 0.136-1.085 0.271-0.543 0.135-1.221 0.407-1.967 0.407s-1.356-0.203-1.967-0.407c-0.475-0.136-0.882-0.271-1.153-0.271-1.221 0.271-1.967 1.017-2.374 1.628-0.542 0.814-0.882 1.831-0.882 2.781l0 0.543z"></path>
<path fill="#42a5f5" d="M1.357 29.978c4.137 0.746 8.614 0.746 12.75 0v-0.543c0-0.949-0.339-1.967-0.882-2.781-0.407-0.61-1.221-1.356-2.442-1.628-0.271-0.068-0.678 0.136-1.085 0.271-0.543 0.135-1.221 0.407-1.967 0.407s-1.356-0.203-1.967-0.407c-0.475-0.136-0.882-0.271-1.153-0.271-1.221 0.271-1.967 1.017-2.374 1.628-0.542 0.814-0.882 1.831-0.882 2.781l0 0.543z"></path>
<path fill="#42a5f5" d="M24.145 8.139c-2.035 0-3.323-3.188-3.323-4.815 0-1.831 1.492-3.323 3.323-3.323s3.323 1.492 3.323 3.323c-0 1.696-1.289 4.815-3.323 4.815zM24.145 1.357c-1.085 0-1.967 0.882-1.967 1.967 0 1.356 1.085 3.459 1.967 3.459s1.967-2.17 1.967-3.459c0-1.085-0.882-1.967-1.967-1.967z"></path>
<path fill="#42a5f5" d="M24.145 1.357c-1.085 0-1.967 0.882-1.967 1.967 0 1.356 1.085 3.459 1.967 3.459s1.967-2.17 1.967-3.459c0-1.085-0.882-1.967-1.967-1.967z"></path>
<path fill="#42a5f5" d="M24.145 17.634c-2.442 0-4.883-0.203-7.189-0.678l-0.542-0.136v-1.696c0-1.289 0.407-2.51 1.153-3.527 0.814-1.153 1.967-1.899 3.255-2.17 0.542-0.136 1.153 0.068 1.831 0.271 0.543 0.203 1.017 0.339 1.56 0.339 0.475 0 1.017-0.204 1.56-0.339 0.61-0.204 1.289-0.407 1.831-0.271 1.289 0.271 2.442 1.017 3.255 2.17 0.746 1.017 1.153 2.306 1.153 3.527v1.696l-0.542 0.136c-2.441 0.475-4.883 0.678-7.325 0.678zM17.77 15.735c4.137 0.746 8.614 0.746 12.75 0v-0.542c0-0.95-0.339-1.967-0.882-2.781-0.407-0.61-1.221-1.356-2.442-1.628-0.271-0.068-0.678 0.136-1.153 0.271-0.61 0.204-1.289 0.407-1.967 0.407-0.746 0-1.356-0.203-1.967-0.407-0.475-0.136-0.882-0.339-1.085-0.271-1.221 0.271-1.967 1.017-2.442 1.628-0.543 0.814-0.882 1.831-0.882 2.781v0.542h0.068z"></path>
<path fill="#42a5f5" d="M17.77 15.735c4.137 0.746 8.614 0.746 12.75 0v-0.542c0-0.95-0.339-1.967-0.882-2.781-0.407-0.61-1.221-1.356-2.442-1.628-0.271-0.068-0.678 0.136-1.153 0.271-0.61 0.204-1.289 0.407-1.967 0.407-0.746 0-1.356-0.203-1.967-0.407-0.475-0.136-0.882-0.339-1.085-0.271-1.221 0.271-1.967 1.017-2.442 1.628-0.543 0.814-0.882 1.831-0.882 2.781v0.542h0.068z"></path>
<path fill="#42a5f5" d="M27.536 27.468h-4.001v-1.356h2.645v-6.782h1.356v8.139z"></path>
<path fill="#42a5f5" d="M23.874 29.232v-4.883l-2.442 2.442 2.442 2.442z"></path>
<path fill="#42a5f5" d="M4.68 11.53h-1.356v-6.104h6.036v1.356h-4.68l0 4.748z"></path>
<path fill="#42a5f5" d="M9.021 8.545v-4.883l2.442 2.442-2.442 2.442z"></path>
</svg>
