<!-- Generated by IcoMoon.io -->
<svg version="1.1" xmlns="http://www.w3.org/2000/svg" width="23" height="32" viewBox="0 0 23 32">
<title>revenue-share</title>
<path fill="#42a5f5" stroke="#42a5f5" stroke-linejoin="miter" stroke-linecap="butt" stroke-miterlimit="4" stroke-width="0.9412" d="M7.95 0.528l0.002 0c1.075 0.232 2.257 0.357 3.508 0.357 1.247 0 2.424-0.124 3.509-0.383 1.068-0.211 2.019 0.641 1.899 1.682-0.004 0.022-0.006 0.040-0.007 0.046-0 0.001-0 0.001-0 0.002l-0.004 0.033-0.005 0.037c-0.007 0.053-0.017 0.124-0.033 0.213-0.032 0.179-0.089 0.435-0.194 0.753-0.198 0.598-0.568 1.423-1.272 2.376h-7.841c-1.19-1.452-1.45-3.215-1.483-3.442-0-0.003-0.001-0.006-0.001-0.009-0.126-1.019 0.852-1.901 1.923-1.665z"></path>
<path fill="#42a5f5" stroke="#42a5f5" stroke-linejoin="miter" stroke-linecap="butt" stroke-miterlimit="4" stroke-width="0.9412" d="M8.651 24.543l0.001 0.001c0.392 0.416 0.864 0.733 1.38 0.941v0.341c0 0.799 0.647 1.446 1.446 1.446s1.446-0.647 1.446-1.446v-0.34c1.425-0.571 2.432-1.965 2.439-3.593v-0.002c0-2.141-1.738-3.879-3.879-3.879-0.542 0-0.986-0.444-0.986-0.986s0.444-0.986 0.986-0.986c0.28 0 0.534 0.112 0.722 0.313v0l0.003 0.003c0.553 0.581 1.465 0.598 2.042 0.058h0l0.003-0.003c0.581-0.553 0.598-1.465 0.058-2.042l-0.001-0.001c-0.392-0.416-0.864-0.733-1.38-0.941v-0.341c0-0.799-0.647-1.446-1.446-1.446s-1.446 0.647-1.446 1.446v0.341c-1.424 0.576-2.433 1.97-2.433 3.6 0 2.141 1.738 3.879 3.879 3.879 0.542 0 0.986 0.444 0.986 0.986s-0.444 0.986-0.986 0.986c-0.28 0-0.534-0.112-0.722-0.313l-0-0c-0.553-0.591-1.467-0.608-2.045-0.067l-0 0c-0.591 0.553-0.608 1.467-0.067 2.045zM7.109 7.94h8.688c1.787 1.413 3.324 3.582 4.426 6.044 1.126 2.516 1.78 5.301 1.793 7.826-0 3.412-1.183 5.671-3.040 7.093-1.879 1.438-4.514 2.070-7.497 2.070-2.985 0-5.62-0.624-7.498-2.058-1.856-1.418-3.040-3.677-3.040-7.105 0-2.525 0.648-5.31 1.768-7.826 1.095-2.461 2.626-4.631 4.4-6.043z"></path>
</svg>
