<!-- Generated by IcoMoon.io -->
<svg version="1.1" xmlns="http://www.w3.org/2000/svg" width="32" height="32" viewBox="0 0 32 32">
<title>step-1</title>
<path fill="none" stroke="#f9faff" stroke-linejoin="miter" stroke-linecap="butt" stroke-miterlimit="4" stroke-width="2.0105" d="M27.56 15.977c0 6.338-5.138 11.476-11.476 11.476s-11.476-5.138-11.476-11.476c0-6.338 5.138-11.476 11.476-11.476s11.476 5.138 11.476 11.476zM5.415 15.977c0 5.892 4.777 10.669 10.669 10.669s10.669-4.777 10.669-10.669c0-5.892-4.777-10.669-10.669-10.669s-10.669 4.777-10.669 10.669z"></path>
<path fill="none" stroke="#4cd7ab" stroke-linejoin="miter" stroke-linecap="butt" stroke-miterlimit="4" stroke-width="2.0105" d="M22.643 25.394c-1.329 0.926-2.839 1.56-4.43 1.86s-3.229 0.261-4.804-0.117-3.052-1.084-4.335-2.073c-1.282-0.989-2.341-2.239-3.106-3.666s-1.219-3.001-1.333-4.617c-0.114-1.616 0.116-3.237 0.674-4.758s1.431-2.906 2.563-4.064c1.132-1.159 2.496-2.065 4.002-2.659l0.296 0.751c-1.401 0.552-2.669 1.395-3.721 2.472s-1.864 2.365-2.383 3.778c-0.519 1.413-0.732 2.921-0.627 4.423s0.528 2.965 1.239 4.292c0.711 1.327 1.695 2.489 2.887 3.408s2.566 1.576 4.030 1.927 2.986 0.388 4.466 0.109c1.48-0.279 2.883-0.869 4.119-1.729l0.462 0.663z"></path>
<path fill="#42a5f5" d="M19.668 11.111h-1.803v-0.837c0-0.227-0.184-0.412-0.412-0.412h-2.595c-0.227 0-0.412 0.184-0.412 0.412v0.837h-1.803c-0.227 0-0.412 0.184-0.412 0.412v10.325c0 0.228 0.184 0.412 0.412 0.412h7.026c0.228 0 0.412-0.184 0.412-0.412v-10.325c0-0.227-0.184-0.412-0.412-0.412zM15.27 10.685h1.771v1.4h-1.771v-1.4zM19.256 21.435h-6.202v-9.501h1.392v0.563c0 0.227 0.184 0.412 0.412 0.412h2.595c0.228 0 0.412-0.184 0.412-0.412v-0.563h1.391v9.501z"></path>
<path fill="#42a5f5" d="M14.898 18.502h2.515c0.152 0 0.275-0.123 0.275-0.275v-0.622c0-0.52-0.261-0.98-0.658-1.257 0.397-0.277 0.658-0.737 0.658-1.257 0-0.845-0.687-1.532-1.532-1.532s-1.532 0.687-1.532 1.532c0 0.52 0.261 0.98 0.658 1.257-0.397 0.277-0.658 0.737-0.658 1.257v0.622c0 0.152 0.123 0.275 0.275 0.275zM15.172 15.090c0-0.542 0.441-0.983 0.983-0.983s0.983 0.441 0.983 0.983c0 0.542-0.441 0.983-0.983 0.983s-0.983-0.441-0.983-0.983zM15.172 17.605c0-0.542 0.441-0.983 0.983-0.983s0.983 0.441 0.983 0.983v0.347h-1.965v-0.347z"></path>
<path fill="#42a5f5" d="M14.405 19.019c-0.152 0-0.275 0.123-0.275 0.275s0.123 0.275 0.275 0.275h3.501c0.152 0 0.275-0.123 0.275-0.275s-0.123-0.275-0.275-0.275h-3.501z"></path>
<path fill="#42a5f5" d="M17.906 20.049h-3.501c-0.152 0-0.275 0.123-0.275 0.275s0.123 0.275 0.275 0.275h3.501c0.152 0 0.275-0.123 0.275-0.275s-0.123-0.275-0.275-0.275z"></path>
</svg>
