<!-- Generated by IcoMoon.io -->
<svg version="1.1" xmlns="http://www.w3.org/2000/svg" width="32" height="32" viewBox="0 0 32 32">
<title>step-3</title>
<path fill="none" stroke="#4cd7ab" stroke-linejoin="miter" stroke-linecap="butt" stroke-miterlimit="4" stroke-width="1.1679" d="M31.533 16c0 8.514-6.902 15.416-15.416 15.416s-15.416-6.902-15.416-15.416c0-8.514 6.902-15.416 15.416-15.416s15.416 6.902 15.416 15.416z"></path>
<path fill="#42a5f5" d="M15.822 11.102c0 1.689-1.373 3.059-3.068 3.059s-3.068-1.369-3.068-3.059c0-1.689 1.373-3.059 3.068-3.059s3.068 1.369 3.068 3.059zM16.392 11.102c0 2.003-1.629 3.628-3.639 3.628s-3.639-1.624-3.639-3.628c0-2.004 1.629-3.628 3.639-3.628s3.639 1.624 3.639 3.628zM8.078 15.118c0.494-0.492 1.295-0.492 1.789 0l2.155 2.149c0.152 0.151 0.358 0.236 0.572 0.236h2.656c0.197 0 0.357-0.159 0.357-0.356s-0.16-0.356-0.357-0.356h-2.069c-0.552 0-0.999-0.446-0.999-0.996s0.447-0.996 0.999-0.996h3.853c0.095 0 0.185 0.037 0.252 0.104l4.421 4.408 0.854-0.851c0.139-0.139 0.365-0.139 0.504 0l1.356 1.351c0.139 0.139 0.139 0.364 0 0.503l-4.352 4.339c-0.139 0.139-0.365 0.139-0.504 0l-1.355-1.351c-0.139-0.139-0.139-0.364 0-0.503l0.782-0.78-0.874-0.871c-0.468-0.467-1.103-0.729-1.766-0.729h-4.597c-0.095 0-0.185-0.038-0.252-0.104l-3.424-3.414c-0.494-0.492-0.494-1.291 0-1.783zM9.363 15.621c-0.215-0.215-0.564-0.215-0.78 0s-0.215 0.563 0 0.777l3.32 3.31h4.449c0.851 0 1.668 0.337 2.27 0.938l0.773 0.77 0.964-0.901 0.8-0.745-4.272-4.259h-3.705c-0.158 0-0.285 0.127-0.285 0.285s0.128 0.285 0.285 0.285h2.069c0.591 0 1.070 0.478 1.070 1.067s-0.479 1.067-1.070 1.067h-2.656c-0.404 0-0.791-0.16-1.077-0.445l-2.155-2.149zM22.813 19.216l-3.847 3.836 0.851 0.849 3.847-3.836-0.851-0.849zM12.825 12.738c0.946 0 1.712-0.764 1.712-1.707s-0.767-1.707-1.712-1.707c-0.946 0-1.712 0.764-1.712 1.707s0.767 1.707 1.712 1.707zM12.825 13.165c1.182 0 2.14-0.955 2.14-2.134s-0.958-2.134-2.14-2.134c-1.182 0-2.14 0.955-2.14 2.134s0.958 2.134 2.14 2.134zM12.87 10.261v-0.226h-0.158v0.223c-0.066 0.007-0.126 0.023-0.179 0.049-0.070 0.034-0.125 0.083-0.165 0.147s-0.060 0.139-0.060 0.225c0 0.091 0.019 0.166 0.056 0.225s0.089 0.108 0.155 0.148c0.067 0.039 0.144 0.076 0.232 0.111 0.052 0.020 0.093 0.041 0.123 0.063s0.053 0.046 0.067 0.074c0.014 0.028 0.021 0.062 0.021 0.102 0 0.036-0.007 0.068-0.022 0.096s-0.035 0.050-0.064 0.066c-0.028 0.016-0.063 0.024-0.106 0.024-0.028 0-0.055-0.004-0.082-0.013s-0.051-0.022-0.073-0.042c-0.021-0.020-0.038-0.047-0.051-0.081s-0.019-0.077-0.019-0.128h-0.291c0 0.094 0.015 0.172 0.044 0.237s0.069 0.114 0.119 0.153 0.105 0.066 0.167 0.084c0.036 0.010 0.072 0.017 0.108 0.021v0.207h0.158v-0.207c0.063-0.007 0.12-0.022 0.172-0.045 0.073-0.034 0.129-0.082 0.17-0.145s0.061-0.14 0.061-0.23c0-0.091-0.019-0.165-0.056-0.224s-0.089-0.108-0.155-0.149c-0.066-0.040-0.143-0.078-0.23-0.113-0.054-0.023-0.096-0.045-0.127-0.067s-0.053-0.047-0.066-0.073c-0.012-0.027-0.018-0.058-0.018-0.093s0.006-0.068 0.017-0.096c0.012-0.029 0.031-0.051 0.058-0.068s0.060-0.025 0.101-0.025c0.028 0 0.053 0.006 0.076 0.017s0.042 0.027 0.059 0.048c0.017 0.022 0.030 0.049 0.038 0.081s0.013 0.069 0.013 0.111h0.29c0-0.078-0.011-0.148-0.033-0.208s-0.054-0.112-0.096-0.154c-0.042-0.043-0.092-0.075-0.15-0.096-0.033-0.013-0.067-0.022-0.104-0.027z"></path>
</svg>
