<!-- Generated by IcoMoon.io -->
<svg version="1.1" xmlns="http://www.w3.org/2000/svg" width="32" height="32" viewBox="0 0 32 32">
<title>step-2</title>
<path fill="none" stroke="#000" stroke-linejoin="miter" stroke-linecap="butt" stroke-miterlimit="4" stroke-width="1.8686" d="M32.117 16c0 8.837-7.163 16-16 16s-16-7.163-16-16c0-8.837 7.163-16 16-16s16 7.163 16 16zM1.077 16c0 8.306 6.734 15.040 15.040 15.040s15.040-6.734 15.040-15.040c0-8.306-6.734-15.040-15.040-15.040s-15.040 6.734-15.040 15.040z"></path>
<path fill="none" stroke="#4cd7ab" stroke-linejoin="miter" stroke-linecap="butt" stroke-miterlimit="4" stroke-width="1.8686" d="M32.117 16c0 3.333-1.041 6.582-2.977 9.295s-4.671 4.753-7.823 5.836c-3.152 1.083-6.563 1.155-9.758 0.206s-6.013-2.873-8.062-5.501c-2.049-2.629-3.226-5.831-3.366-9.161s0.762-6.62 2.582-9.412c1.82-2.792 4.467-4.946 7.57-6.161s6.509-1.431 9.741-0.617l-0.235 0.931c-3.038-0.765-6.239-0.562-9.156 0.58s-5.405 3.167-7.116 5.791c-1.711 2.624-2.56 5.717-2.427 8.847s1.238 6.141 3.164 8.611c1.926 2.471 4.575 4.279 7.578 5.171s6.21 0.825 9.172-0.193c2.963-1.018 5.533-2.936 7.353-5.486s2.798-5.604 2.798-8.737h0.96z"></path>
<path fill="#42a5f5" d="M19.796 10.522c0 0.783-0.637 1.42-1.42 1.42s-1.42-0.637-1.42-1.42c0-0.783 0.637-1.42 1.42-1.42s1.42 0.637 1.42 1.42zM19.117 10.522c0-0.409-0.332-0.741-0.741-0.741s-0.741 0.332-0.741 0.741c0 0.409 0.332 0.741 0.741 0.741s0.741-0.332 0.741-0.741zM15.774 15.223c0-1.435 1.167-2.603 2.603-2.603s2.602 1.168 2.602 2.602c0 0.187-0.152 0.339-0.339 0.339h-4.526c-0.187 0-0.339-0.152-0.339-0.339zM18.376 13.299c-0.945 0-1.733 0.685-1.894 1.584h3.787c-0.161-0.899-0.949-1.584-1.894-1.584zM12.602 11.594c0-0.258 0.209-0.467 0.467-0.467h2.4c0.258 0 0.467 0.209 0.467 0.467s-0.209 0.467-0.467 0.467h-1.933v5.665h6.040c0.124 0 0.243 0.049 0.33 0.137l1.464 1.464v-1.134c0-0.258 0.209-0.467 0.467-0.467h1.887v-5.665h-3.040c-0.258 0-0.467-0.209-0.467-0.467s0.209-0.467 0.467-0.467h3.507c0.258 0 0.467 0.209 0.467 0.467v6.599c0 0.258-0.209 0.467-0.467 0.467h-1.887v1.794c0 0.189-0.114 0.359-0.288 0.432s-0.375 0.032-0.509-0.101l-2.125-2.125h-1.913c0.023 0.055 0.035 0.116 0.035 0.179v1.108c0 0.258-0.209 0.467-0.467 0.467h-5.298l-2.263 2.263c-0.134 0.134-0.335 0.174-0.509 0.101s-0.288-0.243-0.288-0.432v-1.933h-2.256c-0.258 0-0.467-0.209-0.467-0.467v-7.292c0-0.258 0.209-0.467 0.467-0.467h5.4c0.258 0 0.467 0.209 0.467 0.467s-0.209 0.467-0.467 0.467h-4.932v6.357h2.256c0.258 0 0.467 0.209 0.467 0.467v1.272l1.602-1.602c0.088-0.088 0.206-0.137 0.33-0.137h5.025v-0.64c0-0.063 0.013-0.124 0.035-0.179h-3.537c-0.258 0-0.467-0.209-0.467-0.467v-6.599z"></path>
</svg>
