<!-- Generated by IcoMoon.io -->
<svg version="1.1" xmlns="http://www.w3.org/2000/svg" width="39" height="32" viewBox="0 0 39 32">
<title>support</title>
<path fill="#42a5f5" d="M19.103 3.368c-6.52 0-11.789 5.269-11.789 11.789s5.269 11.789 11.789 11.789c6.52 0 11.789-5.269 11.789-11.789s-5.269-11.789-11.789-11.789zM19.103 4.374c0.582 0 1.15 0.048 1.708 0.135l-1.087 1.896-4.143 1.978-1.641 1.15-4.86 1.631c1.583-3.984 5.466-6.79 10.023-6.79zM25.936 23.507c-1.857 1.521-4.239 2.435-6.838 2.435-5.967 0-10.779-4.812-10.779-10.784 0-0.962 0.125-1.896 0.361-2.781l5.726-1.92 1.694-1.184 4.35-2.084 1.41-2.464c0.688 0.178 1.347 0.428 1.968 0.731v1.747l-1.189 1.857v2.353l-1.694 3.859 1.458 1.949h3.532v6.285zM26.961 22.554v-6.352h-4.042l-0.794-1.063 1.54-3.508v-2.271l1.189-1.853v-1.482c3.027 1.906 5.033 5.279 5.033 9.133 0 2.868-1.112 5.466-2.926 7.396z"></path>
<path fill="#42a5f5" d="M26.961 22.554v-6.352h-4.042l-0.794-1.063 1.54-3.508v-2.271l1.189-1.853v-1.482c3.027 1.906 5.033 5.279 5.033 9.133 0 2.868-1.112 5.466-2.926 7.396z"></path>
<path fill="#42a5f5" d="M19.103 4.374c0.582 0 1.15 0.048 1.708 0.135l-1.087 1.896-4.143 1.978-1.641 1.15-4.86 1.631c1.583-3.984 5.466-6.79 10.023-6.79z"></path>
<path fill="#42a5f5" d="M13.733 13.7l-2.011 1.91v1.651l1.838 3.176 1.059 3.802 3.744-0.823 0.703-2.411 1.049-1.444v-2.541l-2.223-0.467-4.158-2.853zM19.098 19.234h-0.005l-0.958 1.314-0.582 2.002-2.209 0.486-0.837-2.998-1.766-3.051v-0.938l1.097-1.039 3.648 2.502 1.612 0.337v1.386z"></path>
<path fill="#42a5f5" d="M19.098 19.234h-0.005l-0.958 1.314-0.582 2.002-2.209 0.486-0.837-2.998-1.766-3.051v-0.938l1.097-1.039 3.648 2.502 1.612 0.337v1.386z"></path>
<path fill="#42a5f5" d="M18.682 29.468c0.003-1.16 0.945-2.099 2.105-2.099 1.163 0 2.105 0.943 2.105 2.105s-0.943 2.105-2.105 2.105c-0.876 0-1.628-0.536-1.945-1.297-0.050 0.020-0.104 0.030-0.162 0.029-6.929-0.189-12.697-5.029-14.295-11.51h-0.149c-2.34 0-4.236-1.897-4.236-4.236s1.897-4.236 4.236-4.236h0.495c2.017-6.003 7.689-10.327 14.372-10.327 6.441 0 11.944 4.018 14.139 9.684h0.566c2.429 0 4.397 1.969 4.397 4.397 0 2.285-1.75 4.189-4.027 4.382l-0.54 0.046c-0.037 0.011-0.075 0.017-0.115 0.017-0.017 0-0.034-0.001-0.050-0.003l-0.019 0.002-0-0.004c-0.22-0.039-0.371-0.257-0.324-0.485 0.19-0.93 0.289-1.892 0.289-2.877 0-7.906-6.409-14.316-14.316-14.316s-14.316 6.409-14.316 14.316c0 7.765 6.183 14.086 13.894 14.31 0 0 0.001 0 0.001 0zM34.023 17.632l0.085-0.007c1.841-0.156 3.256-1.695 3.256-3.543 0-1.964-1.592-3.555-3.555-3.555h-0.268c0.468 1.46 0.721 3.016 0.721 4.632 0 0.842-0.093 1.669-0.238 2.474zM4.475 11.169h-0.239c-1.875 0-3.394 1.52-3.394 3.394 0 1.863 1.502 3.376 3.361 3.394-0.169-0.907-0.258-1.843-0.258-2.8 0-1.38 0.185-2.718 0.53-3.988zM20.787 28.211c-0.698 0-1.263 0.566-1.263 1.263s0.566 1.263 1.263 1.263c0.698 0 1.263-0.566 1.263-1.263s-0.566-1.263-1.263-1.263z"></path>
</svg>
