<!-- Generated by IcoMoon.io -->
<svg version="1.1" xmlns="http://www.w3.org/2000/svg" width="39" height="32" viewBox="0 0 39 32">
<title>track-performance</title>
<path fill="#42a5f5" d="M23.489 18.872c0-0.572-0.053-1.155-0.162-1.739l2.929-2.491-2.78-4.661-3.696 1.209c-0.933-0.76-1.997-1.359-3.12-1.756l-0.762-3.69h-5.543l-0.762 3.688c-1.135 0.398-2.18 0.988-3.121 1.756l-3.694-1.208-2.78 4.661 2.929 2.491c-0.109 0.584-0.162 1.168-0.162 1.739s0.054 1.155 0.162 1.739l-2.929 2.491 2.78 4.661 3.696-1.209c0.933 0.76 1.997 1.359 3.12 1.756l0.762 3.69h5.543l0.762-3.688c1.133-0.398 2.18-0.988 3.121-1.756l3.694 1.209 2.78-4.661-2.929-2.491c0.109-0.585 0.162-1.169 0.162-1.741zM13.128 24.277c-3.038 0-5.509-2.425-5.509-5.406s2.471-5.406 5.509-5.406c3.038 0 5.509 2.425 5.509 5.406s-2.471 5.406-5.509 5.406z"></path>
<path fill="#fff" stroke="#42a5f5" stroke-linejoin="miter" stroke-linecap="butt" stroke-miterlimit="4" stroke-width="1.641" d="M37.744 12.308c0 6.344-5.143 11.487-11.487 11.487s-11.487-5.143-11.487-11.487c0-6.344 5.143-11.487 11.487-11.487s11.487 5.143 11.487 11.487z"></path>
<path fill="#42a5f5" d="M26.126 3.282c-4.905 0-8.895 3.99-8.895 8.895s3.99 8.895 8.895 8.895 8.895-3.99 8.895-8.895c0-4.905-3.99-8.895-8.895-8.895zM26.126 20.041c-4.336 0-7.864-3.528-7.864-7.864s3.528-7.864 7.864-7.864 7.864 3.528 7.864 7.864c0 4.336-3.528 7.864-7.864 7.864z"></path>
<path fill="#42a5f5" d="M26.126 20.041c-4.336 0-7.864-3.528-7.864-7.864s3.528-7.864 7.864-7.864 7.864 3.528 7.864 7.864c0 4.336-3.528 7.864-7.864 7.864z"></path>
<path fill="#fff" d="M26.126 7.601c-0.427 0-0.774 0.346-0.774 0.774v3.029h-0.877c-0.427 0-0.774 0.346-0.774 0.774s0.346 0.774 0.774 0.774h1.65c0.427 0 0.774-0.346 0.774-0.774v-3.803c0-0.427-0.346-0.774-0.774-0.774z"></path>
<path fill="#fff" d="M20.327 11.661h-1.088c-0.285 0-0.516 0.231-0.516 0.516s0.231 0.516 0.516 0.516h1.088c0.285 0 0.516-0.231 0.516-0.516s-0.231-0.516-0.516-0.516z"></path>
<path fill="#fff" d="M26.126 6.894c0.285 0 0.516-0.231 0.516-0.516v-1.088c0-0.285-0.231-0.516-0.516-0.516s-0.516 0.231-0.516 0.516v1.088c0 0.285 0.231 0.516 0.516 0.516z"></path>
<path fill="#fff" d="M26.126 17.461c-0.285 0-0.516 0.231-0.516 0.516v1.088c0 0.285 0.231 0.516 0.516 0.516s0.516-0.231 0.516-0.516v-1.088c0-0.285-0.231-0.516-0.516-0.516z"></path>
</svg>
