<!-- Generated by IcoMoon.io -->
<svg version="1.1" xmlns="http://www.w3.org/2000/svg" width="28" height="32" viewBox="0 0 28 32">
<title>trading-chart</title>
<path fill="none" stroke="#42a5f5" stroke-linejoin="miter" stroke-linecap="butt" stroke-miterlimit="4" stroke-width="0.9412" d="M1.412 19.294v11.765h26.353"></path>
<path fill="#42a5f5" stroke="#42a5f5" stroke-linejoin="miter" stroke-linecap="butt" stroke-miterlimit="4" stroke-width="0.9412" d="M5.176 14.118h2.824v10.353h-2.824v-10.353z"></path>
<path fill="none" stroke="#42a5f5" stroke-linejoin="miter" stroke-linecap="butt" stroke-miterlimit="4" stroke-width="0.9412" d="M6.588 14.118v-3.294M6.588 24.941v3.294"></path>
<path fill="#42a5f5" stroke="#42a5f5" stroke-linejoin="miter" stroke-linecap="butt" stroke-miterlimit="4" stroke-width="0.9412" d="M10.824 9.412h2.824v10.353h-2.824v-10.353z"></path>
<path fill="none" stroke="#42a5f5" stroke-linejoin="miter" stroke-linecap="butt" stroke-miterlimit="4" stroke-width="0.9412" d="M12.235 19.765v5.176M12.235 8.941v-2.824"></path>
<path fill="#42a5f5" stroke="#42a5f5" stroke-linejoin="miter" stroke-linecap="butt" stroke-miterlimit="4" stroke-width="0.9412" d="M16.471 13.176h2.824v10.353h-2.824v-10.353z"></path>
<path fill="none" stroke="#42a5f5" stroke-linejoin="miter" stroke-linecap="butt" stroke-miterlimit="4" stroke-width="0.9412" d="M17.882 23.529v2.824M17.882 13.176v-3.294"></path>
<path fill="#42a5f5" stroke="#42a5f5" stroke-linejoin="miter" stroke-linecap="butt" stroke-miterlimit="4" stroke-width="0.9412" d="M22.118 11.294h2.824v4.706h-2.824v-4.706z"></path>
<path fill="none" stroke="#42a5f5" stroke-linejoin="miter" stroke-linecap="butt" stroke-miterlimit="4" stroke-width="0.9412" d="M23.529 8.471v2.824M23.529 16.201v5.916"></path>
<path fill="#42a5f5" d="M12.706 2.824l0.333-0.333-0.333-0.333-0.333 0.333 0.333 0.333zM16 6.118l-0.333 0.333 0.333 0.333 0.333-0.333-0.333-0.333zM21.647 0.941c0-0.26-0.211-0.471-0.471-0.471h-4.235c-0.26 0-0.471 0.211-0.471 0.471s0.211 0.471 0.471 0.471h3.765v3.765c0 0.26 0.211 0.471 0.471 0.471s0.471-0.211 0.471-0.471v-4.235zM0.803 15.392l12.235-12.235-0.666-0.665-12.235 12.235 0.665 0.666zM12.373 3.156l3.294 3.294 0.666-0.665-3.294-3.294-0.666 0.665zM16.333 6.45l5.176-5.176-0.666-0.665-5.176 5.176 0.666 0.665z"></path>
</svg>
