<!-- Generated by IcoMoon.io -->
<svg version="1.1" xmlns="http://www.w3.org/2000/svg" width="30" height="32" viewBox="0 0 30 32">
<title>trusted-brand</title>
<path fill="#42a5f5" d="M28.611 0.774c-0.074-0.311-0.292-0.568-0.586-0.693s-0.63-0.103-0.906 0.059c-3.615 2.126-8.106 2.126-11.72 0-0.315-0.186-0.707-0.186-1.023 0-3.615 2.126-8.106 2.126-11.72 0-0.276-0.162-0.612-0.184-0.906-0.059s-0.512 0.382-0.586 0.693c-2.6 10.863 1.479 22.232 10.392 28.965l2.724 2.058c0.18 0.136 0.394 0.204 0.608 0.204s0.428-0.068 0.608-0.204l2.724-2.058c8.913-6.733 12.992-18.102 10.392-28.965zM17.004 28.129l-2.116 1.599-2.116-1.599c-7.926-5.987-11.733-15.925-9.917-25.614 3.83 1.757 8.287 1.64 12.033-0.351 3.746 1.991 8.204 2.108 12.033 0.351 1.816 9.69-1.991 19.627-9.917 25.614z"></path>
<path fill="#42a5f5" d="M25.589 4.783c-0.162-0.115-0.367-0.152-0.558-0.102-1.23 0.32-2.5 0.483-3.772 0.483-2.081 0-4.19-0.449-6.098-1.297-0.174-0.077-0.372-0.077-0.546 0-1.908 0.849-4.017 1.297-6.098 1.297-1.273 0-2.542-0.162-3.772-0.483-0.192-0.050-0.396-0.013-0.558 0.102s-0.265 0.295-0.281 0.493c-0.327 3.949 0.313 7.967 1.853 11.621 1.684 3.996 4.403 7.491 7.865 10.106l0.86 0.65c0.12 0.091 0.263 0.136 0.405 0.136s0.285-0.045 0.405-0.136l0.86-0.65c3.462-2.615 6.182-6.11 7.865-10.106 1.539-3.654 2.18-7.672 1.853-11.621-0.016-0.198-0.119-0.378-0.281-0.493zM22.779 16.375c-1.592 3.778-4.163 7.082-7.437 9.555l-0.455 0.344-0.455-0.344c-3.273-2.473-5.845-5.777-7.437-9.555-1.354-3.215-1.973-6.728-1.803-10.209 1.092 0.227 2.206 0.342 3.323 0.342 2.169 0 4.365-0.447 6.371-1.295 2.006 0.848 4.202 1.295 6.371 1.295 1.117 0 2.231-0.115 3.323-0.342 0.17 3.481-0.449 6.994-1.803 10.208z"></path>
<path fill="#42a5f5" d="M22.779 16.375c-1.592 3.778-4.163 7.082-7.437 9.555l-0.455 0.344-0.455-0.344c-3.273-2.473-5.845-5.777-7.437-9.555-1.354-3.215-1.973-6.728-1.803-10.209 1.092 0.227 2.206 0.342 3.323 0.342 2.169 0 4.365-0.447 6.371-1.295 2.006 0.848 4.202 1.295 6.371 1.295 1.117 0 2.231-0.115 3.323-0.342 0.17 3.481-0.449 6.994-1.803 10.208z"></path>
<path fill="none" stroke="#fff" stroke-linejoin="miter" stroke-linecap="round" stroke-miterlimit="4" stroke-width="1.561" d="M11.707 15.523l2.649 2.428 4.375-5.073"></path>
</svg>
