<!-- Generated by IcoMoon.io -->
<svg version="1.1" xmlns="http://www.w3.org/2000/svg" width="47" height="32" viewBox="0 0 47 32">
<title>users</title>
<path fill="#2196f3" stroke="#2196f3" stroke-linejoin="miter" stroke-linecap="butt" stroke-miterlimit="4" stroke-width="1.28" d="M31.74 7.42c0 3.745-3.036 6.78-6.78 6.78s-6.78-3.036-6.78-6.78c0-3.745 3.036-6.78 6.78-6.78s6.78 3.036 6.78 6.78z"></path>
<path fill="#2196f3" stroke="#2196f3" stroke-linejoin="miter" stroke-linecap="butt" stroke-miterlimit="4" stroke-width="1.28" d="M37.754 31.36h-25.587c0.333-6.777 5.934-12.169 12.794-12.169s12.46 5.392 12.794 12.169z"></path>
<path fill="none" stroke="#2196f3" stroke-linejoin="miter" stroke-linecap="butt" stroke-miterlimit="4" stroke-width="1.28" d="M43.631 9.071c0 1.122-0.909 2.031-2.031 2.031s-2.031-0.909-2.031-2.031 0.909-2.031 2.031-2.031c1.122 0 2.031 0.909 2.031 2.031z"></path>
<path fill="none" stroke="#2196f3" stroke-linejoin="miter" stroke-linecap="butt" stroke-miterlimit="4" stroke-width="1.28" d="M45.753 17.28h-8.307c0.308-2.017 2.050-3.562 4.153-3.562s3.845 1.545 4.153 3.562z"></path>
<path fill="none" stroke="#2196f3" stroke-linejoin="miter" stroke-linecap="butt" stroke-miterlimit="4" stroke-width="1.28" d="M7.791 9.071c0 1.122-0.909 2.031-2.031 2.031s-2.031-0.909-2.031-2.031c0-1.122 0.909-2.031 2.031-2.031s2.031 0.909 2.031 2.031z"></path>
<path fill="none" stroke="#2196f3" stroke-linejoin="miter" stroke-linecap="butt" stroke-miterlimit="4" stroke-width="1.28" d="M9.913 17.28h-8.307c0.308-2.017 2.050-3.562 4.153-3.562s3.845 1.545 4.153 3.562z"></path>
</svg>
