<svg width="158" height="103" viewBox="0 0 158 103" fill="none" xmlns="http://www.w3.org/2000/svg">
<path d="M16.7923 101.686L0.917628 31.9471C0.319945 29.3214 0.532262 26.5763 1.52657 24.0737L17.9372 97.075L99.9903 96.6908V101.301L16.7923 101.686Z" fill="white" stroke="#1B8CFF" stroke-linecap="round"/>
<path d="M2.07664 25.2638L17.4166 95.4612C17.7199 96.8491 18.955 97.834 20.3755 97.8206L96.1967 97.1106C98.1331 97.0924 99.5452 95.2718 99.0812 93.3918L84.823 35.6242C84.5324 34.4467 83.5614 33.5601 82.3624 33.3773L5.45945 21.6575C3.37914 21.3405 1.62739 23.2079 2.07664 25.2638Z" fill="white" stroke="#1B8CFF" stroke-linecap="round"/>
<path d="M109.377 98.3536L109.523 98.5H109.73H133.5H133.707L133.854 98.3536L136.937 95.2698H157.5V101.954H17.2923V95.2698H80V101.5H81V95.2698H106.293L109.377 98.3536ZM107.707 95.2698H135.523L133.293 97.5H109.937L107.707 95.2698Z" fill="white" stroke="#1B8CFF"/>
<path d="M31 97.5H21V100H31V97.5Z" stroke="#1B8CFF" stroke-linecap="round"/>
<path d="M39 97.5H34V100H39V97.5Z" stroke="#1B8CFF" stroke-linecap="round"/>
<path d="M19.8454 93.2327L5.34302 24.842L82.4348 35.9843L95.7923 93.2327H19.8454Z" stroke="#1B8CFF" stroke-linecap="round"/>
<path d="M55.5 98.5H80.5H103" stroke="#1B8CFF" stroke-linecap="round"/>
<path d="M29.9317 4.26375L45.2717 74.4612C45.575 75.8491 46.8101 76.834 48.2306 76.8206L124.052 76.1106C125.988 76.0924 127.4 74.2718 126.936 72.3918L112.678 14.6242C112.388 13.4467 111.417 12.5601 110.218 12.3773L33.3145 0.657526C31.2342 0.340494 29.4825 2.20795 29.9317 4.26375Z" fill="white" stroke="#1B8CFF" stroke-linecap="round"/>
<path d="M54 65.5L118.5 66.5L107 18.5" stroke="#1B8CFF" stroke-width="0.5" stroke-linecap="round"/>
<path d="M58.5 61L49 18.5L64 40L65.5 26.5L81.5 20.5L102.5 50L97.5 22.5" stroke="#1B8CFF" stroke-linecap="round" stroke-dasharray="2 2"/>
<path d="M28.8506 4.47039L30 2.5L30.5 5C36.8284 31.8027 40.0522 46.472 46.0902 72.1397C46.6212 74.3969 48.6381 76 50.9569 76H126C125.098 78.406 122.798 80 120.228 80H46.0322C43.679 80 41.6443 78.3591 41.1457 76.0593L27.4884 13.0592C26.8526 10.1266 27.3387 7.06231 28.8506 4.47039Z" fill="white" stroke="#1B8CFF" stroke-linecap="round"/>
<path d="M48.4158 68.8672L33.5321 5.26931C33.3716 4.5834 33.9517 3.95096 34.6489 4.05172L108.94 14.7892C109.754 14.9069 110.413 15.5113 110.601 16.3124L123.425 71.0438C123.719 72.2987 122.766 73.5 121.477 73.5H54.258C51.471 73.5 49.0509 71.5809 48.4158 68.8672Z" stroke="#1B8CFF" stroke-linecap="round"/>
</svg>
