<svg width="240" height="77" viewBox="0 0 240 77" fill="none" xmlns="http://www.w3.org/2000/svg">
<path d="M2 76V67.5L87.5 30L239 29.5V38.5L200.5 76H2Z" fill="white"/>
<path d="M200.5 76H2V67.5L87.5 30L239 29.5V38.5L200.5 76ZM200.5 76V66.5" stroke="#1B8CFF" stroke-linecap="round"/>
<path d="M1 67.5L23 58L50.5 46.1538L88 30H133H189H238.5L222.346 46.1538L201 67.5H140H65H1Z" fill="white"/>
<path d="M65 67.5H1L23 58L50.5 46.1538M65 67.5L133 30M65 67.5H140M133 30H88L50.5 46.1538M133 30H189M189 30H238.5L222.346 46.1538M189 30L140 67.5M140 67.5H201L222.346 46.1538M50.5 46.1538H222.346" stroke="#1B8CFF" stroke-linecap="round" stroke-dasharray="2 2"/>
<circle cx="203.5" cy="20.5" r="20" fill="white" stroke="#1B8CFF" stroke-dasharray="2 2"/>
<path d="M200.582 12.8023C201.221 12.7678 201.87 12.7444 202.527 12.7328L202.536 13.2327C202.855 13.227 203.177 13.2242 203.5 13.2242C203.823 13.2242 204.145 13.227 204.464 13.2327L204.473 12.7328C205.13 12.7444 205.779 12.7678 206.418 12.8023L206.391 13.3016C207.043 13.3368 207.684 13.3837 208.313 13.4418L208.359 12.9439C209.017 13.0045 209.662 13.0772 210.293 13.1612L210.227 13.6568C210.876 13.7433 211.51 13.842 212.127 13.952L212.215 13.4598C212.87 13.5766 213.505 13.7061 214.12 13.8476L214.008 14.3348C214.652 14.4831 215.272 14.6445 215.865 14.8179L216.005 14.338C216.653 14.5273 217.269 14.7309 217.852 14.9477L217.678 15.4163C218.304 15.6494 218.888 15.897 219.426 16.1573L219.644 15.7072C220.268 16.0091 220.834 16.3289 221.336 16.6643L221.059 17.0801C221.622 17.4564 222.092 17.8466 222.464 18.2449L222.829 17.9036C223.318 18.4269 223.663 18.976 223.847 19.544L223.371 19.6977C223.457 19.9636 223.5 20.2309 223.5 20.5C223.5 20.7691 223.457 21.0364 223.371 21.3023L223.847 21.4561C223.663 22.024 223.318 22.5731 222.829 23.0964L222.464 22.7552C222.092 23.1534 221.622 23.5437 221.059 23.9199L221.336 24.3358C220.834 24.6711 220.268 24.9909 219.644 25.2928L219.426 24.8427C218.888 25.103 218.304 25.3507 217.678 25.5837L217.852 26.0524C217.269 26.2691 216.653 26.4727 216.005 26.662L215.865 26.1821C215.272 26.3555 214.652 26.5169 214.008 26.6652L214.12 27.1524C213.505 27.2939 212.87 27.4235 212.215 27.5403L212.127 27.048C211.51 27.1581 210.876 27.2567 210.227 27.3432L210.293 27.8388C209.662 27.9229 209.017 27.9955 208.359 28.0561L208.313 27.5582C207.684 27.6163 207.043 27.6632 206.391 27.6984L206.418 28.1977C205.779 28.2322 205.13 28.2556 204.473 28.2673L204.464 27.7673C204.145 27.773 203.823 27.7759 203.5 27.7759C203.177 27.7759 202.855 27.773 202.536 27.7673L202.527 28.2673C201.87 28.2556 201.221 28.2322 200.582 28.1977L200.609 27.6984C199.957 27.6632 199.316 27.6163 198.687 27.5582L198.641 28.0561C197.983 27.9955 197.338 27.9229 196.707 27.8388L196.773 27.3432C196.124 27.2567 195.49 27.1581 194.873 27.048L194.785 27.5403C194.13 27.4235 193.495 27.2939 192.88 27.1524L192.992 26.6652C192.348 26.5169 191.728 26.3555 191.135 26.1821L190.995 26.662C190.347 26.4727 189.731 26.2691 189.148 26.0524L189.322 25.5837C188.696 25.3507 188.112 25.103 187.574 24.8427L187.356 25.2928C186.732 24.9909 186.166 24.6711 185.664 24.3358L185.941 23.9199C185.378 23.5437 184.908 23.1534 184.536 22.7552L184.171 23.0964C183.682 22.5731 183.337 22.024 183.153 21.4561L183.629 21.3023C183.543 21.0364 183.5 20.7691 183.5 20.5C183.5 20.2309 183.543 19.9636 183.629 19.6977L183.153 19.544C183.337 18.976 183.682 18.4269 184.171 17.9037L184.536 18.2449C184.908 17.8466 185.378 17.4564 185.941 17.0801L185.664 16.6643C186.166 16.3289 186.732 16.0091 187.356 15.7072L187.574 16.1573C188.112 15.897 188.696 15.6494 189.322 15.4163L189.148 14.9477C189.731 14.7309 190.347 14.5273 190.995 14.338L191.135 14.8179C191.728 14.6445 192.348 14.4831 192.992 14.3348L192.88 13.8476C193.495 13.7061 194.13 13.5766 194.785 13.4598L194.873 13.952C195.49 13.842 196.124 13.7433 196.773 13.6568L196.707 13.1612C197.338 13.0772 197.983 13.0045 198.641 12.9439L198.687 13.4418C199.316 13.3837 199.957 13.3368 200.609 13.3016L200.582 12.8023Z" fill="white" stroke="#1B8CFF" stroke-dasharray="2 2"/>
<path d="M210.255 17.5817C210.29 18.221 210.313 18.8698 210.325 19.5267L209.825 19.5356C209.83 19.8552 209.833 20.1767 209.833 20.5C209.833 20.8233 209.83 21.1448 209.825 21.4644L210.325 21.4733C210.313 22.1302 210.29 22.779 210.255 23.4183L209.756 23.3913C209.721 24.0426 209.674 24.6838 209.616 25.3133L210.114 25.3592C210.053 26.0167 209.98 26.6618 209.896 27.2928L209.401 27.2268C209.314 27.8764 209.216 28.5105 209.105 29.1272L209.598 29.215C209.481 29.8697 209.351 30.5054 209.21 31.12L208.723 31.0078C208.574 31.6521 208.413 32.272 208.24 32.8649L208.72 33.0052C208.53 33.6526 208.327 34.2693 208.11 34.852L207.641 34.6777C207.408 35.3043 207.16 35.8884 206.9 36.4262L207.35 36.644C207.048 37.2678 206.729 37.834 206.393 38.3363L205.977 38.0587C205.601 38.6223 205.211 39.0921 204.813 39.4639L205.154 39.8294C204.631 40.318 204.082 40.663 203.514 40.8466L203.36 40.3708C203.094 40.4568 202.827 40.5 202.557 40.5C202.288 40.5 202.021 40.4568 201.755 40.3708L201.601 40.8466C201.033 40.663 200.484 40.318 199.961 39.8294L200.302 39.4639C199.904 39.0921 199.514 38.6223 199.138 38.0587L198.722 38.3363C198.386 37.834 198.067 37.2678 197.765 36.644L198.215 36.4262C197.954 35.8884 197.707 35.3043 197.474 34.6777L197.005 34.852C196.788 34.2693 196.585 33.6526 196.395 33.0052L196.875 32.8649C196.702 32.272 196.541 31.6521 196.392 31.0078L195.905 31.12C195.764 30.5054 195.634 29.8697 195.517 29.215L196.009 29.1272C195.899 28.5105 195.801 27.8764 195.714 27.2268L195.219 27.2928C195.135 26.6618 195.062 26.0167 195.001 25.3592L195.499 25.3133C195.441 24.6838 195.394 24.0426 195.359 23.3913L194.86 23.4183C194.825 22.779 194.802 22.1302 194.79 21.4733L195.29 21.4644C195.284 21.1448 195.282 20.8233 195.282 20.5C195.282 20.1767 195.284 19.8552 195.29 19.5356L194.79 19.5267C194.802 18.8698 194.825 18.221 194.86 17.5817L195.359 17.6087C195.394 16.9574 195.441 16.3162 195.499 15.6867L195.001 15.6408C195.062 14.9833 195.135 14.3382 195.219 13.7072L195.714 13.7732C195.801 13.1236 195.899 12.4895 196.009 11.8728L195.517 11.785C195.634 11.1303 195.764 10.4946 195.905 9.88L196.392 9.99216C196.541 9.34788 196.702 8.72801 196.875 8.13514L196.395 7.99481C196.585 7.34744 196.788 6.73074 197.005 6.14801L197.474 6.32231C197.707 5.69571 197.954 5.11157 198.215 4.57378L197.765 4.35597C198.067 3.7322 198.386 3.16601 198.722 2.66366L199.138 2.94128C199.514 2.37768 199.904 1.90791 200.302 1.53608L199.961 1.1706C200.484 0.682044 201.033 0.336997 201.601 0.15341L201.755 0.629174C202.021 0.543226 202.288 0.5 202.557 0.5C202.827 0.5 203.094 0.543226 203.36 0.629174L203.514 0.15341C204.082 0.336998 204.631 0.682044 205.154 1.1706L204.813 1.53608C205.211 1.90791 205.601 2.37768 205.977 2.94128L206.393 2.66366C206.729 3.16601 207.048 3.73221 207.35 4.35597L206.9 4.57378C207.16 5.11157 207.408 5.69572 207.641 6.32232L208.11 6.14801C208.327 6.73074 208.53 7.34745 208.72 7.99481L208.24 8.13514C208.413 8.72801 208.574 9.34788 208.723 9.99216L209.21 9.88C209.351 10.4946 209.481 11.1303 209.598 11.785L209.105 11.8728C209.216 12.4895 209.314 13.1236 209.401 13.7732L209.896 13.7072C209.98 14.3382 210.053 14.9833 210.114 15.6408L209.616 15.6867C209.674 16.3162 209.721 16.9574 209.756 17.6087L210.255 17.5817Z" stroke="#1B8CFF" stroke-dasharray="2 2"/>
<path d="M71 6.5C70.7239 6.5 70.5 6.72386 70.5 7C70.5 7.27614 70.7239 7.5 71 7.5V6.5ZM171.854 7.35355C172.049 7.15829 172.049 6.84171 171.854 6.64645L168.672 3.46447C168.476 3.2692 168.16 3.2692 167.964 3.46447C167.769 3.65973 167.769 3.97631 167.964 4.17157L170.793 7L167.964 9.82843C167.769 10.0237 167.769 10.3403 167.964 10.5355C168.16 10.7308 168.476 10.7308 168.672 10.5355L171.854 7.35355ZM74 13C73.7239 13 73.5 13.2239 73.5 13.5C73.5 13.7761 73.7239 14 74 14V13ZM106.5 14C106.776 14 107 13.7761 107 13.5C107 13.2239 106.776 13 106.5 13V14ZM112 13C111.724 13 111.5 13.2239 111.5 13.5C111.5 13.7761 111.724 14 112 14V13ZM121.5 14C121.776 14 122 13.7761 122 13.5C122 13.2239 121.776 13 121.5 13V14ZM71 7.5H171.5V6.5H71V7.5ZM74 14H106.5V13H74V14ZM112 14H121.5V13H112V14Z" fill="white"/>
<path d="M64 63.5H1V55.5L46.5 38H98V45L64 63.5Z" fill="white"/>
<path d="M64 63.5H1V55.5M64 63.5L98 45V38M64 63.5V55.5M98 38H46.5L1 55.5M98 38L64 55.5M1 55.5H64" stroke="#1B8CFF" stroke-linecap="round"/>
<circle cx="48.5" cy="26.5" r="20" fill="white" stroke="#1B8CFF"/>
<path d="M48.5 19.2242C54.1163 19.2242 59.1785 20.0885 62.8184 21.4691C64.6401 22.1601 66.0798 22.9708 67.0552 23.8455C68.0308 24.7205 68.5 25.6185 68.5 26.5C68.5 27.3816 68.0308 28.2795 67.0552 29.1545C66.0798 30.0292 64.6401 30.8399 62.8184 31.5309C59.1785 32.9115 54.1163 33.7759 48.5 33.7759C42.8837 33.7759 37.8215 32.9115 34.1816 31.5309C32.3599 30.8399 30.9202 30.0292 29.9448 29.1545C28.9692 28.2795 28.5 27.3816 28.5 26.5C28.5 25.6185 28.9692 24.7205 29.9448 23.8455C30.9202 22.9708 32.3599 22.1601 34.1816 21.4692C37.8215 20.0885 42.8837 19.2242 48.5 19.2242Z" fill="white" stroke="#1B8CFF"/>
<path d="M54.8333 26.5C54.8333 32.1163 53.969 37.1785 52.5883 40.8184C51.8973 42.6401 51.0867 44.0798 50.212 45.0552C49.337 46.0308 48.439 46.5 47.5575 46.5C46.6759 46.5 45.778 46.0308 44.903 45.0552C44.0283 44.0798 43.2176 42.6401 42.5266 40.8184C41.146 37.1785 40.2816 32.1163 40.2816 26.5C40.2816 20.8837 41.146 15.8215 42.5266 12.1816C43.2176 10.3599 44.0283 8.92023 44.903 7.94481C45.778 6.96916 46.6759 6.5 47.5575 6.5C48.439 6.5 49.337 6.96916 50.212 7.94481C51.0867 8.92023 51.8973 10.3599 52.5883 12.1816C53.969 15.8215 54.8333 20.8837 54.8333 26.5Z" stroke="#1B8CFF"/>
</svg>
