<svg width="136" height="117" viewBox="0 0 136 117" fill="none" xmlns="http://www.w3.org/2000/svg">
<path d="M18 29.5596H1V35.0434V40.7766V47.7561V54.237V62.7121V70.9379V78.1666V87.888V97.1109V105.835V114.56H18V29.5596Z" fill="white"/>
<path d="M1 35.0434V29.5596H18V114.56H1V105.835M1 35.0434H12.5M1 35.0434V40.7766M1 40.7766H8.5M1 40.7766V47.7561M1 47.7561H12.5M1 47.7561V54.237M1 54.237H8.5M1 54.237V62.7121M1 62.7121H12.5M1 62.7121V70.9379M1 70.9379H8.5M1 70.9379V78.1666M1 78.1666H12.5M1 78.1666V87.888M1 87.888H8.5M1 87.888V97.1109M1 97.1109H12.5M1 97.1109V105.835M1 105.835H8.5" stroke="#1B8CFF" stroke-linecap="round"/>
<path d="M43.2538 89.3366L43.0621 83.9688H38.6528C38.2786 85.7149 38.4554 87.5342 39.1589 89.1756L39.2279 89.3366H43.2538Z" fill="white" stroke="#1B8CFF" stroke-linecap="round"/>
<path d="M45.5544 89.3366L45.7461 83.9688H50.1555C50.5296 85.7149 50.3528 87.5342 49.6493 89.1756L49.5803 89.3366H45.5544Z" fill="white" stroke="#1B8CFF" stroke-linecap="round"/>
<path d="M26 34.1243L35.5855 24.5388H43.829V86.2693H37.3109L26 34.1243Z" fill="white" stroke="#1B8CFF" stroke-linecap="round"/>
<path d="M63 34.1243L53.4145 24.5388H45.171V86.2693H51.6891L63 34.1243Z" fill="white" stroke="#1B8CFF" stroke-linecap="round"/>
<path d="M36.0854 10.8523H52.3393V12.9197H36.0854V10.8523ZM52.3393 9.85232H36.0854V8.62694C36.0854 4.13855 39.724 0.5 44.2124 0.5C48.7008 0.5 52.3393 4.13855 52.3393 8.62694V9.85232Z" fill="white" stroke="#1B8CFF"/>
<path d="M52.6477 13.0364H35.7772V19.5545L30.2177 24.9224L33.3145 35.0671C34.7777 39.8603 39.2009 43.1348 44.2125 43.1348C49.224 43.1348 53.6473 39.8603 55.1105 35.0671L58.2073 24.9224L52.6477 19.5545V13.0364Z" fill="white" stroke="#1B8CFF" stroke-linecap="round"/>
<path d="M37.5027 87.228H44.0208V111.767H43.8291L43.0623 116.56L42.2954 111.767H41.912L37.5027 87.228Z" fill="white"/>
<path d="M37.5027 87.228H44.0208V111.767H41.912L37.5027 87.228ZM42.2954 111.767H43.8291L43.0623 116.56L42.2954 111.767Z" stroke="#1B8CFF" stroke-linecap="round"/>
<path d="M51.4974 87.228H44.9793V111.767H45.2669L45.9379 116.56L46.8005 111.767H47.0881L51.4974 87.228Z" fill="white"/>
<path d="M51.4974 87.228H44.9793V111.767H47.0881L51.4974 87.228ZM46.8005 111.767L45.9379 116.56L45.2669 111.767H46.0337H46.8005Z" stroke="#1B8CFF" stroke-linecap="round"/>
<circle cx="44.4041" cy="33.3575" r="5.25129" stroke="#1B8CFF" stroke-linejoin="round" stroke-dasharray="1 1"/>
<circle cx="75" cy="37" r="3.5" fill="white" stroke="#4A89F2"/>
<circle cx="132" cy="83" r="3.5" fill="white" stroke="#4A89F2"/>
<circle cx="73" cy="83" r="3.5" fill="white" stroke="#4A89F2"/>
<circle cx="132" cy="37" r="3.5" fill="white" stroke="#4A89F2"/>
<path d="M74.5 37.5H132M130.5 83H74.5" stroke="white" stroke-linecap="round"/>
<path d="M79.5 82.5V38L102 82.5L113.5 49.5L127 82.5L126.5 38" stroke="white" stroke-linecap="round"/>
</svg>
