<svg width="226" height="112" viewBox="0 0 226 112" fill="none" xmlns="http://www.w3.org/2000/svg">
<path d="M163.148 23.1727L160.282 35.9215L181.196 83.5261L193.945 86.3926L213.207 78.6813L182.767 13.2763L163.148 23.1727Z" fill="white"/>
<path d="M160.282 35.9215L163.148 23.1727L182.767 13.2763M160.282 35.9215L179.174 26.3916M160.282 35.9215L181.196 83.5261M182.767 13.2763L179.174 26.3916M182.767 13.2763L213.207 78.6813M179.174 26.3916L200.455 74.7229M213.207 78.6813L200.455 74.7229M213.207 78.6813L193.945 86.3926L181.196 83.5261M200.455 74.7229L181.196 83.5261" stroke="#1B8CFF" stroke-linecap="round"/>
<path d="M108.831 66.7321L119.9 62.8625L119.57 61.9185L108.486 65.7933C108.338 65.3857 108.192 64.9752 108.047 64.5618C107.731 63.6576 107.43 62.7585 107.145 61.8655L118.201 58.0006L117.871 57.0566L106.844 60.9112C106.426 59.5628 106.043 58.2297 105.695 56.9161L116.501 53.1386L116.171 52.1946L105.443 55.945C105.092 54.5638 104.779 53.2057 104.505 51.876L115.409 48.0642L115.079 47.1202L104.307 50.8858C104.032 49.4641 103.801 48.077 103.615 46.7309L114.317 42.9898L113.987 42.0458L103.483 45.7179C103.301 44.2405 103.174 42.8164 103.102 41.4544L113.833 37.7029L113.503 36.7589L103.057 40.4108C103.005 38.839 103.03 37.3605 103.129 35.9886L113.957 32.2036L113.627 31.2596L103.227 34.8952C103.419 33.0961 103.75 31.5039 104.215 30.153L115.296 26.2794L114.966 25.3354L104.707 28.9216C105.569 27.0605 106.734 25.8626 108.156 25.3652L118.624 21.7061L143.151 91.8682L130.252 96.3772C129.854 96.5162 129.354 96.5059 128.738 96.3064C128.12 96.1068 127.419 95.7276 126.65 95.1776C126.478 95.0549 126.304 94.9244 126.128 94.7863L137.816 90.7004L137.486 89.7564L125.234 94.0394C124.22 93.1424 123.149 92.0301 122.055 90.7539L133.078 86.9007L132.748 85.9567L121.368 89.9346C120.277 88.6003 119.155 87.0628 118.027 85.3418L129.13 81.4606L128.8 80.5166L117.47 84.4773C116.746 83.3359 116.021 82.1211 115.303 80.8381L126.215 77.0235L125.885 76.0795L114.812 79.9502C114.164 78.7617 113.523 77.5186 112.891 76.2248L123.907 72.374L123.577 71.43L112.455 75.3181C111.873 74.0938 111.301 72.8266 110.743 71.5198L121.6 67.7245L121.27 66.7805L110.354 70.5965C109.832 69.3422 109.323 68.0532 108.831 66.7321Z" fill="white" stroke="#1B8CFF"/>
<path d="M143.623 91.7034C142.054 92.2517 140.183 91.9047 138.09 90.664C135.999 89.4249 133.749 87.3291 131.481 84.5141C126.948 78.8878 122.41 70.4772 118.962 60.6149C115.515 50.7526 113.824 41.3467 113.865 34.1213C113.886 30.5062 114.339 27.4655 115.203 25.1935C116.068 22.9186 117.315 21.4818 118.883 20.9335C120.452 20.3851 122.323 20.7321 124.416 21.9728C126.507 23.2119 128.757 25.3077 131.025 28.1227C135.558 33.749 140.096 42.1596 143.544 52.0219C146.991 61.8842 148.682 71.2901 148.641 78.5155C148.62 82.1306 148.167 85.1714 147.303 87.4433C146.438 89.7182 145.191 91.155 143.623 91.7034Z" fill="white" stroke="#1B8CFF"/>
<path d="M128.352 39.6665L128.997 51.8771M128.352 39.6665L132.755 44.8666C134.313 46.7068 135.3 48.9617 135.595 51.3547V51.3547C135.941 54.1633 132.462 55.7446 130.574 53.637L128.997 51.8771M128.352 39.6665L126.02 37.1409M129.92 66.96L132.801 70.7424C134.239 72.6306 137.253 71.6017 137.237 69.2283V69.2283L137.193 68.7209C136.751 63.656 134.776 58.846 131.531 54.9325L128.997 51.8771M129.92 66.96L128.997 51.8771M129.92 66.96L126.456 62.2316M128.997 51.8771L125.821 47.9758" stroke="#1B8CFF" stroke-linecap="round"/>
<path d="M145.116 87.6702C144.721 88.2586 144.267 88.7297 143.755 89.0724L143.477 88.6567C143.235 88.8181 142.981 88.9459 142.713 89.0396C142.444 89.1334 142.166 89.192 141.876 89.2162L141.918 89.7144C141.304 89.7657 140.655 89.6799 139.979 89.466L140.13 88.9893C139.597 88.8206 139.036 88.5627 138.451 88.2157L138.196 88.6457C137.67 88.3335 137.132 87.9565 136.585 87.5183L136.898 87.1282C136.427 86.7511 135.948 86.3256 135.462 85.8536L135.113 86.2124C134.663 85.7755 134.209 85.3012 133.752 84.7912L134.124 84.4575C133.708 83.9929 133.289 83.4976 132.867 82.9728L132.477 83.2858C132.08 82.7908 131.682 82.2706 131.283 81.7264L131.686 81.4309C131.312 80.92 130.937 80.3873 130.563 79.8338L130.149 80.114C129.79 79.5837 129.432 79.0349 129.075 78.4683L129.498 78.2018C129.157 77.6611 128.818 77.1039 128.479 76.531L128.049 76.7852C127.721 76.2302 127.395 75.6608 127.071 75.0776L127.508 74.8347C127.197 74.2742 126.887 73.7007 126.58 73.1148L126.137 73.3471C125.837 72.7739 125.538 72.1891 125.243 71.5933L125.691 71.3711C125.404 70.7933 125.12 70.2049 124.839 69.6066L124.386 69.8193C124.11 69.2315 123.837 68.6342 123.566 68.0279L124.023 67.8244C123.76 67.2345 123.5 66.636 123.244 66.0293L122.783 66.224C122.53 65.6253 122.281 65.0187 122.035 64.4047L122.499 64.2187C122.258 63.6175 122.02 63.009 121.787 62.3939L121.319 62.5714C121.088 61.9625 120.86 61.3469 120.637 60.7252L121.107 60.5561C120.997 60.2489 120.888 59.9402 120.779 59.6301C120.671 59.3199 120.564 59.0103 120.459 58.7012L119.986 58.862C119.773 58.2365 119.568 57.6132 119.369 56.9928L119.845 56.8405C119.645 56.2137 119.452 55.5899 119.265 54.9695L118.787 55.1131C118.597 54.4795 118.414 53.8495 118.239 53.2235L118.72 53.0888C118.543 52.4545 118.373 51.8245 118.211 51.1993L117.727 51.3246C117.561 50.682 117.403 50.0445 117.253 49.4126L117.739 49.2971C117.586 48.6539 117.442 48.0166 117.306 47.3861L116.817 47.4913C116.678 46.8411 116.547 46.1978 116.425 45.5622L116.916 45.468C116.791 44.8183 116.676 44.1769 116.57 43.5444L116.077 43.6268C115.967 42.9687 115.867 42.3202 115.778 41.682L116.273 41.6125C116.181 40.9537 116.099 40.3062 116.029 39.671L115.532 39.7261C115.458 39.0605 115.396 38.4081 115.347 37.7698L115.845 37.731C115.793 37.0647 115.754 36.4146 115.729 35.7818L115.229 35.802C115.202 35.128 115.189 34.4728 115.192 33.8381L115.692 33.84C115.694 33.1671 115.714 32.5183 115.75 31.8956L115.251 31.8665C115.291 31.1828 115.351 30.5288 115.43 29.9066L115.926 29.9703C116.013 29.2981 116.123 28.6666 116.256 28.0785L115.768 27.9682C115.923 27.2848 116.109 26.6548 116.326 26.0827L116.793 26.2602C117.035 25.6243 117.313 25.0731 117.625 24.609L117.21 24.3301C117.605 23.7418 118.059 23.2706 118.571 22.928L118.849 23.3437C119.09 23.1823 119.345 23.0545 119.613 22.9607C119.882 22.867 120.16 22.8083 120.45 22.7842L120.408 22.2859C121.022 22.2347 121.671 22.3205 122.347 22.5344L122.196 23.0111C122.729 23.1798 123.29 23.4377 123.875 23.7847L124.13 23.3547C124.656 23.6669 125.194 24.0438 125.741 24.482L125.428 24.8722C125.898 25.2493 126.378 25.6747 126.864 26.1468L127.212 25.788C127.663 26.2249 128.117 26.6992 128.574 27.2092L128.202 27.5429C128.618 28.0074 129.037 28.5028 129.459 29.0276L129.848 28.7146C130.246 29.2096 130.644 29.7298 131.043 30.2739L130.639 30.5694C131.014 31.0803 131.388 31.613 131.763 32.1665L132.177 31.8864C132.536 32.4167 132.894 32.9655 133.251 33.532L132.828 33.7986C133.168 34.3393 133.508 34.8965 133.846 35.4694L134.277 35.2152C134.605 35.7702 134.931 36.3396 135.255 36.9228L134.817 37.1656C135.129 37.7262 135.438 38.2997 135.746 38.8855L136.188 38.6533C136.489 39.2265 136.787 39.8113 137.083 40.4071L136.635 40.6293C136.922 41.2071 137.206 41.7954 137.487 42.3937L137.94 42.1811C138.216 42.7688 138.489 43.3661 138.759 43.9724L138.303 44.176C138.566 44.7658 138.825 45.3644 139.082 45.9711L139.542 45.7764C139.795 46.3751 140.045 46.9817 140.291 47.5957L139.827 47.7817C140.068 48.3829 140.306 48.9913 140.539 49.6065L141.007 49.429C141.238 50.0379 141.465 50.6534 141.689 51.2751L141.218 51.4443C141.329 51.7514 141.438 52.0601 141.547 52.3703C141.655 52.6804 141.762 52.9901 141.867 53.2992L142.34 53.1383C142.553 53.7639 142.758 54.3871 142.957 55.0075L142.48 55.1599C142.681 55.7866 142.874 56.4105 143.06 57.0309L143.539 56.8872C143.729 57.5208 143.912 58.1509 144.087 58.7769L143.605 58.9115C143.783 59.5458 143.952 60.1759 144.114 60.8011L144.598 60.6757C144.765 61.3183 144.923 61.9559 145.073 62.5877L144.587 62.7033C144.74 63.3465 144.884 63.9837 145.02 64.6143L145.508 64.509C145.648 65.1593 145.779 65.8025 145.901 66.4382L145.41 66.5324C145.535 67.182 145.65 67.8235 145.756 68.456L146.249 68.3736C146.359 69.0316 146.459 69.6802 146.548 70.3184L146.053 70.3878C146.145 71.0467 146.227 71.6941 146.297 72.3293L146.794 72.2743C146.868 72.9398 146.93 73.5923 146.979 74.2305L146.481 74.2694C146.533 74.9356 146.572 75.5857 146.597 76.2185L147.097 76.1984C147.124 76.8724 147.136 77.5275 147.134 78.1622L146.634 78.1603C146.631 78.8333 146.612 79.482 146.576 80.1048L147.075 80.1339C147.035 80.8175 146.975 81.4716 146.895 82.0938L146.399 82.0301C146.313 82.7023 146.203 83.3337 146.07 83.9218L146.558 84.0322C146.403 84.7156 146.217 85.3455 146 85.9176L145.533 85.7402C145.291 86.3761 145.013 86.9273 144.701 87.3913L145.116 87.6702Z" stroke="#1B8CFF" stroke-dasharray="2 2"/>
<circle cx="33.25" cy="69.25" r="32.75" fill="white" stroke="#1B8CFF"/>
<path d="M30.0934 56.694C30.7882 56.6692 31.4891 56.6525 32.1956 56.6441L32.2015 57.1441C32.5497 57.14 32.8992 57.1379 33.25 57.1379C33.6008 57.1379 33.9503 57.14 34.2985 57.1441L34.3044 56.6441C35.0109 56.6525 35.7118 56.6692 36.4066 56.694L36.3887 57.1937C37.0918 57.2188 37.7884 57.2523 38.4778 57.2938L38.5079 56.7947C39.2156 56.8374 39.9159 56.8885 40.6081 56.9478L40.5654 57.446C41.2676 57.5061 41.9613 57.5748 42.6455 57.6516L42.7013 57.1547C43.4065 57.2339 44.1019 57.3217 44.7867 57.4178L44.7172 57.9129C45.4181 58.0113 46.1075 58.1184 46.7847 58.2338L46.8687 57.7409C47.5706 57.8606 48.2595 57.9893 48.9345 58.1265L48.8349 58.6165C49.5304 58.7578 50.2106 58.9084 50.8746 59.0675L50.9912 58.5813C51.6869 58.7481 52.3651 58.9244 53.0247 59.1098L52.8894 59.5912C53.5758 59.7841 54.2412 59.9867 54.8842 60.1985L55.0406 59.7236C55.7256 59.9492 56.3861 60.1853 57.0203 60.4312L56.8395 60.8974C57.506 61.1558 58.142 61.4248 58.7455 61.7035L58.9551 61.2496C59.6179 61.5556 60.2435 61.8737 60.8292 62.2028L60.5843 62.6387C61.2137 62.9924 61.7935 63.3578 62.321 63.7331L62.6109 63.3257C63.2179 63.7576 63.7606 64.2046 64.2342 64.6646L63.8858 65.0233C64.4002 65.523 64.8227 66.0326 65.1509 66.5484L65.5728 66.2799C65.9706 66.9052 66.2457 67.5486 66.3878 68.2063L65.899 68.3118C65.966 68.622 66 68.9348 66 69.25C66 69.5652 65.966 69.8779 65.899 70.1881L66.3878 70.2937C66.2457 70.9514 65.9706 71.5948 65.5728 72.22L65.1509 71.9516C64.8227 72.4674 64.4002 72.977 63.8858 73.4767L64.2342 73.8354C63.7606 74.2954 63.2179 74.7423 62.6109 75.1743L62.321 74.7669C61.7935 75.1422 61.2137 75.5075 60.5843 75.8612L60.8292 76.2971C60.2435 76.6263 59.6179 76.9444 58.9551 77.2504L58.7455 76.7965C58.142 77.0751 57.506 77.3441 56.8395 77.6026L57.0203 78.0687C56.3861 78.3146 55.7256 78.5507 55.0406 78.7764L54.8842 78.3015C54.2412 78.5133 53.5758 78.7159 52.8894 78.9088L53.0247 79.3902C52.3652 79.5755 51.6869 79.7519 50.9912 79.9187L50.8746 79.4324C50.2106 79.5916 49.5304 79.7421 48.8349 79.8835L48.9345 80.3735C48.2595 80.5107 47.5706 80.6394 46.8687 80.759L46.7847 80.2662C46.1075 80.3816 45.4181 80.4887 44.7172 80.5871L44.7867 81.0822C44.1019 81.1783 43.4065 81.2661 42.7013 81.3453L42.6455 80.8484C41.9613 80.9252 41.2676 80.9938 40.5654 81.054L40.6081 81.5522C39.916 81.6115 39.2156 81.6626 38.5079 81.7053L38.4778 81.2062C37.7884 81.2477 37.0918 81.2812 36.3887 81.3063L36.4066 81.806C35.7118 81.8308 35.0109 81.8475 34.3044 81.8558L34.2985 81.3559C33.9503 81.36 33.6008 81.3621 33.25 81.3621C32.8992 81.3621 32.5497 81.36 32.2015 81.3559L32.1956 81.8558C31.4891 81.8475 30.7882 81.8308 30.0934 81.806L30.1113 81.3063C29.4082 81.2812 28.7116 81.2477 28.0222 81.2062L27.9921 81.7053C27.2844 81.6626 26.584 81.6115 25.8919 81.5522L25.9346 81.054C25.2324 80.9938 24.5387 80.9252 23.8545 80.8484L23.7987 81.3453C23.0935 81.2661 22.3981 81.1783 21.7133 81.0822L21.7828 80.5871C21.0819 80.4887 20.3925 80.3816 19.7153 80.2662L19.6313 80.759C18.9294 80.6394 18.2405 80.5107 17.5655 80.3735L17.6651 79.8835C16.9696 79.7421 16.2894 79.5916 15.6254 79.4324L15.5088 79.9187C14.8131 79.7519 14.1348 79.5755 13.4753 79.3902L13.6106 78.9088C12.9242 78.7159 12.2588 78.5133 11.6158 78.3015L11.4594 78.7764C10.7744 78.5508 10.1139 78.3146 9.4797 78.0687L9.66047 77.6026C8.99402 77.3441 8.35804 77.0752 7.75448 76.7965L7.54488 77.2504C6.88206 76.9444 6.25648 76.6263 5.67077 76.2971L5.91572 75.8612C5.28633 75.5076 4.70649 75.1422 4.17903 74.7669L3.88914 75.1743C3.2821 74.7423 2.73938 74.2954 2.26582 73.8354L2.61422 73.4767C2.09982 72.977 1.67731 72.4674 1.34907 71.9516L0.927238 72.2201C0.529346 71.5948 0.254267 70.9514 0.112227 70.2937L0.600959 70.1882C0.533964 69.8779 0.499999 69.5652 0.499999 69.25C0.499999 68.9348 0.533963 68.622 0.600959 68.3118L0.112226 68.2063C0.254266 67.5486 0.529345 66.9052 0.927236 66.2799L1.34906 66.5484C1.6773 66.0326 2.09982 65.523 2.61422 65.0233L2.26582 64.6646C2.73938 64.2046 3.2821 63.7576 3.88914 63.3257L4.17902 63.7331C4.70649 63.3578 5.28632 62.9924 5.91572 62.6387L5.67077 62.2029C6.25647 61.8737 6.88205 61.5556 7.54488 61.2496L7.75448 61.7035C8.35804 61.4248 8.99401 61.1558 9.66046 60.8974L9.4797 60.4312C10.1139 60.1853 10.7744 59.9492 11.4594 59.7236L11.6158 60.1985C12.2588 59.9867 12.9242 59.7841 13.6106 59.5912L13.4753 59.1098C14.1348 58.9244 14.8131 58.7481 15.5088 58.5813L15.6254 59.0675C16.2894 58.9084 16.9696 58.7578 17.6651 58.6165L17.5655 58.1265C18.2405 57.9893 18.9294 57.8606 19.6313 57.7409L19.7153 58.2338C20.3925 58.1184 21.0819 58.0113 21.7828 57.9129L21.7133 57.4178C22.3981 57.3217 23.0935 57.2339 23.7987 57.1547L23.8545 57.6516C24.5387 57.5748 25.2324 57.5061 25.9346 57.446L25.8919 56.9478C26.584 56.8885 27.2844 56.8374 27.9921 56.7947L28.0222 57.2938C28.7116 57.2523 29.4082 57.2188 30.1113 57.1937L30.0934 56.694Z" fill="white" stroke="#1B8CFF" stroke-dasharray="2 2"/>
<path d="M44.2773 66.0934C44.3021 66.7882 44.3188 67.4891 44.3272 68.1956L43.8272 68.2015C43.8313 68.5497 43.8334 68.8992 43.8334 69.25C43.8334 69.6008 43.8313 69.9503 43.8272 70.2985L44.3272 70.3044C44.3188 71.0109 44.3021 71.7118 44.2773 72.4066L43.7776 72.3887C43.7525 73.0918 43.719 73.7884 43.6775 74.4778L44.1766 74.5079C44.1339 75.2156 44.0828 75.916 44.0235 76.6081L43.5253 76.5654C43.4652 77.2676 43.3965 77.9613 43.3197 78.6455L43.8166 78.7013C43.7374 79.4065 43.6496 80.1019 43.5535 80.7867L43.0584 80.7172C42.96 81.4181 42.853 82.1075 42.7375 82.7847L43.2304 82.8687C43.1107 83.5706 42.9821 84.2595 42.8448 84.9345L42.3549 84.8349C42.2135 85.5304 42.063 86.2106 41.9038 86.8746L42.39 86.9912C42.2232 87.6869 42.0469 88.3652 41.8615 89.0247L41.3802 88.8894C41.1873 89.5758 40.9846 90.2412 40.7728 90.8842L41.2477 91.0406C41.0221 91.7256 40.786 92.3861 40.5401 93.0203L40.0739 92.8395C39.8155 93.506 39.5465 94.142 39.2678 94.7455L39.7217 94.9551C39.4157 95.6179 39.0976 96.2435 38.7685 96.8292L38.3326 96.5843C37.9789 97.2137 37.6136 97.7935 37.2382 98.321L37.6456 98.6109C37.2137 99.2179 36.7667 99.7606 36.3067 100.234L35.9481 99.8858C35.4483 100.4 34.9387 100.823 34.4229 101.151L34.6914 101.573C34.0661 101.971 33.4227 102.246 32.765 102.388L32.6595 101.899C32.3493 101.966 32.0366 102 31.7213 102C31.4061 102 31.0934 101.966 30.7832 101.899L30.6776 102.388C30.0199 102.246 29.3765 101.971 28.7513 101.573L29.0197 101.151C28.5039 100.823 27.9943 100.4 27.4946 99.8858L27.136 100.234C26.6759 99.7606 26.229 99.2179 25.797 98.6109L26.2044 98.321C25.8291 97.7935 25.4638 97.2137 25.1101 96.5843L24.6742 96.8292C24.345 96.2435 24.0269 95.6179 23.7209 94.9551L24.1748 94.7455C23.8962 94.142 23.6272 93.506 23.3688 92.8395L22.9026 93.0203C22.6567 92.3861 22.4206 91.7256 22.1949 91.0406L22.6698 90.8842C22.458 90.2412 22.2554 89.5758 22.0625 88.8894L21.5811 89.0247C21.3958 88.3652 21.2195 87.6869 21.0527 86.9912L21.5389 86.8746C21.3797 86.2106 21.2292 85.5304 21.0878 84.8349L20.5978 84.9345C20.4606 84.2595 20.3319 83.5706 20.2123 82.8687L20.7052 82.7847C20.5897 82.1075 20.4826 81.4181 20.3843 80.7172L19.8891 80.7867C19.793 80.1019 19.7052 79.4065 19.6261 78.7013L20.1229 78.6455C20.0461 77.9613 19.9775 77.2676 19.9173 76.5654L19.4191 76.6081C19.3598 75.916 19.3087 75.2156 19.2661 74.5079L19.7651 74.4778C19.7236 73.7884 19.6901 73.0918 19.665 72.3887L19.1653 72.4066C19.1405 71.7118 19.1238 71.0109 19.1155 70.3044L19.6154 70.2985C19.6113 69.9503 19.6093 69.6008 19.6093 69.25C19.6093 68.8992 19.6113 68.5497 19.6154 68.2015L19.1155 68.1956C19.1238 67.4891 19.1405 66.7882 19.1653 66.0934L19.665 66.1113C19.6901 65.4082 19.7236 64.7116 19.7651 64.0222L19.2661 63.9921C19.3087 63.2844 19.3598 62.584 19.4191 61.8919L19.9173 61.9346C19.9775 61.2324 20.0461 60.5387 20.1229 59.8545L19.6261 59.7987C19.7052 59.0935 19.793 58.3981 19.8891 57.7133L20.3843 57.7828C20.4826 57.0819 20.5897 56.3925 20.7052 55.7153L20.2123 55.6313C20.3319 54.9294 20.4606 54.2405 20.5978 53.5655L21.0878 53.6651C21.2292 52.9696 21.3797 52.2894 21.5389 51.6254L21.0527 51.5088C21.2195 50.8131 21.3958 50.1348 21.5811 49.4753L22.0625 49.6106C22.2554 48.9242 22.458 48.2588 22.6698 47.6158L22.1949 47.4594C22.4206 46.7744 22.6567 46.1139 22.9026 45.4797L23.3688 45.6605C23.6272 44.994 23.8962 44.358 24.1748 43.7545L23.7209 43.5449C24.0269 42.8821 24.345 42.2565 24.6742 41.6708L25.1101 41.9157C25.4638 41.2863 25.8291 40.7065 26.2044 40.179L25.797 39.8891C26.229 39.2821 26.6759 38.7394 27.136 38.2658L27.4946 38.6142C27.9943 38.0998 28.5039 37.6773 29.0197 37.3491L28.7513 36.9272C29.3765 36.5293 30.0199 36.2543 30.6776 36.1122L30.7832 36.601C31.0934 36.534 31.4061 36.5 31.7213 36.5C32.0366 36.5 32.3493 36.534 32.6595 36.601L32.765 36.1122C33.4227 36.2543 34.0661 36.5293 34.6914 36.9272L34.4229 37.3491C34.9387 37.6773 35.4483 38.0998 35.9481 38.6142L36.3067 38.2658C36.7667 38.7394 37.2137 39.2821 37.6456 39.8891L37.2382 40.179C37.6136 40.7065 37.9789 41.2863 38.3326 41.9157L38.7685 41.6708C39.0976 42.2565 39.4157 42.8821 39.7217 43.5449L39.2678 43.7545C39.5465 44.358 39.8155 44.994 40.0739 45.6605L40.5401 45.4797C40.786 46.1139 41.0221 46.7744 41.2477 47.4594L40.7728 47.6158C40.9846 48.2588 41.1873 48.9242 41.3802 49.6106L41.8615 49.4753C42.0469 50.1348 42.2232 50.8131 42.39 51.5088L41.9038 51.6254C42.063 52.2894 42.2135 52.9696 42.3549 53.6651L42.8448 53.5655C42.9821 54.2405 43.1107 54.9294 43.2304 55.6313L42.7375 55.7153C42.853 56.3925 42.96 57.0819 43.0584 57.7828L43.5535 57.7133C43.6496 58.3981 43.7374 59.0935 43.8166 59.7987L43.3197 59.8545C43.3965 60.5387 43.4652 61.2324 43.5253 61.9346L44.0235 61.8919C44.0828 62.584 44.1339 63.2844 44.1766 63.9921L43.6775 64.0222C43.719 64.7116 43.7525 65.4082 43.7776 66.1113L44.2773 66.0934Z" stroke="#1B8CFF" stroke-dasharray="2 2"/>
<path d="M114.997 59.7028L102.524 58.0935L102.396 59.0853L114.884 60.6967C114.829 61.1686 114.771 61.6427 114.71 62.1187C114.577 63.1464 114.432 64.1617 114.275 65.1636L101.819 63.5563L101.691 64.5481L114.116 66.1514C113.866 67.6645 113.589 69.1454 113.288 70.59L101.114 69.0192L100.986 70.011L113.078 71.5712C112.747 73.084 112.39 74.5548 112.008 75.9787L99.7266 74.3939L99.5986 75.3857L111.742 76.9526C111.318 78.468 110.867 79.9271 110.392 81.3239L98.3388 79.7687L98.2109 80.7605L110.056 82.2889C109.515 83.8134 108.945 85.258 108.352 86.6145L96.2682 85.0553L96.1403 86.0471L107.925 87.5677C107.211 89.1206 106.468 90.5444 105.703 91.8265L93.5148 90.2538L93.3868 91.2456L105.127 92.7604C104.067 94.4169 102.972 95.8023 101.863 96.8848L89.3956 95.2762L89.2676 96.2679L100.875 97.7657C99.1332 99.1725 97.4144 99.782 95.7836 99.5715L83.9881 98.0495L94.169 19.147L108.696 21.0215C109.153 21.0804 109.632 21.3349 110.13 21.8246C110.628 22.3146 111.119 23.0165 111.592 23.9129C111.706 24.1305 111.82 24.3583 111.931 24.596L98.7353 22.8933L98.6073 23.8851L112.394 25.664C112.942 27.0259 113.441 28.6283 113.88 30.4013L101.445 28.7967L101.317 29.7885L114.127 31.4414C114.536 33.2595 114.876 35.2912 115.131 37.505L102.612 35.8896L102.484 36.8814L115.242 38.5275C115.39 39.9871 115.502 41.5195 115.575 43.116L103.273 41.5287L103.145 42.5205L115.616 44.1296C115.666 45.5981 115.684 47.1176 115.667 48.6817L103.251 47.0797L103.123 48.0714L115.651 49.688C115.621 51.1595 115.559 52.6684 115.465 54.2094L103.229 52.6306L103.101 53.6224L115.399 55.2092C115.296 56.6807 115.162 58.1801 114.997 59.7028Z" fill="white" stroke="#1B8CFF"/>
<path d="M93.673 19.0835C95.4497 19.3128 97.0795 20.5502 98.4896 22.7443C99.8981 24.9357 101.046 28.0218 101.866 31.8023C103.505 39.3587 103.813 49.5785 102.383 60.6625C100.952 71.7466 98.0605 81.5535 94.5568 88.4463C92.8039 91.8948 90.9106 94.5886 88.9921 96.3507C87.0712 98.115 85.1807 98.8981 83.404 98.6689C81.6273 98.4396 79.9975 97.2022 78.5874 95.0081C77.1789 92.8167 76.0315 89.7307 75.2113 85.9501C73.5721 78.3937 73.2642 68.174 74.6944 57.0899C76.1246 46.0058 79.0165 36.1989 82.5202 29.3061C84.2731 25.8576 86.1664 23.1639 88.0849 21.4017C90.0059 19.6374 91.8964 18.8543 93.673 19.0835Z" fill="white" stroke="#1B8CFF"/>
<path d="M81.7505 77.2601L83.6323 54.3193M81.7505 77.2601L91.2621 70.4001M81.7505 77.2601L86.5234 61.1622M83.6323 54.3193L93.4519 36.7158M83.6323 54.3193L86.5234 61.1622M93.4519 36.7158L91.2621 70.4001M93.4519 36.7158L86.5234 61.1622M91.2621 70.4001L86.5234 61.1622" stroke="#1B8CFF" stroke-width="0.5" stroke-linecap="round"/>
<path d="M89.9467 22.0756C90.5542 21.7653 91.1608 21.5749 91.7625 21.5129L91.8137 22.0103C92.0959 21.9812 92.3754 21.9843 92.6523 22.02C92.9293 22.0557 93.2004 22.1237 93.4659 22.2235L93.6417 21.7554C94.208 21.9681 94.7464 22.3062 95.2552 22.7606L94.9221 23.1335C95.3303 23.498 95.7247 23.9496 96.1025 24.4871L96.5115 24.1996C96.8551 24.6884 97.1809 25.2385 97.4884 25.846L97.0423 26.0718C97.3065 26.5938 97.5579 27.162 97.7957 27.7742L98.2618 27.5931C98.4824 28.1609 98.6906 28.7636 98.8862 29.399L98.4083 29.546C98.5865 30.1251 98.7542 30.7328 98.9112 31.3677L99.3966 31.2477C99.5446 31.8465 99.6829 32.4682 99.8112 33.1116L99.3209 33.2094C99.4414 33.8135 99.5531 34.4373 99.6558 35.0799L100.15 35.001C100.248 35.6147 100.337 36.2449 100.419 36.8906L99.9228 36.9531C100 37.5679 100.07 38.1971 100.132 38.8399L100.63 38.7919C100.69 39.4161 100.743 40.0527 100.789 40.7011L100.29 40.736C100.333 41.3591 100.37 41.9932 100.4 42.6377L100.899 42.6147C100.928 43.242 100.95 43.8788 100.965 44.5246L100.465 44.5364C100.48 45.1619 100.489 45.7961 100.49 46.4382L100.99 46.4367C100.992 47.067 100.988 47.7049 100.977 48.3497L100.477 48.3414C100.467 48.9693 100.45 49.6039 100.427 50.2449L100.927 50.2626C100.905 50.894 100.876 51.5314 100.842 52.1744L100.343 52.1477C100.309 52.7763 100.27 53.4102 100.224 54.0491L100.723 54.0844C100.679 54.7157 100.628 55.3518 100.572 55.9921L100.074 55.9484C100.019 56.5766 99.9578 57.209 99.8913 57.8451L100.389 57.8971C100.323 58.5275 100.251 59.1615 100.174 59.7988L99.678 59.7388C99.6399 60.0541 99.6004 60.3703 99.5595 60.6872C99.5186 61.0041 99.4765 61.3199 99.4334 61.6346L99.9287 61.7025C99.8415 62.3385 99.7496 62.9699 99.6533 63.5963L99.1591 63.5203C99.0619 64.1525 98.9601 64.7796 98.854 65.4013L99.3469 65.4854C99.2388 66.119 99.1261 66.7471 99.0091 67.3691L98.5177 67.2767C98.3993 67.9061 98.2765 68.5292 98.1494 69.1458L98.6391 69.2467C98.5092 69.8773 98.3747 70.501 98.2361 71.1175L97.7483 71.0078C97.6076 71.6335 97.4625 72.2515 97.3133 72.8615L97.7989 72.9803C97.6457 73.6068 97.488 74.2249 97.3263 74.8341L96.843 74.7058C96.6782 75.3264 96.5091 75.9376 96.336 76.5389L96.8165 76.6772C96.6378 77.298 96.4548 77.9083 96.2677 78.5077L95.7904 78.3587C95.5982 78.9746 95.4018 79.5787 95.2015 80.1703L95.675 80.3306C95.4665 80.9462 95.2538 81.5486 95.0371 82.137L94.5679 81.9642C94.3447 82.5702 94.1174 83.1611 93.8863 83.7361L94.3503 83.9225C94.1076 84.5263 93.8607 85.1131 93.6101 85.6818L93.1525 85.4802C92.8901 86.0756 92.6237 86.6507 92.3538 87.2044L92.8033 87.4235C92.5158 88.0132 92.2242 88.5795 91.929 89.1211L91.49 88.8818C91.1771 89.4561 90.8605 90.0013 90.5412 90.5161L90.9661 90.7797C90.6157 91.3446 90.2613 91.8747 89.9038 92.3679L89.4989 92.0745C89.1135 92.6062 88.7261 93.0919 88.3381 93.5298L88.7122 93.8614C88.2606 94.371 87.8058 94.8204 87.3494 95.206L87.0267 94.8241C86.525 95.248 86.0288 95.5847 85.5415 95.8337L85.769 96.2789C85.1615 96.5892 84.5549 96.7797 83.9532 96.8416L83.902 96.3443C83.6198 96.3733 83.3403 96.3703 83.0634 96.3346C82.7864 96.2988 82.5153 96.2308 82.2498 96.1311L82.074 96.5992C81.5077 96.3865 80.9693 96.0483 80.4605 95.594L80.7936 95.221C80.3854 94.8565 79.991 94.405 79.6132 93.8675L79.2042 94.155C78.8606 93.6662 78.5348 93.1161 78.2273 92.5085L78.6734 92.2828C78.4092 91.7607 78.1578 91.1926 77.92 90.5804L77.4539 90.7615C77.2333 90.1937 77.0251 89.591 76.8295 88.9556L77.3074 88.8086C77.1292 88.2295 76.9615 87.6218 76.8045 86.9869L76.3191 87.1069C76.1711 86.5081 76.0328 85.8864 75.9045 85.243L76.3948 85.1452C76.2743 84.5411 76.1626 83.9172 76.0599 83.2747L75.5662 83.3536C75.4681 82.7398 75.3782 82.1096 75.2968 81.464L75.7929 81.4014C75.7153 80.7866 75.6455 80.1574 75.5834 79.5146L75.0857 79.5627C75.0255 78.9385 74.9726 78.3018 74.9272 77.6535L75.426 77.6186C75.3823 76.9955 75.3457 76.3614 75.3161 75.7169L74.8166 75.7398C74.7878 75.1126 74.7657 74.4758 74.7505 73.83L75.2503 73.8182C75.2355 73.1926 75.2271 72.5585 75.2252 71.9164L74.7252 71.9178C74.7234 71.2876 74.7278 70.6497 74.7386 70.0048L75.2386 70.0132C75.2491 69.3853 75.2656 68.7506 75.2883 68.1097L74.7886 68.092C74.811 67.4606 74.8393 66.8231 74.8737 66.1802L75.373 66.2069C75.4066 65.5783 75.4459 64.9443 75.4912 64.3055L74.9925 64.2702C75.0372 63.6388 75.0876 63.0028 75.1439 62.3624L75.6419 62.4062C75.6971 61.778 75.7579 61.1456 75.8244 60.5094L75.3271 60.4575C75.3929 59.8271 75.4643 59.1931 75.5413 58.5558L76.0377 58.6158C76.0758 58.3004 76.1153 57.9843 76.1562 57.6674C76.1971 57.3505 76.2392 57.0347 76.2823 56.72L75.787 56.652C75.8742 56.0161 75.9661 55.3847 76.0624 54.7582L76.5566 54.8342C76.6538 54.202 76.7556 53.5749 76.8617 52.9533L76.3688 52.8692C76.4769 52.2355 76.5896 51.6075 76.7066 50.9855L77.198 51.0779C77.3164 50.4485 77.4392 49.8253 77.5663 49.2088L77.0766 49.1079C77.2065 48.4773 77.341 47.8535 77.4796 47.2371L77.9674 47.3468C78.1081 46.7211 78.2532 46.103 78.4024 45.493L77.9168 45.3742C78.07 44.7477 78.2277 44.1296 78.3894 43.5205L78.8727 43.6488C79.0375 43.0282 79.2065 42.417 79.3797 41.8157L78.8992 41.6773C79.0779 41.0566 79.2609 40.4462 79.448 39.8469L79.9253 39.9958C80.1175 39.3799 80.3139 38.7759 80.5142 38.1843L80.0407 38.0239C80.2492 37.4083 80.4619 36.806 80.6786 36.2175L81.1478 36.3903C81.371 35.7843 81.5983 35.1935 81.8294 34.6185L81.3654 34.4321C81.6081 33.8282 81.855 33.2415 82.1056 32.6727L82.5632 32.8744C82.8256 32.2789 83.092 31.7039 83.3619 31.1501L82.9124 30.9311C83.1999 30.3414 83.4915 29.7751 83.7866 29.2335L84.2257 29.4728C84.5386 28.8985 84.8552 28.3533 85.1745 27.8384L84.7496 27.5749C85.1 27.0099 85.4544 26.4799 85.8119 25.9867L86.2168 26.2801C86.6022 25.7484 86.9896 25.2626 87.3776 24.8248L87.0035 24.4931C87.4551 23.9836 87.9099 23.5342 88.3663 23.1486L88.689 23.5305C89.1907 23.1065 89.6869 22.7698 90.1742 22.5209L89.9467 22.0756Z" stroke="#1B8CFF" stroke-dasharray="2 2"/>
<path d="M163.867 92.466L163.51 79.4038L193.199 36.7175L206.262 36.3596L223.679 47.636L181.213 105.955L163.867 92.466Z" fill="white"/>
<path d="M163.51 79.4038L163.867 92.466L181.213 105.955M163.51 79.4038L180.213 92.3933M163.51 79.4038L193.199 36.7175M181.213 105.955L180.213 92.3933M181.213 105.955L223.679 47.636M180.213 92.3933L210.403 49.0646M223.679 47.636L210.403 49.0646M223.679 47.636L206.262 36.3596L193.199 36.7175M210.403 49.0646L193.199 36.7175" stroke="#1B8CFF" stroke-linecap="round"/>
<circle cx="57.2303" cy="15.2303" r="10.6434" transform="rotate(-30.1142 57.2303 15.2303)" fill="white" stroke="#1B8CFF"/>
<path d="M58.2212 18.3019L55.4845 13.5836L55.7868 13.4082L58.5235 18.1266L58.2212 18.3019ZM57.3229 14.409C57.1925 14.235 57.0187 14.1421 56.8015 14.1301C56.5844 14.1181 56.3616 14.1784 56.133 14.3109C55.9659 14.4078 55.8354 14.5197 55.7414 14.6464C55.6487 14.7725 55.5947 14.9031 55.5795 15.0384C55.5656 15.1729 55.5936 15.3003 55.6634 15.4208C55.7218 15.5215 55.796 15.5942 55.886 15.6389C55.9765 15.6817 56.0737 15.705 56.1777 15.7087C56.281 15.7112 56.3833 15.7036 56.4847 15.6858C56.5853 15.6669 56.676 15.6463 56.7567 15.6241L57.2 15.5049C57.3132 15.4737 57.4433 15.4459 57.59 15.4216C57.738 15.3965 57.8902 15.3912 58.0464 15.4057C58.2031 15.4182 58.3529 15.4643 58.496 15.5439C58.639 15.6235 58.7619 15.7518 58.8645 15.9287C58.9828 16.1327 59.0363 16.348 59.0249 16.5746C59.0147 16.8006 58.9358 17.0212 58.7881 17.2366C58.6417 17.4513 58.4235 17.6427 58.1335 17.8109C57.8632 17.9677 57.6038 18.0598 57.3554 18.0873C57.1082 18.1141 56.8828 18.0823 56.6792 17.9918C56.4769 17.9006 56.3085 17.756 56.174 17.5582L56.6459 17.2845C56.7408 17.4199 56.8572 17.5101 56.9949 17.555C57.1331 17.598 57.2799 17.6048 57.4353 17.5754C57.5912 17.5441 57.7441 17.485 57.894 17.398C58.0685 17.2968 58.2088 17.1777 58.3148 17.0407C58.4202 16.9024 58.4838 16.7587 58.5058 16.6097C58.527 16.4594 58.4977 16.3155 58.4179 16.1779C58.3452 16.0526 58.251 15.9709 58.1354 15.9329C58.0197 15.8949 57.8905 15.8844 57.7477 15.9015C57.605 15.9187 57.4565 15.9473 57.3024 15.9874L56.761 16.1241C56.4169 16.2103 56.1133 16.2247 55.85 16.1672C55.5868 16.1097 55.3814 15.9538 55.2339 15.6994C55.1113 15.4881 55.0615 15.2707 55.0846 15.0471C55.1082 14.8216 55.1917 14.6089 55.3352 14.4091C55.4793 14.2073 55.6717 14.0366 55.9126 13.8969C56.1559 13.7558 56.3974 13.674 56.6372 13.6514C56.8764 13.6277 57.0947 13.6587 57.2922 13.7445C57.491 13.8295 57.6487 13.9655 57.7653 14.1524L57.3229 14.409Z" fill="#1B8CFF"/>
<circle cx="57.2304" cy="15.2304" r="8.70545" transform="rotate(-30.1142 57.2304 15.2304)" stroke="#1B8CFF" stroke-dasharray="1 1"/>
<circle cx="213.954" cy="97.9537" r="6.7828" transform="rotate(-30.1142 213.954 97.9537)" fill="white" stroke="#1B8CFF"/>
<path d="M214.394 99.3983L213.026 97.0391L213.177 96.9514L214.545 99.3106L214.394 99.3983ZM213.945 97.4518C213.88 97.3648 213.793 97.3183 213.684 97.3123C213.576 97.3064 213.464 97.3365 213.35 97.4028C213.266 97.4512 213.201 97.5072 213.154 97.5705C213.108 97.6336 213.081 97.6989 213.073 97.7665C213.066 97.8338 213.08 97.8975 213.115 97.9577C213.144 98.0081 213.181 98.0444 213.226 98.0668C213.272 98.0882 213.32 98.0998 213.372 98.1017C213.424 98.1029 213.475 98.0991 213.526 98.0902C213.576 98.0807 213.621 98.0705 213.662 98.0594L213.883 97.9998C213.94 97.9842 214.005 97.9703 214.078 97.9581C214.152 97.9455 214.228 97.9429 214.307 97.9501C214.385 97.9564 214.46 97.9795 214.531 98.0193C214.603 98.0591 214.664 98.1232 214.716 98.2117C214.775 98.3136 214.802 98.4213 214.796 98.5346C214.791 98.6476 214.751 98.7579 214.677 98.8656C214.604 98.9729 214.495 99.0687 214.35 99.1528C214.215 99.2312 214.085 99.2772 213.961 99.291C213.837 99.3044 213.725 99.2884 213.623 99.2432C213.522 99.1976 213.438 99.1253 213.37 99.0264L213.606 98.8896C213.654 98.9573 213.712 99.0024 213.781 99.0248C213.85 99.0463 213.923 99.0497 214.001 99.035C214.079 99.0194 214.155 98.9898 214.23 98.9463C214.318 98.8957 214.388 98.8362 214.441 98.7676C214.493 98.6985 214.525 98.6267 214.536 98.5522C214.547 98.477 214.532 98.4051 214.492 98.3363C214.456 98.2736 214.409 98.2328 214.351 98.2138C214.293 98.1947 214.229 98.1895 214.157 98.1981C214.086 98.2067 214.012 98.221 213.935 98.241L213.664 98.3094C213.492 98.3525 213.34 98.3597 213.208 98.3309C213.077 98.3022 212.974 98.2242 212.9 98.097C212.839 97.9914 212.814 97.8826 212.826 97.7709C212.837 97.6581 212.879 97.5518 212.951 97.4519C213.023 97.351 213.119 97.2656 213.24 97.1958C213.361 97.1252 213.482 97.0843 213.602 97.073C213.722 97.0612 213.831 97.0767 213.929 97.1196C214.029 97.1621 214.108 97.2301 214.166 97.3235L213.945 97.4518Z" fill="#1B8CFF"/>
<circle cx="213.954" cy="97.9538" r="5.51622" transform="rotate(-30.1142 213.954 97.9538)" stroke="#1B8CFF" stroke-dasharray="1 1"/>
</svg>
