<svg width="165" height="74" viewBox="0 0 165 74" fill="none" xmlns="http://www.w3.org/2000/svg">
<path d="M40.4161 69.0252V57.299H39.4161V69.0412C38.9825 69.0461 38.5467 69.0487 38.1088 69.0487C37.151 69.0487 36.2029 69.0361 35.2656 69.0113V57.299H34.2656V68.9801C32.8549 68.9293 31.4701 68.8509 30.1152 68.7464V57.299H29.1152V68.6641C27.6954 68.5397 26.3104 68.3866 24.9647 68.2064V56.6552H23.9647V68.0665C22.5317 67.8573 21.1463 67.6172 19.8142 67.3485V56.0114H18.8142V67.1393C17.3594 66.8238 15.9733 66.4737 14.6638 66.0922V54.7238H13.6638V65.7902C12.163 65.3204 10.7755 64.809 9.51331 64.2624V52.7924H8.51331V63.8095C6.87826 63.0348 5.4845 62.197 4.36284 61.3119V49.5733H3.36284V60.4408C1.89022 59.0135 1.1438 57.5186 1.1438 56.0114V44.9229H75.4694V58.5866C75.4694 59.008 75.2946 59.4765 74.9028 59.9929C74.5107 60.5097 73.9213 61.0468 73.1482 61.5915C72.9758 61.713 72.7951 61.8343 72.6065 61.9552V49.5733H71.6065V62.5526C70.4254 63.213 69.0217 63.8578 67.456 64.4693V52.7924H66.456V64.847C64.8364 65.4369 63.0148 65.9885 61.018 66.4854V54.7238H60.018V66.7262C58.7017 67.0329 57.3158 67.3159 55.8675 67.5711V56.0114H54.8675V67.7412C53.5318 67.9603 52.1466 68.1559 50.717 68.3248V56.6552H49.717V68.4377C48.3692 68.5831 46.9843 68.7048 45.5666 68.8003V57.299H44.5666V68.863C43.2103 68.9417 41.8256 68.9965 40.4161 69.0252Z" fill="white" stroke="#1B8CFF"/>
<path d="M75.4694 44.4228C75.4694 46.0846 74.5245 47.7358 72.6624 49.3028C70.8027 50.8678 68.082 52.2996 64.6762 53.5118C57.8691 55.9347 48.4322 57.4428 37.9847 57.4428C27.5371 57.4428 18.1003 55.9347 11.2931 53.5118C7.88733 52.2996 5.16663 50.8678 3.30696 49.3028C1.44484 47.7358 0.5 46.0846 0.5 44.4228C0.5 42.761 1.44484 41.1098 3.30696 39.5428C5.16663 37.9778 7.88733 36.546 11.2931 35.3338C18.1003 32.9109 27.5371 31.4028 37.9847 31.4028C48.4322 31.4028 57.8691 32.9109 64.6762 35.3338C68.082 36.546 70.8027 37.9778 72.6624 39.5428C74.5245 41.1098 75.4694 42.761 75.4694 44.4228Z" fill="white" stroke="#1B8CFF"/>
<path d="M45.5666 53.5738V41.8476H44.5666V53.5897C44.133 53.5947 43.6973 53.5973 43.2593 53.5973C42.3015 53.5973 41.3534 53.5846 40.4161 53.5599V41.8476H39.4161V53.5287C38.0054 53.4779 36.6206 53.3995 35.2657 53.295V41.8476H34.2657V53.2126C32.846 53.0883 31.4609 52.9351 30.1152 52.755V41.2038H29.1152V52.6151C27.6823 52.4059 26.2968 52.1658 24.9648 51.8971V40.56H23.9648V51.6879C22.5099 51.3724 21.1238 51.0222 19.8143 50.6408V39.2724H18.8143V50.3388C17.3135 49.869 15.926 49.3576 14.6638 48.8109V37.3409H13.6638V48.3581C12.0288 47.5834 10.635 46.7456 9.51335 45.8605V34.1219H8.51335V44.9894C7.04074 43.5621 6.29431 42.0672 6.29431 40.56V29.4714H80.6199V43.1352C80.6199 43.5566 80.4451 44.0251 80.0533 44.5415C79.6612 45.0583 79.0718 45.5954 78.2987 46.1401C78.1263 46.2616 77.9456 46.3828 77.757 46.5038V34.1219H76.757V47.1012C75.5759 47.7616 74.1722 48.4064 72.6066 49.0179V37.3409H71.6066V49.3956C69.9869 49.9855 68.1654 50.537 66.1685 51.034V39.2724H65.1685V51.2748C63.8522 51.5815 62.4663 51.8645 61.018 52.1197V40.56H60.018V52.2898C58.6823 52.5089 57.2971 52.7045 55.8675 52.8734V41.2038H54.8675V52.9863C53.5197 53.1317 52.1348 53.2533 50.7171 53.3489V41.8476H49.7171V53.4116C48.3608 53.4903 46.9762 53.545 45.5666 53.5738Z" fill="white" stroke="#1B8CFF"/>
<path d="M80.6198 28.9714C80.6198 30.6331 79.6749 32.2844 77.8128 33.8514C75.9531 35.4163 73.2324 36.8482 69.8266 38.0604C63.0195 40.4833 53.5826 41.9914 43.1351 41.9914C32.6875 41.9914 23.2507 40.4833 16.4435 38.0604C13.0377 36.8482 10.317 35.4163 8.45735 33.8514C6.59523 32.2844 5.65039 30.6331 5.65039 28.9714C5.65039 27.3096 6.59523 25.6584 8.45735 24.0914C10.317 22.5264 13.0377 21.0946 16.4435 19.8824C23.2507 17.4595 32.6875 15.9514 43.1351 15.9514C53.5826 15.9514 63.0195 17.4595 69.8266 19.8824C73.2324 21.0946 75.9531 22.5264 77.8128 24.0914C79.6749 25.6584 80.6198 27.3096 80.6198 28.9714Z" fill="white" stroke="#1B8CFF"/>
<path d="M53.2926 40.6976V28.9714H52.2926V40.7135C51.859 40.7185 51.4232 40.721 50.9853 40.721C50.0275 40.721 49.0794 40.7084 48.1421 40.6836V28.9714H47.1421V40.6524C45.7314 40.6017 44.3466 40.5233 42.9916 40.4188V28.9714H41.9916V40.3364C40.5719 40.2121 39.1869 40.0589 37.8412 39.8787V28.3276H36.8412V39.7389C35.4082 39.5297 34.0228 39.2896 32.6907 39.0209V27.6838H31.6907V38.8117C30.2359 38.4962 28.8497 38.146 27.5402 37.7646V26.3961H26.5402V37.4626C25.0395 36.9927 23.652 36.4814 22.3898 35.9347V24.4647H21.3898V35.4818C19.7547 34.7072 18.361 33.8694 17.2393 32.9843V21.2457H16.2393V32.1132C14.7667 30.6859 14.0203 29.191 14.0203 27.6838V16.5952H88.3458V30.259C88.3458 30.6804 88.1711 31.1489 87.7792 31.6653C87.3871 32.1821 86.7977 32.7191 86.0247 33.2639C85.8522 33.3854 85.6715 33.5066 85.483 33.6275V21.2457H84.483V34.2249C83.3019 34.8854 81.8981 35.5301 80.3325 36.1416V24.4647H79.3325V36.5194C77.7128 37.1093 75.8913 37.6608 73.8944 38.1578V26.3961H72.8944V38.3986C71.5782 38.7053 70.1923 38.9883 68.744 39.2435V27.6838H67.744V39.4135C66.4083 39.6327 65.023 39.8283 63.5935 39.9971V28.3276H62.5935V40.1101C61.2457 40.2555 59.8608 40.3771 58.443 40.4726V28.9714H57.443V40.5353C56.0868 40.6141 54.7021 40.6688 53.2926 40.6976Z" fill="white" stroke="#1B8CFF"/>
<path d="M88.3456 16.0952C88.3456 17.7569 87.4007 19.4082 85.5386 20.9752C83.679 22.5401 80.9583 23.972 77.5525 25.1842C70.7453 27.6071 61.3084 29.1151 50.8609 29.1151C40.4134 29.1151 30.9765 27.6071 24.1693 25.1842C20.7636 23.972 18.0429 22.5401 16.1832 20.9752C14.3211 19.4082 13.3762 17.7569 13.3762 16.0952C13.3762 14.4334 14.3211 12.7822 16.1832 11.2151C18.0429 9.65021 20.7636 8.21838 24.1693 7.00615C30.9765 4.58326 40.4134 3.0752 50.8609 3.0752C61.3084 3.0752 70.7453 4.58326 77.5525 7.00615C80.9583 8.21838 83.679 9.65021 85.5386 11.2151C87.4007 12.7822 88.3456 14.4334 88.3456 16.0952Z" fill="white" stroke="#1B8CFF"/>
<path d="M33 12L54.5 11M33 12L40.5 20M33 12L48.5 14.5M54.5 11L72 18M54.5 11L48.5 14.5M72 18L40.5 20M72 18L48.5 14.5M40.5 20L48.5 14.5" stroke="#1B8CFF" stroke-width="0.5" stroke-linecap="round"/>
<path d="M85.0005 12.7791C85.4254 13.3465 85.7204 13.9303 85.8748 14.5271L85.3907 14.6523C85.4634 14.9334 85.5 15.2158 85.5 15.5C85.5 15.7842 85.4634 16.0666 85.3907 16.3477L85.8748 16.4729C85.7204 17.0697 85.4254 17.6535 85.0005 18.2209L84.6003 17.9212C84.2651 18.3687 83.8366 18.8131 83.316 19.2508L83.6377 19.6336C83.1693 20.0273 82.636 20.4107 82.0419 20.7822L81.7768 20.3582C81.2656 20.678 80.7058 20.9901 80.0997 21.2934L80.3235 21.7405C79.7625 22.0213 79.1648 22.2936 78.5326 22.5568L78.3405 22.0952C77.7645 22.3349 77.1586 22.5673 76.5242 22.7918L76.6909 23.2632C76.0926 23.4749 75.47 23.6794 74.8248 23.8761L74.679 23.3978C74.0732 23.5825 73.4467 23.7604 72.8006 23.9312L72.9284 24.4146C72.3095 24.5782 71.6732 24.7352 71.0206 24.8852L70.9086 24.3979C70.2857 24.5411 69.6477 24.6779 68.9953 24.8081L69.0931 25.2984C68.4611 25.4245 67.816 25.5444 67.1585 25.6578L67.0736 25.1651C66.4416 25.2741 65.7981 25.377 65.1437 25.4737L65.2168 25.9683C64.5765 26.063 63.9261 26.1516 63.2661 26.234L63.2041 25.7379C62.5641 25.8178 61.915 25.8919 61.2574 25.9599L61.3088 26.4572C60.6628 26.5241 60.0087 26.585 59.3472 26.64L59.3058 26.1417C58.6622 26.1952 58.0115 26.243 57.3542 26.2848L57.386 26.7838C56.7373 26.8251 56.0823 26.8607 55.4215 26.8904L55.399 26.3909C54.752 26.42 54.0993 26.4434 53.4415 26.4609L53.4548 26.9607C52.8037 26.9781 52.1475 26.9898 51.4869 26.9956L51.4825 26.4957C51.1561 26.4985 50.8286 26.5 50.5 26.5C50.1714 26.5 49.8439 26.4985 49.5175 26.4957L49.5131 26.9956C48.8525 26.9898 48.1963 26.9781 47.5452 26.9607L47.5585 26.4609C46.9007 26.4434 46.248 26.42 45.601 26.3909L45.5785 26.8904C44.9177 26.8607 44.2627 26.8251 43.614 26.7838L43.6458 26.2848C42.9885 26.243 42.3378 26.1952 41.6942 26.1417L41.6528 26.64C40.9913 26.585 40.3372 26.5241 39.6912 26.4572L39.7426 25.9599C39.085 25.8919 38.4359 25.8178 37.7959 25.7379L37.7339 26.234C37.0739 26.1516 36.4235 26.063 35.7832 25.9683L35.8563 25.4737C35.2019 25.377 34.5584 25.2741 33.9264 25.1651L33.8415 25.6578C33.184 25.5444 32.5389 25.4245 31.9069 25.2984L32.0047 24.8081C31.3523 24.6779 30.7143 24.5411 30.0914 24.3979L29.9794 24.8852C29.3268 24.7352 28.6905 24.5782 28.0716 24.4146L28.1994 23.9312C27.5533 23.7604 26.9268 23.5825 26.321 23.3978L26.1752 23.8761C25.53 23.6794 24.9074 23.4749 24.3091 23.2632L24.4758 22.7918C23.8414 22.5673 23.2355 22.3349 22.6595 22.0952L22.4674 22.5568C21.8352 22.2936 21.2375 22.0213 20.6765 21.7405L20.9003 21.2934C20.2942 20.9901 19.7344 20.678 19.2232 20.3582L18.9581 20.7822C18.364 20.4107 17.8307 20.0273 17.3623 19.6336L17.684 19.2508C17.1634 18.8131 16.7349 18.3687 16.3997 17.9212L15.9995 18.2209C15.5746 17.6535 15.2796 17.0697 15.1252 16.4729L15.6093 16.3477C15.5366 16.0666 15.5 15.7842 15.5 15.5C15.5 15.2158 15.5366 14.9334 15.6093 14.6523L15.1252 14.5271C15.2796 13.9303 15.5746 13.3465 15.9995 12.7791L16.3997 13.0788C16.7349 12.6313 17.1634 12.1869 17.684 11.7492L17.3623 11.3664C17.8307 10.9727 18.364 10.5893 18.9581 10.2178L19.2232 10.6418C19.7344 10.322 20.2942 10.0099 20.9003 9.7066L20.6765 9.25947C21.2375 8.97873 21.8352 8.70642 22.4674 8.44324L22.6595 8.90485C23.2355 8.66511 23.8414 8.43268 24.4759 8.20819L24.3091 7.73683C24.9074 7.5251 25.53 7.32064 26.1752 7.12393L26.321 7.60219C26.9268 7.41751 27.5533 7.23957 28.1994 7.06879L28.0716 6.5854C28.6905 6.42179 29.3268 6.26482 29.9794 6.1148L30.0914 6.60209C30.7143 6.45893 31.3523 6.3221 32.0047 6.19191L31.9069 5.70157C32.5389 5.57545 33.184 5.45557 33.8415 5.34219L33.9264 5.83492C34.5584 5.72594 35.2019 5.62298 35.8563 5.52628L35.7832 5.03165C36.4235 4.93704 37.0739 4.84841 37.7339 4.76599L37.7959 5.26214C38.4359 5.1822 39.085 5.10813 39.7426 5.04011L39.6912 4.54276C40.3372 4.47595 40.9913 4.41496 41.6528 4.35999L41.6942 4.85827C42.3378 4.80479 42.9885 4.75703 43.6458 4.71518L43.614 4.21619C44.2627 4.17489 44.9177 4.1393 45.5785 4.10962L45.601 4.60911C46.248 4.58004 46.9007 4.55665 47.5585 4.53909L47.5452 4.03927C48.1963 4.02189 48.8525 4.0102 49.5131 4.00436L49.5175 4.50434C49.8439 4.50145 50.1714 4.5 50.5 4.5C50.8286 4.5 51.1561 4.50145 51.4825 4.50434L51.4869 4.00436C52.1475 4.0102 52.8037 4.02189 53.4548 4.03927L53.4415 4.53909C54.0993 4.55665 54.752 4.58004 55.399 4.60911L55.4215 4.10962C56.0823 4.1393 56.7373 4.17489 57.386 4.21619L57.3542 4.71518C58.0115 4.75703 58.6622 4.80479 59.3058 4.85827L59.3472 4.35999C60.0087 4.41496 60.6628 4.47595 61.3088 4.54276L61.2574 5.04011C61.915 5.10813 62.5641 5.1822 63.2041 5.26214L63.2661 4.76599C63.9261 4.84841 64.5765 4.93704 65.2168 5.03165L65.1437 5.52628C65.7981 5.62298 66.4416 5.72594 67.0736 5.83492L67.1585 5.34219C67.816 5.45557 68.4611 5.57545 69.0931 5.70157L68.9953 6.19191C69.6477 6.3221 70.2857 6.45893 70.9086 6.60209L71.0206 6.1148C71.6732 6.26482 72.3095 6.42179 72.9284 6.5854L72.8006 7.0688C73.4467 7.23957 74.0732 7.41751 74.679 7.60219L74.8248 7.12393C75.47 7.32064 76.0926 7.5251 76.6909 7.73683L76.5242 8.2082C77.1586 8.43268 77.7645 8.66511 78.3405 8.90485L78.5326 8.44324C79.1648 8.70642 79.7625 8.97874 80.3235 9.25947L80.0997 9.7066C80.7058 10.0099 81.2656 10.322 81.7768 10.6418L82.0419 10.2178C82.636 10.5893 83.1693 10.9727 83.6377 11.3664L83.316 11.7492C83.8366 12.1869 84.2651 12.6313 84.6003 13.0788L85.0005 12.7791Z" stroke="#1B8CFF" stroke-dasharray="2 2"/>
<path d="M129.261 72.888V61.1618H128.261V72.9039C127.828 72.9089 127.392 72.9115 126.954 72.9115C125.996 72.9115 125.048 72.8989 124.111 72.8741V61.1618H123.111V72.8429C121.7 72.7921 120.315 72.7137 118.961 72.6092V61.1618H117.961V72.5269C116.541 72.4025 115.156 72.2493 113.81 72.0692V60.518H112.81V71.9293C111.377 71.7201 109.992 71.48 108.66 71.2113V59.8742H107.66V71.0021C106.205 70.6866 104.819 70.3364 103.509 69.955V58.5866H102.509V69.653C101.008 69.1832 99.6209 68.6718 98.3586 68.1252V56.6552H97.3586V67.6723C95.7236 66.8976 94.3298 66.0598 93.2082 65.1747V53.4361H92.2082V64.3036C90.7356 62.8763 89.9891 61.3814 89.9891 59.8742V48.7856H164.315V62.4494C164.315 62.8708 164.14 63.3393 163.748 63.8557C163.356 64.3725 162.767 64.9096 161.994 65.4543C161.821 65.5758 161.64 65.697 161.452 65.818V53.4361H160.452V66.4154C159.271 67.0758 157.867 67.7206 156.301 68.3321V56.6552H155.301V68.7098C153.682 69.2997 151.86 69.8513 149.863 70.3482V58.5866H148.863V70.589C147.547 70.8957 146.161 71.1787 144.713 71.4339V59.8742H143.713V71.604C142.377 71.8231 140.992 72.0187 139.562 72.1876V60.518H138.562V72.3005C137.215 72.4459 135.83 72.5676 134.412 72.6631V61.1618H133.412V72.7258C132.056 72.8045 130.671 72.8592 129.261 72.888Z" fill="white" stroke="#1B8CFF"/>
<path d="M164.315 48.2856C164.315 49.9474 163.37 51.5986 161.508 53.1656C159.648 54.7306 156.927 56.1624 153.522 57.3746C146.715 59.7975 137.278 61.3056 126.83 61.3056C116.383 61.3056 106.946 59.7975 100.139 57.3746C96.7328 56.1624 94.0121 54.7306 92.1524 53.1656C90.2903 51.5986 89.3455 49.9474 89.3455 48.2856C89.3455 46.6238 90.2903 44.9726 92.1524 43.4056C94.0121 41.8406 96.7328 40.4088 100.139 39.1966C106.946 36.7737 116.383 35.2656 126.83 35.2656C137.278 35.2656 146.715 36.7737 153.522 39.1966C156.927 40.4088 159.648 41.8406 161.508 43.4056C163.37 44.9726 164.315 46.6238 164.315 48.2856Z" fill="white" stroke="#1B8CFF"/>
<path d="M129.261 61.2994V49.5732H128.261V61.3153C127.828 61.3203 127.392 61.3228 126.954 61.3228C125.996 61.3228 125.048 61.3102 124.111 61.2854V49.5732H123.111V61.2542C121.7 61.2035 120.315 61.1251 118.961 61.0206V49.5732H117.961V60.9382C116.541 60.8139 115.156 60.6607 113.81 60.4806V48.9294H112.81V60.3407C111.377 60.1315 109.992 59.8914 108.66 59.6227V48.2856H107.66V59.4135C106.205 59.098 104.819 58.7478 103.509 58.3664V46.998H102.509V58.0644C101.008 57.5945 99.6209 57.0832 98.3586 56.5365V45.0665H97.3586V56.0836C95.7236 55.309 94.3298 54.4712 93.2082 53.5861V41.8475H92.2082V52.715C90.7356 51.2877 89.9891 49.7928 89.9891 48.2856V37.197H164.315V50.8608C164.315 51.2822 164.14 51.7507 163.748 52.2671C163.356 52.7839 162.767 53.321 161.994 53.8657C161.821 53.9872 161.64 54.1084 161.452 54.2293V41.8475H160.452V54.8267C159.271 55.4872 157.867 56.132 156.301 56.7434V45.0665H155.301V57.1212C153.682 57.7111 151.86 58.2626 149.863 58.7596V46.998H148.863V59.0004C147.547 59.3071 146.161 59.5901 144.713 59.8453V48.2856H143.713V60.0154C142.377 60.2345 140.992 60.4301 139.562 60.5989V48.9294H138.562V60.7119C137.215 60.8573 135.83 60.9789 134.412 61.0745V49.5732H133.412V61.1371C132.056 61.2159 130.671 61.2706 129.261 61.2994Z" fill="white" stroke="#1B8CFF"/>
<path d="M164.315 36.697C164.315 38.3587 163.37 40.01 161.508 41.577C159.648 43.1419 156.927 44.5738 153.522 45.786C146.715 48.2089 137.278 49.7169 126.83 49.7169C116.383 49.7169 106.946 48.2089 100.139 45.786C96.7328 44.5738 94.0121 43.1419 92.1524 41.577C90.2903 40.01 89.3455 38.3587 89.3455 36.697C89.3455 35.0352 90.2903 33.384 92.1524 31.817C94.0121 30.252 96.7328 28.8202 100.139 27.608C106.946 25.1851 116.383 23.677 126.83 23.677C137.278 23.677 146.715 25.1851 153.522 27.608C156.927 28.8202 159.648 30.252 161.508 31.817C163.37 33.384 164.315 35.0352 164.315 36.697Z" fill="white" stroke="#1B8CFF"/>
<path d="M129.261 49.711V37.9848H128.261V49.7269C127.828 49.7319 127.392 49.7345 126.954 49.7345C125.996 49.7345 125.048 49.7218 124.111 49.6971V37.9848H123.111V49.6659C121.7 49.6151 120.315 49.5367 118.961 49.4322V37.9848H117.961V49.3499C116.541 49.2255 115.156 49.0723 113.81 48.8922V37.341H112.81V48.7523C111.377 48.5431 109.992 48.303 108.66 48.0343V36.6972H107.66V47.8251C106.205 47.5096 104.819 47.1594 103.509 46.778V35.4096H102.509V46.476C101.008 46.0062 99.6209 45.4948 98.3586 44.9482V33.4781H97.3586V44.4953C95.7236 43.7206 94.3298 42.8828 93.2082 41.9977V30.2591H92.2082V41.1266C90.7356 39.6993 89.9891 38.2044 89.9891 36.6972V25.6086H164.315V39.2724C164.315 39.6938 164.14 40.1623 163.748 40.6787C163.356 41.1955 162.767 41.7326 161.994 42.2773C161.821 42.3988 161.64 42.52 161.452 42.641V30.2591H160.452V43.2384C159.271 43.8988 157.867 44.5436 156.301 45.1551V33.4781H155.301V45.5328C153.682 46.1227 151.86 46.6743 149.863 47.1712V35.4096H148.863V47.412C147.547 47.7187 146.161 48.0017 144.713 48.2569V36.6972H143.713V48.427C142.377 48.6461 140.992 48.8417 139.562 49.0106V37.341H138.562V49.1235C137.215 49.2689 135.83 49.3905 134.412 49.4861V37.9848H133.412V49.5488C132.056 49.6275 130.671 49.6822 129.261 49.711Z" fill="white" stroke="#1B8CFF"/>
<path d="M164.315 25.1086C164.315 26.7704 163.37 28.4216 161.508 29.9886C159.648 31.5536 156.927 32.9854 153.522 34.1976C146.715 36.6205 137.278 38.1286 126.83 38.1286C116.383 38.1286 106.946 36.6205 100.139 34.1976C96.7328 32.9854 94.0121 31.5536 92.1524 29.9886C90.2903 28.4216 89.3455 26.7704 89.3455 25.1086C89.3455 23.4468 90.2903 21.7956 92.1524 20.2286C94.0121 18.6636 96.7328 17.2318 100.139 16.0196C106.946 13.5967 116.383 12.0886 126.83 12.0886C137.278 12.0886 146.715 13.5967 153.522 16.0196C156.927 17.2318 159.648 18.6636 161.508 20.2286C163.37 21.7956 164.315 23.4468 164.315 25.1086Z" fill="white" stroke="#1B8CFF"/>
<path d="M129.261 38.1224V26.3962H128.261V38.1383C127.828 38.1433 127.392 38.1458 126.954 38.1458C125.996 38.1458 125.048 38.1332 124.111 38.1084V26.3962H123.111V38.0772C121.7 38.0265 120.315 37.9481 118.961 37.8436V26.3962H117.961V37.7612C116.541 37.6369 115.156 37.4837 113.81 37.3036V25.7524H112.81V37.1637C111.377 36.9545 109.992 36.7144 108.66 36.4457V25.1086H107.66V36.2365C106.205 35.921 104.819 35.5708 103.509 35.1894V23.821H102.509V34.8874C101.008 34.4175 99.6209 33.9062 98.3586 33.3595V21.8895H97.3586V32.9066C95.7236 32.132 94.3298 31.2942 93.2082 30.4091V18.6705H92.2082V29.538C90.7356 28.1107 89.9891 26.6158 89.9891 25.1086V14.02H164.315V27.6838C164.315 28.1052 164.14 28.5737 163.748 29.0901C163.356 29.6069 162.767 30.144 161.994 30.6887C161.821 30.8102 161.64 30.9314 161.452 31.0523V18.6705H160.452V31.6497C159.271 32.3102 157.867 32.955 156.301 33.5664V21.8895H155.301V33.9442C153.682 34.5341 151.86 35.0856 149.863 35.5826V23.821H148.863V35.8234C147.547 36.1301 146.161 36.4131 144.713 36.6683V25.1086H143.713V36.8384C142.377 37.0575 140.992 37.2531 139.562 37.4219V25.7524H138.562V37.5349C137.215 37.6803 135.83 37.8019 134.412 37.8974V26.3962H133.412V37.9601C132.056 38.0389 130.671 38.0936 129.261 38.1224Z" fill="white" stroke="#1B8CFF"/>
<path d="M164.315 13.52C164.315 15.1817 163.37 16.833 161.508 18.4C159.648 19.9649 156.927 21.3968 153.522 22.609C146.715 25.0319 137.278 26.5399 126.83 26.5399C116.383 26.5399 106.946 25.0319 100.139 22.609C96.7328 21.3968 94.0121 19.9649 92.1524 18.4C90.2903 16.833 89.3455 15.1817 89.3455 13.52C89.3455 11.8582 90.2903 10.207 92.1524 8.63995C94.0121 7.07501 96.7328 5.64319 100.139 4.43096C106.946 2.00807 116.383 0.5 126.83 0.5C137.278 0.5 146.715 2.00807 153.522 4.43096C156.927 5.64319 159.648 7.07501 161.508 8.63995C163.37 10.207 164.315 11.8582 164.315 13.52Z" fill="white" stroke="#1B8CFF"/>
<path d="M110.154 10.7632L121.893 14.1842M110.154 10.7632L116.515 8.3233C118.767 7.4599 121.221 7.27229 123.577 7.78347V7.78347C126.343 8.38345 126.688 12.1892 124.075 13.2764L121.893 14.1842M110.154 10.7632L107 12.1316M136.436 18.2895L140.957 16.8182C143.214 16.0837 143.237 12.899 140.991 12.1316V12.1316L140.498 12.0059C135.571 10.7511 130.379 11.0284 125.614 12.8006L121.893 14.1842M136.436 18.2895L121.893 14.1842M136.436 18.2895L130.829 20M121.893 14.1842L117.162 15.8947" stroke="#1B8CFF" stroke-linecap="round"/>
<path d="M161 10.7791C161.425 11.3465 161.72 11.9303 161.875 12.5271L161.391 12.6523C161.463 12.9334 161.5 13.2158 161.5 13.5C161.5 13.7842 161.463 14.0666 161.391 14.3477L161.875 14.4729C161.72 15.0697 161.425 15.6535 161 16.2209L160.6 15.9212C160.265 16.3687 159.837 16.8131 159.316 17.2508L159.638 17.6336C159.169 18.0273 158.636 18.4107 158.042 18.7822L157.777 18.3582C157.266 18.678 156.706 18.9901 156.1 19.2934L156.323 19.7405C155.763 20.0213 155.165 20.2936 154.533 20.5568L154.34 20.0952C153.765 20.3349 153.159 20.5673 152.524 20.7918L152.691 21.2632C152.093 21.4749 151.47 21.6794 150.825 21.8761L150.679 21.3978C150.073 21.5825 149.447 21.7604 148.801 21.9312L148.928 22.4146C148.309 22.5782 147.673 22.7352 147.021 22.8852L146.909 22.3979C146.286 22.5411 145.648 22.6779 144.995 22.8081L145.093 23.2984C144.461 23.4245 143.816 23.5444 143.159 23.6578L143.074 23.1651C142.442 23.2741 141.798 23.377 141.144 23.4737L141.217 23.9683C140.577 24.063 139.926 24.1516 139.266 24.234L139.204 23.7379C138.564 23.8178 137.915 23.8919 137.257 23.9599L137.309 24.4572C136.663 24.5241 136.009 24.585 135.347 24.64L135.306 24.1417C134.662 24.1952 134.012 24.243 133.354 24.2848L133.386 24.7838C132.737 24.8251 132.082 24.8607 131.421 24.8904L131.399 24.3909C130.752 24.42 130.099 24.4434 129.441 24.4609L129.455 24.9607C128.804 24.9781 128.148 24.9898 127.487 24.9956L127.482 24.4957C127.156 24.4985 126.829 24.5 126.5 24.5C126.171 24.5 125.844 24.4985 125.518 24.4957L125.513 24.9956C124.852 24.9898 124.196 24.9781 123.545 24.9607L123.559 24.4609C122.901 24.4434 122.248 24.42 121.601 24.3909L121.579 24.8904C120.918 24.8607 120.263 24.8251 119.614 24.7838L119.646 24.2848C118.988 24.243 118.338 24.1952 117.694 24.1417L117.653 24.64C116.991 24.585 116.337 24.5241 115.691 24.4572L115.743 23.9599C115.085 23.8919 114.436 23.8178 113.796 23.7379L113.734 24.234C113.074 24.1516 112.423 24.063 111.783 23.9683L111.856 23.4737C111.202 23.377 110.558 23.2741 109.926 23.1651L109.841 23.6578C109.184 23.5444 108.539 23.4245 107.907 23.2984L108.005 22.8081C107.352 22.6779 106.714 22.5411 106.091 22.3979L105.979 22.8852C105.327 22.7352 104.691 22.5782 104.072 22.4146L104.199 21.9312C103.553 21.7604 102.927 21.5825 102.321 21.3978L102.175 21.8761C101.53 21.6794 100.907 21.4749 100.309 21.2632L100.476 20.7918C99.8414 20.5673 99.2355 20.3349 98.6595 20.0952L98.4674 20.5568C97.8352 20.2936 97.2375 20.0213 96.6765 19.7405L96.9003 19.2934C96.2942 18.9901 95.7344 18.678 95.2232 18.3582L94.9581 18.7822C94.364 18.4107 93.8307 18.0273 93.3623 17.6336L93.684 17.2508C93.1634 16.8131 92.7349 16.3687 92.3997 15.9212L91.9995 16.2209C91.5746 15.6535 91.2796 15.0697 91.1252 14.4729L91.6093 14.3477C91.5366 14.0666 91.5 13.7842 91.5 13.5C91.5 13.2158 91.5366 12.9334 91.6093 12.6523L91.1252 12.5271C91.2796 11.9303 91.5746 11.3465 91.9995 10.7791L92.3997 11.0788C92.7349 10.6313 93.1634 10.1869 93.684 9.74915L93.3623 9.36644C93.8307 8.97265 94.364 8.58932 94.9581 8.21782L95.2232 8.64175C95.7344 8.32204 96.2942 8.00991 96.9003 7.7066L96.6765 7.25947C97.2375 6.97873 97.8352 6.70642 98.4674 6.44324L98.6595 6.90485C99.2355 6.66511 99.8414 6.43268 100.476 6.20819L100.309 5.73683C100.907 5.5251 101.53 5.32064 102.175 5.12393L102.321 5.60219C102.927 5.41751 103.553 5.23957 104.199 5.06879L104.072 4.5854C104.691 4.42179 105.327 4.26482 105.979 4.1148L106.091 4.60209C106.714 4.45893 107.352 4.3221 108.005 4.19191L107.907 3.70157C108.539 3.57545 109.184 3.45557 109.841 3.34219L109.926 3.83492C110.558 3.72594 111.202 3.62298 111.856 3.52628L111.783 3.03165C112.423 2.93704 113.074 2.84841 113.734 2.76599L113.796 3.26214C114.436 3.1822 115.085 3.10813 115.743 3.04011L115.691 2.54276C116.337 2.47595 116.991 2.41496 117.653 2.35999L117.694 2.85827C118.338 2.80479 118.988 2.75703 119.646 2.71518L119.614 2.21619C120.263 2.17489 120.918 2.1393 121.579 2.10962L121.601 2.60911C122.248 2.58004 122.901 2.55665 123.559 2.53909L123.545 2.03927C124.196 2.02189 124.852 2.0102 125.513 2.00436L125.518 2.50434C125.844 2.50145 126.171 2.5 126.5 2.5C126.829 2.5 127.156 2.50145 127.482 2.50434L127.487 2.00436C128.148 2.0102 128.804 2.02189 129.455 2.03927L129.441 2.53909C130.099 2.55665 130.752 2.58004 131.399 2.60911L131.421 2.10962C132.082 2.1393 132.737 2.17489 133.386 2.21619L133.354 2.71518C134.012 2.75703 134.662 2.80479 135.306 2.85827L135.347 2.35999C136.009 2.41496 136.663 2.47595 137.309 2.54276L137.257 3.04011C137.915 3.10813 138.564 3.1822 139.204 3.26214L139.266 2.76599C139.926 2.84841 140.577 2.93704 141.217 3.03165L141.144 3.52628C141.798 3.62298 142.442 3.72594 143.074 3.83492L143.159 3.34219C143.816 3.45557 144.461 3.57545 145.093 3.70157L144.995 4.19191C145.648 4.3221 146.286 4.45893 146.909 4.60209L147.021 4.1148C147.673 4.26482 148.309 4.42179 148.928 4.5854L148.801 5.0688C149.447 5.23957 150.073 5.41751 150.679 5.60219L150.825 5.12393C151.47 5.32064 152.093 5.5251 152.691 5.73683L152.524 6.2082C153.159 6.43268 153.765 6.66511 154.34 6.90485L154.533 6.44324C155.165 6.70642 155.763 6.97874 156.323 7.25947L156.1 7.7066C156.706 8.00992 157.266 8.32204 157.777 8.64175L158.042 8.21782C158.636 8.58932 159.169 8.97265 159.638 9.36644L159.316 9.74915C159.837 10.1869 160.265 10.6313 160.6 11.0788L161 10.7791Z" stroke="#1B8CFF" stroke-dasharray="2 2"/>
</svg>
