<svg width="146" height="123" viewBox="0 0 146 123" fill="none" xmlns="http://www.w3.org/2000/svg">
<path d="M42.2082 76.7728L97.0987 51.9167C99.4089 50.8706 102.053 50.8477 104.381 51.8536L142.155 68.1755C143.381 68.7054 143.366 70.45 142.13 70.9581V87.8139L85.2685 111L42.2082 93.3344L41.9495 92.2996C40.6723 87.1909 40.7616 81.8361 42.2082 76.7728Z" fill="white"/>
<path d="M42.2082 76.7728L97.0987 51.9167C99.4089 50.8706 102.053 50.8477 104.381 51.8536L142.155 68.1755C143.381 68.7054 143.366 70.45 142.13 70.9581V70.9581M42.2082 76.7728L85.2685 94.2216M42.2082 76.7728V76.7728C40.7616 81.8361 40.6723 87.1909 41.9495 92.2996L42.2082 93.3344L85.2685 111M85.2685 94.2216L142.13 70.9581M85.2685 94.2216V96.6723M142.13 70.9581V87.8139M142.13 87.8139L85.2685 111M142.13 87.8139L143.234 87.2618M85.2685 111V107.765M85.2685 96.6723L66.8067 89.7395M85.2685 96.6723V101.756M85.2685 96.6723L139 75M85.2685 101.756L46.9328 86.9664M85.2685 101.756V107.765M85.2685 101.756L114.5 89.7395M85.2685 107.765L55.7143 96.2101M85.2685 107.765L98.5 102.5" stroke="#1B8CFF" stroke-width="0.5" stroke-linecap="round"/>
<path d="M42.2082 58.4986L97.0987 33.6425C99.4089 32.5964 102.053 32.5735 104.381 33.5794L142.155 49.9013C143.381 50.4313 143.366 52.1758 142.13 52.684V69.5397L85.2685 92.726L42.2082 75.0602L41.9495 74.0254C40.6723 68.9167 40.7616 63.5619 42.2082 58.4986Z" fill="white"/>
<path d="M42.2082 58.4986L97.0987 33.6425C99.4089 32.5964 102.053 32.5735 104.381 33.5794L142.155 49.9013C143.381 50.4313 143.366 52.1758 142.13 52.684V52.684M42.2082 58.4986L85.2685 75.9475M42.2082 58.4986V58.4986C40.7616 63.5619 40.6723 68.9167 41.9495 74.0254L42.2082 75.0602L85.2685 92.726M85.2685 75.9475L142.13 52.684M85.2685 75.9475V92.726M142.13 52.684V69.5397L85.2685 92.726" stroke="#1B8CFF" stroke-linecap="round"/>
<path d="M46.0083 63.3948L84.8318 79.1091L139 57M48.3192 69.8654L84.8318 84.6553L106.5 76M51.0923 75.4116L84.8318 88.8149L132.5 69.8654" stroke="#1B8CFF" stroke-width="0.5" stroke-linecap="round"/>
<path d="M65.6183 54.6278V26.0525H120.42V54.6278L119.906 54.9969C103.65 66.6742 81.7146 66.5251 65.6183 54.6278Z" fill="white" stroke="#1B8CFF" stroke-linecap="round"/>
<path d="M92.6278 1L43.6975 24.878L92.6278 48.3645L141.558 24.878L92.6278 1Z" fill="white" stroke="#1B8CFF" stroke-linecap="round"/>
<path d="M125.8 84.6967L119.537 80.3908L112.1 75.302L112.491 87.4368L125.8 97.2228V84.6967Z" fill="white"/>
<path d="M97.5 23L119.537 35.5V80.3908M119.537 80.3908L125.8 84.6967V97.2228L112.491 87.4368L112.1 75.302L119.537 80.3908Z" stroke="#1B8CFF" stroke-linecap="round"/>
<path d="M137 25L93 3L49 25L93 46L137 25Z" stroke="#1B8CFF" stroke-width="0.5" stroke-linecap="round" stroke-dasharray="2 2"/>
<path d="M98.7437 21.3109C98.7437 21.6577 98.4496 22.1062 97.6664 22.4978C96.9131 22.8744 95.8373 23.1218 94.6218 23.1218C93.4064 23.1218 92.3306 22.8744 91.5773 22.4978C90.7941 22.1062 90.5 21.6577 90.5 21.3109C90.5 20.9642 90.7941 20.5157 91.5773 20.1241C92.3306 19.7474 93.4064 19.5 94.6218 19.5C95.8373 19.5 96.9131 19.7474 97.6664 20.1241C98.4496 20.5157 98.7437 20.9642 98.7437 21.3109Z" stroke="#1B8CFF"/>
<path d="M43.9253 121.799L1.34084 98.6478L29.9253 35.7988L40.9253 34.7988L78.9253 56.2988L51.4253 121.799L43.9253 121.799Z" fill="white"/>
<path d="M29.9253 35.7988L1.34084 98.6478L43.9253 121.799M29.9253 35.7988L40.9253 34.7988L78.9253 56.2988M29.9253 35.7988L70.4253 58.2988M43.9253 121.799L51.4253 121.799L78.9253 56.2988M43.9253 121.799L70.4253 58.2988M78.9253 56.2988L70.4253 58.2988" stroke="#1B8CFF" stroke-linecap="round"/>
<path d="M52.4253 108.299L72.9253 57.7988L56.9253 48.7988M65.9253 82.7988L76.4253 56.7988L43.9253 38.2988" stroke="#1B8CFF" stroke-width="0.5" stroke-linecap="round"/>
</svg>
